%TF.GenerationSoftware,KiCad,Pcbnew,8.0.4+dfsg-1*%
%TF.CreationDate,2024-09-04T10:49:19-05:00*%
%TF.ProjectId,GreenHouse_automation,47726565-6e48-46f7-9573-655f6175746f,rev?*%
%TF.SameCoordinates,Original*%
%TF.FileFunction,Copper,L2,Bot*%
%TF.FilePolarity,Positive*%
%FSLAX46Y46*%
G04 Gerber Fmt 4.6, Leading zero omitted, Abs format (unit mm)*
G04 Created by KiCad (PCBNEW 8.0.4+dfsg-1) date 2024-09-04 10:49:19*
%MOMM*%
%LPD*%
G01*
G04 APERTURE LIST*
%TA.AperFunction,ComponentPad*%
%ADD10C,3.800000*%
%TD*%
%TA.AperFunction,ComponentPad*%
%ADD11R,1.700000X1.700000*%
%TD*%
%TA.AperFunction,ComponentPad*%
%ADD12O,1.700000X1.700000*%
%TD*%
%TA.AperFunction,ComponentPad*%
%ADD13R,2.000000X2.000000*%
%TD*%
%TA.AperFunction,ComponentPad*%
%ADD14C,2.000000*%
%TD*%
%TA.AperFunction,ComponentPad*%
%ADD15R,1.600000X1.600000*%
%TD*%
%TA.AperFunction,ComponentPad*%
%ADD16O,1.600000X1.600000*%
%TD*%
%TA.AperFunction,ComponentPad*%
%ADD17C,3.000000*%
%TD*%
%TA.AperFunction,ComponentPad*%
%ADD18C,2.500000*%
%TD*%
%TA.AperFunction,ComponentPad*%
%ADD19O,1.400000X1.400000*%
%TD*%
%TA.AperFunction,ComponentPad*%
%ADD20C,1.400000*%
%TD*%
%TA.AperFunction,ComponentPad*%
%ADD21R,2.200000X2.200000*%
%TD*%
%TA.AperFunction,ComponentPad*%
%ADD22O,2.200000X2.200000*%
%TD*%
%TA.AperFunction,ComponentPad*%
%ADD23R,2.000000X1.905000*%
%TD*%
%TA.AperFunction,ComponentPad*%
%ADD24O,2.000000X1.905000*%
%TD*%
%TA.AperFunction,ComponentPad*%
%ADD25R,4.600000X2.000000*%
%TD*%
%TA.AperFunction,ComponentPad*%
%ADD26O,4.200000X2.000000*%
%TD*%
%TA.AperFunction,ComponentPad*%
%ADD27O,2.000000X4.200000*%
%TD*%
%TA.AperFunction,Conductor*%
%ADD28C,0.500000*%
%TD*%
G04 APERTURE END LIST*
D10*
%TO.P,,1*%
%TO.N,GND*%
X87000000Y-55800000D03*
%TD*%
%TO.P,,1*%
%TO.N,GND*%
X87000000Y-55800000D03*
%TD*%
%TO.P,,1*%
%TO.N,GND*%
X87000000Y-55800000D03*
%TD*%
%TO.P,H3,1*%
%TO.N,GND*%
X87000000Y-55800000D03*
%TD*%
%TO.P,H4,1*%
%TO.N,N/C*%
X3000000Y-56000000D03*
%TD*%
D11*
%TO.P,J6,1,Pin_1*%
%TO.N,3V3*%
X79400000Y-46860000D03*
D12*
%TO.P,J6,2,Pin_2*%
%TO.N,GND*%
X79400000Y-49400000D03*
%TO.P,J6,3,Pin_3*%
%TO.N,D14*%
X79400000Y-51940000D03*
%TO.P,J6,4,Pin_4*%
%TO.N,D27*%
X79400000Y-54480000D03*
%TO.P,J6,5,Pin_5*%
%TO.N,D26*%
X79400000Y-57020000D03*
%TD*%
D13*
%TO.P,J3,1,Pin_1*%
%TO.N,Net-(J3-Pin_1)*%
X86000000Y-32860000D03*
D14*
%TO.P,J3,2,Pin_2*%
%TO.N,Net-(J3-Pin_2)*%
X86000000Y-35400000D03*
%TO.P,J3,3,Pin_3*%
%TO.N,Net-(J3-Pin_3)*%
X86000000Y-37940000D03*
%TD*%
D15*
%TO.P,U3,1*%
%TO.N,Net-(R4-Pad1)*%
X44275000Y-36750000D03*
D16*
%TO.P,U3,2*%
%TO.N,GND*%
X46815000Y-36750000D03*
%TO.P,U3,3*%
%TO.N,Net-(R3-Pad2)*%
X46815000Y-29130000D03*
%TO.P,U3,4*%
%TO.N,VIN*%
X44275000Y-29130000D03*
%TD*%
D17*
%TO.P,K1,1*%
%TO.N,Net-(J2-Pin_2)*%
X63050000Y-14350000D03*
D18*
%TO.P,K1,2*%
%TO.N,VIN*%
X65000000Y-20400000D03*
D17*
%TO.P,K1,3*%
%TO.N,Net-(J2-Pin_3)*%
X77200000Y-20400000D03*
%TO.P,K1,4*%
%TO.N,Net-(J2-Pin_1)*%
X77250000Y-8350000D03*
D18*
%TO.P,K1,5*%
%TO.N,Net-(D1-A)*%
X65000000Y-8400000D03*
%TD*%
D19*
%TO.P,R3,2*%
%TO.N,Net-(R3-Pad2)*%
X45210000Y-25000000D03*
D20*
%TO.P,R3,1*%
%TO.N,Net-(Q2-B)*%
X52830000Y-25000000D03*
%TD*%
D21*
%TO.P,D1,1,K*%
%TO.N,VIN*%
X58200000Y-8440000D03*
D22*
%TO.P,D1,2,A*%
%TO.N,Net-(D1-A)*%
X58200000Y-18600000D03*
%TD*%
D20*
%TO.P,R4,1*%
%TO.N,Net-(R4-Pad1)*%
X53030000Y-41600000D03*
D19*
%TO.P,R4,2*%
%TO.N,D13*%
X45410000Y-41600000D03*
%TD*%
D11*
%TO.P,J4,1,Pin_1*%
%TO.N,GND*%
X6200000Y-32200000D03*
D12*
%TO.P,J4,2,Pin_2*%
%TO.N,D34*%
X6200000Y-29660000D03*
%TO.P,J4,3,Pin_3*%
%TO.N,3V3*%
X6200000Y-27120000D03*
%TD*%
D23*
%TO.P,Q1,1,B*%
%TO.N,Net-(Q1-B)*%
X53550000Y-15950000D03*
D24*
%TO.P,Q1,2,C*%
%TO.N,Net-(D1-A)*%
X53550000Y-13410000D03*
%TO.P,Q1,3,E*%
%TO.N,GND*%
X53550000Y-10870000D03*
%TD*%
D15*
%TO.P,U2,1*%
%TO.N,Net-(R2-Pad1)*%
X44275000Y-17750000D03*
D16*
%TO.P,U2,2*%
%TO.N,GND*%
X46815000Y-17750000D03*
%TO.P,U2,3*%
%TO.N,Net-(R1-Pad2)*%
X46815000Y-10130000D03*
%TO.P,U2,4*%
%TO.N,VIN*%
X44275000Y-10130000D03*
%TD*%
D10*
%TO.P,H2,1*%
%TO.N,GND*%
X86800000Y-4200000D03*
%TD*%
%TO.P,H1,1*%
%TO.N,GND*%
X3400000Y-4000000D03*
%TD*%
D19*
%TO.P,R2,2*%
%TO.N,D12*%
X45200000Y-21800000D03*
D20*
%TO.P,R2,1*%
%TO.N,Net-(R2-Pad1)*%
X52820000Y-21800000D03*
%TD*%
D12*
%TO.P,J5,3,Pin_3*%
%TO.N,3V3*%
X6200000Y-42120000D03*
%TO.P,J5,2,Pin_2*%
%TO.N,D35*%
X6200000Y-44660000D03*
D11*
%TO.P,J5,1,Pin_1*%
%TO.N,GND*%
X6200000Y-47200000D03*
%TD*%
D20*
%TO.P,R1,1*%
%TO.N,Net-(Q1-B)*%
X53000000Y-5400000D03*
D19*
%TO.P,R1,2*%
%TO.N,Net-(R1-Pad2)*%
X45380000Y-5400000D03*
%TD*%
D25*
%TO.P,J1,1*%
%TO.N,VIN*%
X7000000Y-21000000D03*
D26*
%TO.P,J1,2*%
%TO.N,GND*%
X7000000Y-14700000D03*
D27*
%TO.P,J1,3*%
%TO.N,N/C*%
X2200000Y-18100000D03*
%TD*%
D21*
%TO.P,D2,1,K*%
%TO.N,VIN*%
X59000000Y-29600000D03*
D22*
%TO.P,D2,2,A*%
%TO.N,Net-(D2-A)*%
X59000000Y-39760000D03*
%TD*%
D23*
%TO.P,Q2,1,B*%
%TO.N,Net-(Q2-B)*%
X53345000Y-36140000D03*
D24*
%TO.P,Q2,2,C*%
%TO.N,Net-(D2-A)*%
X53345000Y-33600000D03*
%TO.P,Q2,3,E*%
%TO.N,GND*%
X53345000Y-31060000D03*
%TD*%
D13*
%TO.P,U1,1,3V3*%
%TO.N,3V3*%
X14500000Y-14485000D03*
D14*
%TO.P,U1,2,GND*%
%TO.N,GND*%
X14500000Y-17025000D03*
%TO.P,U1,3,D15*%
%TO.N,unconnected-(U1-D15-Pad3)*%
X14500000Y-19565000D03*
%TO.P,U1,4,D2*%
%TO.N,unconnected-(U1-D2-Pad4)*%
X14500000Y-22105000D03*
%TO.P,U1,5,D4*%
%TO.N,unconnected-(U1-D4-Pad5)*%
X14500000Y-24645000D03*
%TO.P,U1,6,RX2*%
%TO.N,unconnected-(U1-RX2-Pad6)*%
X14500000Y-27185000D03*
%TO.P,U1,7,TX2*%
%TO.N,unconnected-(U1-TX2-Pad7)*%
X14500000Y-29725000D03*
%TO.P,U1,8,D5*%
%TO.N,unconnected-(U1-D5-Pad8)*%
X14500000Y-32265000D03*
%TO.P,U1,9,D18*%
%TO.N,unconnected-(U1-D18-Pad9)*%
X14500000Y-34805000D03*
%TO.P,U1,10,D19*%
%TO.N,unconnected-(U1-D19-Pad10)*%
X14500000Y-37345000D03*
%TO.P,U1,11,D21*%
%TO.N,unconnected-(U1-D21-Pad11)*%
X14500000Y-39885000D03*
%TO.P,U1,12,RX0*%
%TO.N,unconnected-(U1-RX0-Pad12)*%
X14500000Y-42425000D03*
%TO.P,U1,13,TX0*%
%TO.N,unconnected-(U1-TX0-Pad13)*%
X14500000Y-44965000D03*
%TO.P,U1,14,D22*%
%TO.N,unconnected-(U1-D22-Pad14)*%
X14500000Y-47505000D03*
%TO.P,U1,15,D23*%
%TO.N,unconnected-(U1-D23-Pad15)*%
X14500000Y-50045000D03*
%TO.P,U1,16,EN*%
%TO.N,unconnected-(U1-EN-Pad16)*%
X39900000Y-50045000D03*
%TO.P,U1,17,VP*%
%TO.N,unconnected-(U1-VP-Pad17)*%
X39900000Y-47505000D03*
%TO.P,U1,18,VN*%
%TO.N,unconnected-(U1-VN-Pad18)*%
X39900000Y-44965000D03*
%TO.P,U1,19,D34*%
%TO.N,D34*%
X39900000Y-42425000D03*
%TO.P,U1,20,D35*%
%TO.N,D35*%
X39900000Y-39885000D03*
%TO.P,U1,21,D32*%
%TO.N,unconnected-(U1-D32-Pad21)*%
X39900000Y-37345000D03*
%TO.P,U1,22,D33*%
%TO.N,unconnected-(U1-D33-Pad22)*%
X39900000Y-34805000D03*
%TO.P,U1,23,D25*%
%TO.N,unconnected-(U1-D25-Pad23)*%
X39900000Y-32265000D03*
%TO.P,U1,24,D26*%
%TO.N,D26*%
X39900000Y-29725000D03*
%TO.P,U1,25,D27*%
%TO.N,D27*%
X39900000Y-27185000D03*
%TO.P,U1,26,D14*%
%TO.N,D14*%
X39900000Y-24645000D03*
%TO.P,U1,27,D12*%
%TO.N,D12*%
X39900000Y-22105000D03*
%TO.P,U1,28,D13*%
%TO.N,D13*%
X39900000Y-19565000D03*
%TO.P,U1,29,GND*%
%TO.N,GND*%
X39900000Y-17025000D03*
%TO.P,U1,30,VIN*%
%TO.N,VIN*%
X39900000Y-14485000D03*
%TD*%
D13*
%TO.P,J2,1,Pin_1*%
%TO.N,Net-(J2-Pin_1)*%
X86000000Y-12120000D03*
D14*
%TO.P,J2,2,Pin_2*%
%TO.N,Net-(J2-Pin_2)*%
X86000000Y-14660000D03*
%TO.P,J2,3,Pin_3*%
%TO.N,Net-(J2-Pin_3)*%
X86000000Y-17200000D03*
%TD*%
D17*
%TO.P,K2,1*%
%TO.N,Net-(J3-Pin_2)*%
X63050000Y-34950000D03*
D18*
%TO.P,K2,2*%
%TO.N,VIN*%
X65000000Y-41000000D03*
D17*
%TO.P,K2,3*%
%TO.N,Net-(J3-Pin_3)*%
X77200000Y-41000000D03*
%TO.P,K2,4*%
%TO.N,Net-(J3-Pin_1)*%
X77250000Y-28950000D03*
D18*
%TO.P,K2,5*%
%TO.N,Net-(D2-A)*%
X65000000Y-29000000D03*
%TD*%
D28*
%TO.N,3V3*%
X14500000Y-14485000D02*
X37430000Y-37415000D01*
X82000000Y-58600000D02*
X83200000Y-57400000D01*
X37430000Y-37415000D02*
X37430000Y-54303427D01*
X83200000Y-57400000D02*
X83200000Y-50660000D01*
X37430000Y-54303427D02*
X40146573Y-57020000D01*
X40146573Y-57020000D02*
X40220000Y-57020000D01*
X40220000Y-57020000D02*
X41800000Y-58600000D01*
X41800000Y-58600000D02*
X82000000Y-58600000D01*
X83200000Y-50660000D02*
X79400000Y-46860000D01*
%TO.N,D14*%
X41445000Y-24645000D02*
X42000000Y-25200000D01*
X39900000Y-24645000D02*
X41445000Y-24645000D01*
X54123654Y-51940000D02*
X79400000Y-51940000D01*
X42000000Y-25200000D02*
X42000000Y-39816346D01*
X42000000Y-39816346D02*
X54123654Y-51940000D01*
%TO.N,VIN*%
X65000000Y-20400000D02*
X58200000Y-13600000D01*
X58200000Y-13600000D02*
X58200000Y-8440000D01*
X59000000Y-29600000D02*
X59000000Y-35000000D01*
X59000000Y-35000000D02*
X65000000Y-41000000D01*
%TO.N,D13*%
X45410000Y-41600000D02*
X49700000Y-37310000D01*
X49700000Y-37310000D02*
X49700000Y-24673654D01*
X49700000Y-24673654D02*
X44591346Y-19565000D01*
X44591346Y-19565000D02*
X39900000Y-19565000D01*
%TO.N,D12*%
X45200000Y-21800000D02*
X40205000Y-21800000D01*
X40205000Y-21800000D02*
X39900000Y-22105000D01*
%TD*%
%TA.AperFunction,Conductor*%
%TO.N,GND*%
G36*
X89442539Y-520185D02*
G01*
X89488294Y-572989D01*
X89499500Y-624500D01*
X89499500Y-59375500D01*
X89479815Y-59442539D01*
X89427011Y-59488294D01*
X89375500Y-59499500D01*
X82411970Y-59499500D01*
X82344931Y-59479815D01*
X82299176Y-59427011D01*
X82289232Y-59357853D01*
X82318257Y-59294297D01*
X82350487Y-59268559D01*
X82350428Y-59268470D01*
X82351481Y-59267766D01*
X82353514Y-59266143D01*
X82355486Y-59265087D01*
X82355495Y-59265084D01*
X82404729Y-59232186D01*
X82478416Y-59182952D01*
X83782951Y-57878416D01*
X83865084Y-57755495D01*
X83921658Y-57618913D01*
X83945627Y-57498415D01*
X83950500Y-57473920D01*
X83950500Y-50586082D01*
X83950154Y-50584341D01*
X83940116Y-50533881D01*
X83921659Y-50441088D01*
X83867408Y-50310117D01*
X83865764Y-50305522D01*
X83782954Y-50181588D01*
X83782953Y-50181587D01*
X83782951Y-50181584D01*
X83678416Y-50077049D01*
X80786818Y-47185450D01*
X80753333Y-47124127D01*
X80750499Y-47097769D01*
X80750499Y-45962129D01*
X80750498Y-45962123D01*
X80750497Y-45962116D01*
X80744091Y-45902517D01*
X80739342Y-45889785D01*
X80693797Y-45767671D01*
X80693793Y-45767664D01*
X80607547Y-45652455D01*
X80607544Y-45652452D01*
X80492335Y-45566206D01*
X80492328Y-45566202D01*
X80357482Y-45515908D01*
X80357483Y-45515908D01*
X80297883Y-45509501D01*
X80297881Y-45509500D01*
X80297873Y-45509500D01*
X80297864Y-45509500D01*
X78502129Y-45509500D01*
X78502123Y-45509501D01*
X78442516Y-45515908D01*
X78307671Y-45566202D01*
X78307664Y-45566206D01*
X78192455Y-45652452D01*
X78192452Y-45652455D01*
X78106206Y-45767664D01*
X78106202Y-45767671D01*
X78055908Y-45902517D01*
X78052534Y-45933905D01*
X78049501Y-45962123D01*
X78049500Y-45962135D01*
X78049500Y-47757870D01*
X78049501Y-47757876D01*
X78055908Y-47817483D01*
X78106202Y-47952328D01*
X78106206Y-47952335D01*
X78192452Y-48067544D01*
X78192455Y-48067547D01*
X78307664Y-48153793D01*
X78307671Y-48153797D01*
X78442517Y-48204091D01*
X78442516Y-48204091D01*
X78449444Y-48204835D01*
X78502127Y-48210500D01*
X79637769Y-48210499D01*
X79704808Y-48230184D01*
X79725450Y-48246818D01*
X82413181Y-50934548D01*
X82446666Y-50995871D01*
X82449500Y-51022229D01*
X82449500Y-57037770D01*
X82429815Y-57104809D01*
X82413181Y-57125451D01*
X81725451Y-57813181D01*
X81664128Y-57846666D01*
X81637770Y-57849500D01*
X80697951Y-57849500D01*
X80630912Y-57829815D01*
X80585157Y-57777011D01*
X80575213Y-57707853D01*
X80585569Y-57673095D01*
X80597968Y-57646505D01*
X80673903Y-57483663D01*
X80735063Y-57255408D01*
X80755659Y-57020000D01*
X80735063Y-56784592D01*
X80673903Y-56556337D01*
X80574035Y-56342171D01*
X80566799Y-56331836D01*
X80438494Y-56148597D01*
X80271402Y-55981506D01*
X80271396Y-55981501D01*
X80085842Y-55851575D01*
X80042217Y-55796998D01*
X80035023Y-55727500D01*
X80066546Y-55665145D01*
X80085842Y-55648425D01*
X80108026Y-55632891D01*
X80271401Y-55518495D01*
X80438495Y-55351401D01*
X80574035Y-55157830D01*
X80673903Y-54943663D01*
X80735063Y-54715408D01*
X80755659Y-54480000D01*
X80735063Y-54244592D01*
X80673903Y-54016337D01*
X80574035Y-53802171D01*
X80511230Y-53712475D01*
X80438494Y-53608597D01*
X80271402Y-53441506D01*
X80271396Y-53441501D01*
X80085842Y-53311575D01*
X80042217Y-53256998D01*
X80035023Y-53187500D01*
X80066546Y-53125145D01*
X80085842Y-53108425D01*
X80108026Y-53092891D01*
X80271401Y-52978495D01*
X80438495Y-52811401D01*
X80574035Y-52617830D01*
X80673903Y-52403663D01*
X80735063Y-52175408D01*
X80755659Y-51940000D01*
X80735063Y-51704592D01*
X80673903Y-51476337D01*
X80574035Y-51262171D01*
X80523151Y-51189500D01*
X80438494Y-51068597D01*
X80271402Y-50901506D01*
X80271395Y-50901501D01*
X80077834Y-50765967D01*
X80077830Y-50765965D01*
X80068482Y-50761606D01*
X79863663Y-50666097D01*
X79863659Y-50666096D01*
X79863655Y-50666094D01*
X79635413Y-50604938D01*
X79635403Y-50604936D01*
X79400001Y-50584341D01*
X79399999Y-50584341D01*
X79164596Y-50604936D01*
X79164586Y-50604938D01*
X78936344Y-50666094D01*
X78936335Y-50666098D01*
X78722171Y-50765964D01*
X78722169Y-50765965D01*
X78528597Y-50901505D01*
X78361506Y-51068596D01*
X78313874Y-51136623D01*
X78259297Y-51180248D01*
X78212299Y-51189500D01*
X54485884Y-51189500D01*
X54418845Y-51169815D01*
X54398203Y-51153181D01*
X46043811Y-42798789D01*
X46010326Y-42737466D01*
X46015310Y-42667774D01*
X46057182Y-42611841D01*
X46066215Y-42605681D01*
X46096455Y-42586956D01*
X46136562Y-42562124D01*
X46300981Y-42412236D01*
X46435058Y-42234689D01*
X46534229Y-42035528D01*
X46595115Y-41821536D01*
X46615643Y-41600000D01*
X46615643Y-41599999D01*
X51824357Y-41599999D01*
X51824357Y-41600000D01*
X51844884Y-41821535D01*
X51844885Y-41821537D01*
X51905769Y-42035523D01*
X51905775Y-42035538D01*
X52004938Y-42234683D01*
X52004943Y-42234691D01*
X52139020Y-42412238D01*
X52303437Y-42562123D01*
X52303439Y-42562125D01*
X52492595Y-42679245D01*
X52492596Y-42679245D01*
X52492599Y-42679247D01*
X52700060Y-42759618D01*
X52918757Y-42800500D01*
X52918759Y-42800500D01*
X53141241Y-42800500D01*
X53141243Y-42800500D01*
X53359940Y-42759618D01*
X53567401Y-42679247D01*
X53756562Y-42562124D01*
X53920981Y-42412236D01*
X54055058Y-42234689D01*
X54154229Y-42035528D01*
X54215115Y-41821536D01*
X54235643Y-41600000D01*
X54215115Y-41378464D01*
X54154229Y-41164472D01*
X54154224Y-41164461D01*
X54055061Y-40965316D01*
X54055056Y-40965308D01*
X53920979Y-40787761D01*
X53756562Y-40637876D01*
X53756560Y-40637874D01*
X53567404Y-40520754D01*
X53567398Y-40520752D01*
X53359940Y-40440382D01*
X53141243Y-40399500D01*
X52918757Y-40399500D01*
X52700060Y-40440382D01*
X52601421Y-40478595D01*
X52492601Y-40520752D01*
X52492595Y-40520754D01*
X52303439Y-40637874D01*
X52303437Y-40637876D01*
X52139020Y-40787761D01*
X52004943Y-40965308D01*
X52004938Y-40965316D01*
X51905775Y-41164461D01*
X51905769Y-41164476D01*
X51844885Y-41378462D01*
X51844884Y-41378464D01*
X51824357Y-41599999D01*
X46615643Y-41599999D01*
X46608778Y-41525919D01*
X46622193Y-41457350D01*
X46644565Y-41426800D01*
X48311366Y-39760000D01*
X57394551Y-39760000D01*
X57414317Y-40011151D01*
X57473126Y-40256110D01*
X57569533Y-40488859D01*
X57701160Y-40703653D01*
X57701161Y-40703656D01*
X57752991Y-40764341D01*
X57864776Y-40895224D01*
X57978922Y-40992714D01*
X58056343Y-41058838D01*
X58056346Y-41058839D01*
X58271140Y-41190466D01*
X58442947Y-41261630D01*
X58503889Y-41286873D01*
X58748852Y-41345683D01*
X59000000Y-41365449D01*
X59251148Y-41345683D01*
X59496111Y-41286873D01*
X59728859Y-41190466D01*
X59943659Y-41058836D01*
X60135224Y-40895224D01*
X60298836Y-40703659D01*
X60430466Y-40488859D01*
X60526873Y-40256111D01*
X60585683Y-40011148D01*
X60605449Y-39760000D01*
X60585683Y-39508852D01*
X60526873Y-39263889D01*
X60490316Y-39175633D01*
X60430466Y-39031140D01*
X60298839Y-38816346D01*
X60298838Y-38816343D01*
X60261875Y-38773066D01*
X60135224Y-38624776D01*
X60008571Y-38516604D01*
X59943656Y-38461161D01*
X59943653Y-38461160D01*
X59728859Y-38329533D01*
X59496110Y-38233126D01*
X59251151Y-38174317D01*
X59000000Y-38154551D01*
X58748848Y-38174317D01*
X58503889Y-38233126D01*
X58271140Y-38329533D01*
X58056346Y-38461160D01*
X58056343Y-38461161D01*
X57864776Y-38624776D01*
X57701161Y-38816343D01*
X57701160Y-38816346D01*
X57569533Y-39031140D01*
X57473126Y-39263889D01*
X57414317Y-39508848D01*
X57394551Y-39760000D01*
X48311366Y-39760000D01*
X50282951Y-37788416D01*
X50365084Y-37665495D01*
X50421658Y-37528913D01*
X50437346Y-37450046D01*
X50450500Y-37383920D01*
X50450500Y-33485646D01*
X51844500Y-33485646D01*
X51844500Y-33714353D01*
X51880278Y-33940246D01*
X51880278Y-33940249D01*
X51950950Y-34157755D01*
X51950952Y-34157758D01*
X52054783Y-34361538D01*
X52187525Y-34544242D01*
X52211005Y-34610046D01*
X52195180Y-34678100D01*
X52145074Y-34726795D01*
X52130541Y-34733308D01*
X52102670Y-34743703D01*
X52102664Y-34743706D01*
X51987455Y-34829952D01*
X51987452Y-34829955D01*
X51901206Y-34945164D01*
X51901202Y-34945171D01*
X51850908Y-35080017D01*
X51844501Y-35139616D01*
X51844501Y-35139623D01*
X51844500Y-35139635D01*
X51844500Y-37140370D01*
X51844501Y-37140376D01*
X51850908Y-37199983D01*
X51901202Y-37334828D01*
X51901206Y-37334835D01*
X51987452Y-37450044D01*
X51987455Y-37450047D01*
X52102664Y-37536293D01*
X52102671Y-37536297D01*
X52237517Y-37586591D01*
X52237516Y-37586591D01*
X52244444Y-37587335D01*
X52297127Y-37593000D01*
X54392872Y-37592999D01*
X54452483Y-37586591D01*
X54587331Y-37536296D01*
X54702546Y-37450046D01*
X54788796Y-37334831D01*
X54839091Y-37199983D01*
X54845500Y-37140373D01*
X54845499Y-35139628D01*
X54839091Y-35080017D01*
X54836816Y-35073918D01*
X54788797Y-34945171D01*
X54788793Y-34945164D01*
X54702547Y-34829955D01*
X54702544Y-34829952D01*
X54587335Y-34743706D01*
X54587328Y-34743702D01*
X54559459Y-34733308D01*
X54503525Y-34691437D01*
X54479108Y-34625973D01*
X54493960Y-34557700D01*
X54502460Y-34544260D01*
X54635217Y-34361538D01*
X54739048Y-34157758D01*
X54809722Y-33940245D01*
X54845500Y-33714354D01*
X54845500Y-33485646D01*
X54809722Y-33259755D01*
X54809721Y-33259751D01*
X54809721Y-33259750D01*
X54739049Y-33042244D01*
X54635216Y-32838461D01*
X54500786Y-32653434D01*
X54339066Y-32491714D01*
X54154038Y-32357283D01*
X53950255Y-32253450D01*
X53732748Y-32182778D01*
X53563326Y-32155944D01*
X53506854Y-32147000D01*
X53183146Y-32147000D01*
X53107849Y-32158926D01*
X52957253Y-32182778D01*
X52957250Y-32182778D01*
X52739744Y-32253450D01*
X52535961Y-32357283D01*
X52430396Y-32433980D01*
X52350934Y-32491714D01*
X52350932Y-32491716D01*
X52350931Y-32491716D01*
X52189216Y-32653431D01*
X52189216Y-32653432D01*
X52189214Y-32653434D01*
X52131480Y-32732896D01*
X52054783Y-32838461D01*
X51950950Y-33042244D01*
X51880278Y-33259750D01*
X51880278Y-33259753D01*
X51844500Y-33485646D01*
X50450500Y-33485646D01*
X50450500Y-28452135D01*
X57399500Y-28452135D01*
X57399500Y-30747870D01*
X57399501Y-30747876D01*
X57405908Y-30807483D01*
X57456202Y-30942328D01*
X57456206Y-30942335D01*
X57542452Y-31057544D01*
X57542455Y-31057547D01*
X57657664Y-31143793D01*
X57657671Y-31143797D01*
X57693773Y-31157262D01*
X57792517Y-31194091D01*
X57852127Y-31200500D01*
X58125501Y-31200499D01*
X58192539Y-31220183D01*
X58238294Y-31272987D01*
X58249500Y-31324499D01*
X58249500Y-35073918D01*
X58249500Y-35073920D01*
X58249499Y-35073920D01*
X58278340Y-35218907D01*
X58278343Y-35218917D01*
X58334913Y-35355490D01*
X58334914Y-35355492D01*
X58359067Y-35391639D01*
X58359068Y-35391641D01*
X58417043Y-35478410D01*
X58417047Y-35478415D01*
X63292999Y-40354367D01*
X63326484Y-40415690D01*
X63323810Y-40478595D01*
X63322578Y-40482586D01*
X63264197Y-40738374D01*
X63264196Y-40738379D01*
X63244592Y-40999995D01*
X63244592Y-41000004D01*
X63264196Y-41261620D01*
X63264197Y-41261625D01*
X63322576Y-41517402D01*
X63322578Y-41517411D01*
X63322580Y-41517416D01*
X63418432Y-41761643D01*
X63549614Y-41988857D01*
X63654196Y-42119999D01*
X63713198Y-42193985D01*
X63887167Y-42355403D01*
X63905521Y-42372433D01*
X64122296Y-42520228D01*
X64122301Y-42520230D01*
X64122302Y-42520231D01*
X64122303Y-42520232D01*
X64209292Y-42562123D01*
X64358673Y-42634061D01*
X64358674Y-42634061D01*
X64358677Y-42634063D01*
X64609385Y-42711396D01*
X64868818Y-42750500D01*
X65131182Y-42750500D01*
X65390615Y-42711396D01*
X65641323Y-42634063D01*
X65877704Y-42520228D01*
X66094479Y-42372433D01*
X66286805Y-42193981D01*
X66450386Y-41988857D01*
X66581568Y-41761643D01*
X66677420Y-41517416D01*
X66735802Y-41261630D01*
X66737100Y-41244313D01*
X66755408Y-41000004D01*
X66755408Y-40999998D01*
X75194390Y-40999998D01*
X75194390Y-41000001D01*
X75214804Y-41285433D01*
X75275628Y-41565037D01*
X75275630Y-41565043D01*
X75275631Y-41565046D01*
X75375633Y-41833161D01*
X75375635Y-41833166D01*
X75512770Y-42084309D01*
X75512775Y-42084317D01*
X75684254Y-42313387D01*
X75684270Y-42313405D01*
X75886594Y-42515729D01*
X75886612Y-42515745D01*
X76115682Y-42687224D01*
X76115690Y-42687229D01*
X76366833Y-42824364D01*
X76366832Y-42824364D01*
X76366836Y-42824365D01*
X76366839Y-42824367D01*
X76634954Y-42924369D01*
X76634960Y-42924370D01*
X76634962Y-42924371D01*
X76914566Y-42985195D01*
X76914568Y-42985195D01*
X76914572Y-42985196D01*
X77168220Y-43003337D01*
X77199999Y-43005610D01*
X77200000Y-43005610D01*
X77200001Y-43005610D01*
X77228595Y-43003564D01*
X77485428Y-42985196D01*
X77765046Y-42924369D01*
X78033161Y-42824367D01*
X78284315Y-42687226D01*
X78513395Y-42515739D01*
X78715739Y-42313395D01*
X78887226Y-42084315D01*
X79024367Y-41833161D01*
X79124369Y-41565046D01*
X79185196Y-41285428D01*
X79205610Y-41000000D01*
X79205424Y-40997405D01*
X79194603Y-40846097D01*
X79185196Y-40714572D01*
X79182821Y-40703656D01*
X79124371Y-40434962D01*
X79124370Y-40434960D01*
X79124369Y-40434954D01*
X79024367Y-40166839D01*
X79005793Y-40132824D01*
X78887229Y-39915690D01*
X78887224Y-39915682D01*
X78715745Y-39686612D01*
X78715729Y-39686594D01*
X78513405Y-39484270D01*
X78513387Y-39484254D01*
X78284317Y-39312775D01*
X78284309Y-39312770D01*
X78033166Y-39175635D01*
X78033167Y-39175635D01*
X77925915Y-39135632D01*
X77765046Y-39075631D01*
X77765043Y-39075630D01*
X77765037Y-39075628D01*
X77485433Y-39014804D01*
X77200001Y-38994390D01*
X77199999Y-38994390D01*
X76914566Y-39014804D01*
X76634962Y-39075628D01*
X76366833Y-39175635D01*
X76115690Y-39312770D01*
X76115682Y-39312775D01*
X75886612Y-39484254D01*
X75886594Y-39484270D01*
X75684270Y-39686594D01*
X75684254Y-39686612D01*
X75512775Y-39915682D01*
X75512770Y-39915690D01*
X75375635Y-40166833D01*
X75275628Y-40434962D01*
X75214804Y-40714566D01*
X75194390Y-40999998D01*
X66755408Y-40999998D01*
X66755408Y-40999995D01*
X66735803Y-40738379D01*
X66735802Y-40738374D01*
X66735802Y-40738370D01*
X66677420Y-40482584D01*
X66581568Y-40238357D01*
X66450386Y-40011143D01*
X66286805Y-39806019D01*
X66286804Y-39806018D01*
X66286801Y-39806014D01*
X66094479Y-39627567D01*
X66051734Y-39598424D01*
X65877704Y-39479772D01*
X65877700Y-39479770D01*
X65877697Y-39479768D01*
X65877696Y-39479767D01*
X65641325Y-39365938D01*
X65641327Y-39365938D01*
X65390623Y-39288606D01*
X65390619Y-39288605D01*
X65390615Y-39288604D01*
X65265823Y-39269794D01*
X65131187Y-39249500D01*
X65131182Y-39249500D01*
X64868818Y-39249500D01*
X64868812Y-39249500D01*
X64707247Y-39273853D01*
X64609385Y-39288604D01*
X64609382Y-39288605D01*
X64609372Y-39288607D01*
X64482522Y-39327735D01*
X64412659Y-39328685D01*
X64358292Y-39296925D01*
X61987161Y-36925793D01*
X61953676Y-36864470D01*
X61958660Y-36794778D01*
X62000532Y-36738845D01*
X62065996Y-36714428D01*
X62134269Y-36729280D01*
X62216839Y-36774367D01*
X62484954Y-36874369D01*
X62484960Y-36874370D01*
X62484962Y-36874371D01*
X62764566Y-36935195D01*
X62764568Y-36935195D01*
X62764572Y-36935196D01*
X63018220Y-36953337D01*
X63049999Y-36955610D01*
X63050000Y-36955610D01*
X63050001Y-36955610D01*
X63078595Y-36953564D01*
X63335428Y-36935196D01*
X63615046Y-36874369D01*
X63883161Y-36774367D01*
X64134315Y-36637226D01*
X64363395Y-36465739D01*
X64565739Y-36263395D01*
X64737226Y-36034315D01*
X64874367Y-35783161D01*
X64974369Y-35515046D01*
X64999397Y-35399994D01*
X84494357Y-35399994D01*
X84494357Y-35400005D01*
X84514890Y-35647812D01*
X84514892Y-35647824D01*
X84575936Y-35888881D01*
X84675826Y-36116606D01*
X84811833Y-36324782D01*
X84811836Y-36324785D01*
X84980256Y-36507738D01*
X85063008Y-36572147D01*
X85103821Y-36628857D01*
X85107496Y-36698630D01*
X85072864Y-36759313D01*
X85063014Y-36767848D01*
X85004400Y-36813469D01*
X84980257Y-36832261D01*
X84811833Y-37015217D01*
X84675826Y-37223393D01*
X84575936Y-37451118D01*
X84514892Y-37692175D01*
X84514890Y-37692187D01*
X84494357Y-37939994D01*
X84494357Y-37940005D01*
X84514890Y-38187812D01*
X84514892Y-38187824D01*
X84575936Y-38428881D01*
X84675826Y-38656606D01*
X84811833Y-38864782D01*
X84811836Y-38864785D01*
X84980256Y-39047738D01*
X85176491Y-39200474D01*
X85395190Y-39318828D01*
X85630386Y-39399571D01*
X85875665Y-39440500D01*
X86124335Y-39440500D01*
X86369614Y-39399571D01*
X86604810Y-39318828D01*
X86823509Y-39200474D01*
X87019744Y-39047738D01*
X87188164Y-38864785D01*
X87324173Y-38656607D01*
X87424063Y-38428881D01*
X87485108Y-38187821D01*
X87487865Y-38154551D01*
X87505643Y-37940005D01*
X87505643Y-37939994D01*
X87485109Y-37692187D01*
X87485107Y-37692175D01*
X87424063Y-37451118D01*
X87324173Y-37223393D01*
X87188166Y-37015217D01*
X87133294Y-36955610D01*
X87019744Y-36832262D01*
X86936991Y-36767852D01*
X86896179Y-36711143D01*
X86892504Y-36641370D01*
X86927136Y-36580687D01*
X86936985Y-36572151D01*
X87019744Y-36507738D01*
X87188164Y-36324785D01*
X87324173Y-36116607D01*
X87424063Y-35888881D01*
X87485108Y-35647821D01*
X87489696Y-35592452D01*
X87505643Y-35400005D01*
X87505643Y-35399994D01*
X87485109Y-35152187D01*
X87485107Y-35152175D01*
X87424063Y-34911118D01*
X87326690Y-34689132D01*
X87324173Y-34683393D01*
X87193256Y-34483009D01*
X87173070Y-34416122D01*
X87192250Y-34348936D01*
X87237642Y-34306356D01*
X87242323Y-34303798D01*
X87242331Y-34303796D01*
X87357546Y-34217546D01*
X87443796Y-34102331D01*
X87494091Y-33967483D01*
X87500500Y-33907873D01*
X87500499Y-31812128D01*
X87494091Y-31752517D01*
X87443796Y-31617669D01*
X87443795Y-31617668D01*
X87443793Y-31617664D01*
X87357547Y-31502455D01*
X87357544Y-31502452D01*
X87242335Y-31416206D01*
X87242328Y-31416202D01*
X87107482Y-31365908D01*
X87107483Y-31365908D01*
X87047883Y-31359501D01*
X87047881Y-31359500D01*
X87047873Y-31359500D01*
X87047864Y-31359500D01*
X84952129Y-31359500D01*
X84952123Y-31359501D01*
X84892516Y-31365908D01*
X84757671Y-31416202D01*
X84757664Y-31416206D01*
X84642455Y-31502452D01*
X84642452Y-31502455D01*
X84556206Y-31617664D01*
X84556202Y-31617671D01*
X84505908Y-31752517D01*
X84503371Y-31776119D01*
X84499501Y-31812123D01*
X84499500Y-31812135D01*
X84499500Y-33907870D01*
X84499501Y-33907876D01*
X84505908Y-33967483D01*
X84556202Y-34102328D01*
X84556206Y-34102335D01*
X84642452Y-34217544D01*
X84642455Y-34217547D01*
X84757664Y-34303793D01*
X84762361Y-34306358D01*
X84811766Y-34355764D01*
X84826617Y-34424037D01*
X84806742Y-34483011D01*
X84675826Y-34683393D01*
X84575936Y-34911118D01*
X84514892Y-35152175D01*
X84514890Y-35152187D01*
X84494357Y-35399994D01*
X64999397Y-35399994D01*
X65001214Y-35391641D01*
X65035195Y-35235433D01*
X65035195Y-35235432D01*
X65035196Y-35235428D01*
X65055610Y-34950000D01*
X65055264Y-34945169D01*
X65045240Y-34805005D01*
X65035196Y-34664572D01*
X65035099Y-34664128D01*
X64974371Y-34384962D01*
X64974370Y-34384960D01*
X64974369Y-34384954D01*
X64874367Y-34116839D01*
X64866443Y-34102328D01*
X64737229Y-33865690D01*
X64737224Y-33865682D01*
X64565745Y-33636612D01*
X64565729Y-33636594D01*
X64363405Y-33434270D01*
X64363387Y-33434254D01*
X64134317Y-33262775D01*
X64134309Y-33262770D01*
X63883166Y-33125635D01*
X63883167Y-33125635D01*
X63775915Y-33085632D01*
X63615046Y-33025631D01*
X63615043Y-33025630D01*
X63615037Y-33025628D01*
X63335433Y-32964804D01*
X63050001Y-32944390D01*
X63049999Y-32944390D01*
X62764566Y-32964804D01*
X62484962Y-33025628D01*
X62216833Y-33125635D01*
X61965690Y-33262770D01*
X61965682Y-33262775D01*
X61736612Y-33434254D01*
X61736594Y-33434270D01*
X61534270Y-33636594D01*
X61534254Y-33636612D01*
X61362775Y-33865682D01*
X61362770Y-33865690D01*
X61225635Y-34116833D01*
X61125628Y-34384962D01*
X61064804Y-34664566D01*
X61044390Y-34949998D01*
X61044390Y-34950001D01*
X61064804Y-35235433D01*
X61125628Y-35515037D01*
X61225635Y-35783167D01*
X61225638Y-35783173D01*
X61270718Y-35865731D01*
X61285570Y-35934004D01*
X61261153Y-35999468D01*
X61205219Y-36041339D01*
X61135527Y-36046323D01*
X61074206Y-36012838D01*
X59786819Y-34725451D01*
X59753334Y-34664128D01*
X59750500Y-34637770D01*
X59750500Y-31324499D01*
X59770185Y-31257460D01*
X59822989Y-31211705D01*
X59874500Y-31200499D01*
X60147871Y-31200499D01*
X60147872Y-31200499D01*
X60207483Y-31194091D01*
X60342331Y-31143796D01*
X60457546Y-31057546D01*
X60543796Y-30942331D01*
X60594091Y-30807483D01*
X60600500Y-30747873D01*
X60600499Y-28999995D01*
X63244592Y-28999995D01*
X63244592Y-29000004D01*
X63264196Y-29261620D01*
X63264197Y-29261625D01*
X63322576Y-29517402D01*
X63322578Y-29517411D01*
X63322580Y-29517416D01*
X63418432Y-29761643D01*
X63549614Y-29988857D01*
X63657112Y-30123655D01*
X63713198Y-30193985D01*
X63788016Y-30263405D01*
X63905521Y-30372433D01*
X64122296Y-30520228D01*
X64122301Y-30520230D01*
X64122302Y-30520231D01*
X64122303Y-30520232D01*
X64247843Y-30580688D01*
X64358673Y-30634061D01*
X64358674Y-30634061D01*
X64358677Y-30634063D01*
X64609385Y-30711396D01*
X64868818Y-30750500D01*
X65131182Y-30750500D01*
X65390615Y-30711396D01*
X65641323Y-30634063D01*
X65854503Y-30531401D01*
X65877696Y-30520232D01*
X65877696Y-30520231D01*
X65877704Y-30520228D01*
X66094479Y-30372433D01*
X66286805Y-30193981D01*
X66450386Y-29988857D01*
X66581568Y-29761643D01*
X66677420Y-29517416D01*
X66735802Y-29261630D01*
X66737766Y-29235428D01*
X66755408Y-29000004D01*
X66755408Y-28999995D01*
X66751661Y-28949998D01*
X75244390Y-28949998D01*
X75244390Y-28950001D01*
X75264804Y-29235433D01*
X75325628Y-29515037D01*
X75325630Y-29515043D01*
X75325631Y-29515046D01*
X75425473Y-29782732D01*
X75425635Y-29783166D01*
X75562770Y-30034309D01*
X75562775Y-30034317D01*
X75734254Y-30263387D01*
X75734270Y-30263405D01*
X75936594Y-30465729D01*
X75936612Y-30465745D01*
X76165682Y-30637224D01*
X76165690Y-30637229D01*
X76416833Y-30774364D01*
X76416832Y-30774364D01*
X76416836Y-30774365D01*
X76416839Y-30774367D01*
X76684954Y-30874369D01*
X76684960Y-30874370D01*
X76684962Y-30874371D01*
X76964566Y-30935195D01*
X76964568Y-30935195D01*
X76964572Y-30935196D01*
X77218220Y-30953337D01*
X77249999Y-30955610D01*
X77250000Y-30955610D01*
X77250001Y-30955610D01*
X77278595Y-30953564D01*
X77535428Y-30935196D01*
X77815046Y-30874369D01*
X78083161Y-30774367D01*
X78334315Y-30637226D01*
X78563395Y-30465739D01*
X78765739Y-30263395D01*
X78937226Y-30034315D01*
X79074367Y-29783161D01*
X79174369Y-29515046D01*
X79194047Y-29424586D01*
X79235195Y-29235433D01*
X79235195Y-29235432D01*
X79235196Y-29235428D01*
X79255610Y-28950000D01*
X79235196Y-28664572D01*
X79233698Y-28657687D01*
X79174371Y-28384962D01*
X79174370Y-28384960D01*
X79174369Y-28384954D01*
X79074367Y-28116839D01*
X79016652Y-28011143D01*
X78937229Y-27865690D01*
X78937224Y-27865682D01*
X78765745Y-27636612D01*
X78765729Y-27636594D01*
X78563405Y-27434270D01*
X78563387Y-27434254D01*
X78334317Y-27262775D01*
X78334309Y-27262770D01*
X78083166Y-27125635D01*
X78083167Y-27125635D01*
X77975915Y-27085632D01*
X77815046Y-27025631D01*
X77815043Y-27025630D01*
X77815037Y-27025628D01*
X77535433Y-26964804D01*
X77250001Y-26944390D01*
X77249999Y-26944390D01*
X76964566Y-26964804D01*
X76684962Y-27025628D01*
X76416833Y-27125635D01*
X76165690Y-27262770D01*
X76165682Y-27262775D01*
X75936612Y-27434254D01*
X75936594Y-27434270D01*
X75734270Y-27636594D01*
X75734254Y-27636612D01*
X75562775Y-27865682D01*
X75562770Y-27865690D01*
X75425635Y-28116833D01*
X75325628Y-28384962D01*
X75264804Y-28664566D01*
X75244390Y-28949998D01*
X66751661Y-28949998D01*
X66735803Y-28738379D01*
X66735802Y-28738374D01*
X66735802Y-28738370D01*
X66677420Y-28482584D01*
X66581568Y-28238357D01*
X66450386Y-28011143D01*
X66286805Y-27806019D01*
X66286804Y-27806018D01*
X66286801Y-27806014D01*
X66094479Y-27627567D01*
X66030085Y-27583664D01*
X65877704Y-27479772D01*
X65877700Y-27479770D01*
X65877697Y-27479768D01*
X65877696Y-27479767D01*
X65641325Y-27365938D01*
X65641327Y-27365938D01*
X65390623Y-27288606D01*
X65390619Y-27288605D01*
X65390615Y-27288604D01*
X65265823Y-27269794D01*
X65131187Y-27249500D01*
X65131182Y-27249500D01*
X64868818Y-27249500D01*
X64868812Y-27249500D01*
X64707247Y-27273853D01*
X64609385Y-27288604D01*
X64609382Y-27288605D01*
X64609376Y-27288606D01*
X64358673Y-27365938D01*
X64122303Y-27479767D01*
X64122302Y-27479768D01*
X63905520Y-27627567D01*
X63713198Y-27806014D01*
X63549614Y-28011143D01*
X63418432Y-28238356D01*
X63322582Y-28482578D01*
X63322576Y-28482597D01*
X63264197Y-28738374D01*
X63264196Y-28738379D01*
X63244592Y-28999995D01*
X60600499Y-28999995D01*
X60600499Y-28452128D01*
X60594091Y-28392517D01*
X60593152Y-28390000D01*
X60543797Y-28257671D01*
X60543793Y-28257664D01*
X60457547Y-28142455D01*
X60457544Y-28142452D01*
X60342335Y-28056206D01*
X60342328Y-28056202D01*
X60207482Y-28005908D01*
X60207483Y-28005908D01*
X60147883Y-27999501D01*
X60147881Y-27999500D01*
X60147873Y-27999500D01*
X60147864Y-27999500D01*
X57852129Y-27999500D01*
X57852123Y-27999501D01*
X57792516Y-28005908D01*
X57657671Y-28056202D01*
X57657664Y-28056206D01*
X57542455Y-28142452D01*
X57542452Y-28142455D01*
X57456206Y-28257664D01*
X57456202Y-28257671D01*
X57405908Y-28392517D01*
X57400215Y-28445474D01*
X57399501Y-28452123D01*
X57399500Y-28452135D01*
X50450500Y-28452135D01*
X50450500Y-24999999D01*
X51624357Y-24999999D01*
X51624357Y-25000000D01*
X51644884Y-25221535D01*
X51644885Y-25221537D01*
X51705769Y-25435523D01*
X51705775Y-25435538D01*
X51804938Y-25634683D01*
X51804943Y-25634691D01*
X51939020Y-25812238D01*
X52103437Y-25962123D01*
X52103439Y-25962125D01*
X52292595Y-26079245D01*
X52292596Y-26079245D01*
X52292599Y-26079247D01*
X52500060Y-26159618D01*
X52718757Y-26200500D01*
X52718759Y-26200500D01*
X52941241Y-26200500D01*
X52941243Y-26200500D01*
X53159940Y-26159618D01*
X53367401Y-26079247D01*
X53556562Y-25962124D01*
X53720981Y-25812236D01*
X53855058Y-25634689D01*
X53954229Y-25435528D01*
X54015115Y-25221536D01*
X54035643Y-25000000D01*
X54015115Y-24778464D01*
X53954229Y-24564472D01*
X53899592Y-24454746D01*
X53855061Y-24365316D01*
X53855056Y-24365308D01*
X53720979Y-24187761D01*
X53556562Y-24037876D01*
X53556560Y-24037874D01*
X53367404Y-23920754D01*
X53367398Y-23920752D01*
X53159940Y-23840382D01*
X52941243Y-23799500D01*
X52718757Y-23799500D01*
X52500060Y-23840382D01*
X52368864Y-23891207D01*
X52292601Y-23920752D01*
X52292595Y-23920754D01*
X52103439Y-24037874D01*
X52103437Y-24037876D01*
X51939020Y-24187761D01*
X51804943Y-24365308D01*
X51804938Y-24365316D01*
X51705775Y-24564461D01*
X51705769Y-24564476D01*
X51644885Y-24778462D01*
X51644884Y-24778464D01*
X51624357Y-24999999D01*
X50450500Y-24999999D01*
X50450500Y-24599733D01*
X50421659Y-24454746D01*
X50421658Y-24454745D01*
X50421658Y-24454741D01*
X50421656Y-24454736D01*
X50365086Y-24318163D01*
X50365085Y-24318161D01*
X50332186Y-24268924D01*
X50332185Y-24268922D01*
X50282956Y-24195243D01*
X50282952Y-24195238D01*
X47887713Y-21799999D01*
X51614357Y-21799999D01*
X51614357Y-21800000D01*
X51634884Y-22021535D01*
X51634885Y-22021537D01*
X51695769Y-22235523D01*
X51695775Y-22235538D01*
X51794938Y-22434683D01*
X51794943Y-22434691D01*
X51929020Y-22612238D01*
X52093437Y-22762123D01*
X52093439Y-22762125D01*
X52282595Y-22879245D01*
X52282596Y-22879245D01*
X52282599Y-22879247D01*
X52490060Y-22959618D01*
X52708757Y-23000500D01*
X52708759Y-23000500D01*
X52931241Y-23000500D01*
X52931243Y-23000500D01*
X53149940Y-22959618D01*
X53357401Y-22879247D01*
X53546562Y-22762124D01*
X53710981Y-22612236D01*
X53845058Y-22434689D01*
X53944229Y-22235528D01*
X54005115Y-22021536D01*
X54025643Y-21800000D01*
X54023088Y-21772432D01*
X54005115Y-21578464D01*
X54005114Y-21578462D01*
X53978325Y-21484309D01*
X53944229Y-21364472D01*
X53878846Y-21233166D01*
X53845061Y-21165316D01*
X53845056Y-21165308D01*
X53710979Y-20987761D01*
X53546562Y-20837876D01*
X53546560Y-20837874D01*
X53357404Y-20720754D01*
X53357398Y-20720752D01*
X53149940Y-20640382D01*
X52931243Y-20599500D01*
X52708757Y-20599500D01*
X52490060Y-20640382D01*
X52435239Y-20661620D01*
X52282601Y-20720752D01*
X52282595Y-20720754D01*
X52093439Y-20837874D01*
X52093437Y-20837876D01*
X51929020Y-20987761D01*
X51794943Y-21165308D01*
X51794938Y-21165316D01*
X51695775Y-21364461D01*
X51695769Y-21364476D01*
X51634885Y-21578462D01*
X51634884Y-21578464D01*
X51614357Y-21799999D01*
X47887713Y-21799999D01*
X45281927Y-19194213D01*
X45248442Y-19132890D01*
X45253426Y-19063198D01*
X45295298Y-19007265D01*
X45310184Y-18997698D01*
X45317323Y-18993798D01*
X45317331Y-18993796D01*
X45432546Y-18907546D01*
X45518796Y-18792331D01*
X45569091Y-18657483D01*
X45575271Y-18600000D01*
X56594551Y-18600000D01*
X56614317Y-18851151D01*
X56673126Y-19096110D01*
X56769533Y-19328859D01*
X56901160Y-19543653D01*
X56901161Y-19543656D01*
X56956205Y-19608104D01*
X57064776Y-19735224D01*
X57155634Y-19812824D01*
X57256343Y-19898838D01*
X57256346Y-19898839D01*
X57471140Y-20030466D01*
X57674177Y-20114566D01*
X57703889Y-20126873D01*
X57948852Y-20185683D01*
X58200000Y-20205449D01*
X58451148Y-20185683D01*
X58696111Y-20126873D01*
X58928859Y-20030466D01*
X59143659Y-19898836D01*
X59335224Y-19735224D01*
X59498836Y-19543659D01*
X59630466Y-19328859D01*
X59726873Y-19096111D01*
X59785683Y-18851148D01*
X59805449Y-18600000D01*
X59785683Y-18348852D01*
X59726873Y-18103889D01*
X59630466Y-17871141D01*
X59630466Y-17871140D01*
X59498839Y-17656346D01*
X59498838Y-17656343D01*
X59461875Y-17613066D01*
X59335224Y-17464776D01*
X59196498Y-17346293D01*
X59143656Y-17301161D01*
X59143653Y-17301160D01*
X58928859Y-17169533D01*
X58696110Y-17073126D01*
X58451151Y-17014317D01*
X58200000Y-16994551D01*
X57948848Y-17014317D01*
X57703889Y-17073126D01*
X57471140Y-17169533D01*
X57256346Y-17301160D01*
X57256343Y-17301161D01*
X57064776Y-17464776D01*
X56901161Y-17656343D01*
X56901160Y-17656346D01*
X56769533Y-17871140D01*
X56673126Y-18103889D01*
X56614317Y-18348848D01*
X56594551Y-18600000D01*
X45575271Y-18600000D01*
X45575500Y-18597873D01*
X45575499Y-16902128D01*
X45569091Y-16842517D01*
X45520082Y-16711118D01*
X45518797Y-16707671D01*
X45518793Y-16707664D01*
X45432547Y-16592455D01*
X45432544Y-16592452D01*
X45317335Y-16506206D01*
X45317328Y-16506202D01*
X45182482Y-16455908D01*
X45182483Y-16455908D01*
X45122883Y-16449501D01*
X45122881Y-16449500D01*
X45122873Y-16449500D01*
X45122864Y-16449500D01*
X43427129Y-16449500D01*
X43427123Y-16449501D01*
X43367516Y-16455908D01*
X43232671Y-16506202D01*
X43232664Y-16506206D01*
X43117455Y-16592452D01*
X43117452Y-16592455D01*
X43031206Y-16707664D01*
X43031202Y-16707671D01*
X42980908Y-16842517D01*
X42974501Y-16902116D01*
X42974501Y-16902123D01*
X42974500Y-16902135D01*
X42974500Y-18597870D01*
X42974501Y-18597876D01*
X42980908Y-18657482D01*
X42981972Y-18661981D01*
X42978234Y-18731750D01*
X42937369Y-18788423D01*
X42872351Y-18814006D01*
X42861296Y-18814500D01*
X41269136Y-18814500D01*
X41202097Y-18794815D01*
X41165327Y-18758322D01*
X41159732Y-18749758D01*
X41088164Y-18640215D01*
X40919744Y-18457262D01*
X40723509Y-18304526D01*
X40723507Y-18304525D01*
X40723506Y-18304524D01*
X40504811Y-18186172D01*
X40504802Y-18186169D01*
X40269616Y-18105429D01*
X40024335Y-18064500D01*
X39775665Y-18064500D01*
X39530383Y-18105429D01*
X39295197Y-18186169D01*
X39295188Y-18186172D01*
X39076493Y-18304524D01*
X38880257Y-18457261D01*
X38711833Y-18640217D01*
X38575826Y-18848393D01*
X38475936Y-19076118D01*
X38414892Y-19317175D01*
X38414890Y-19317187D01*
X38394357Y-19564994D01*
X38394357Y-19565005D01*
X38414890Y-19812812D01*
X38414892Y-19812824D01*
X38475936Y-20053881D01*
X38575826Y-20281606D01*
X38711833Y-20489782D01*
X38711835Y-20489784D01*
X38711836Y-20489785D01*
X38880256Y-20672738D01*
X38963008Y-20737147D01*
X39003821Y-20793857D01*
X39007496Y-20863630D01*
X38972864Y-20924313D01*
X38963014Y-20932848D01*
X38921659Y-20965037D01*
X38880257Y-20997261D01*
X38711833Y-21180217D01*
X38575826Y-21388393D01*
X38475936Y-21616118D01*
X38414892Y-21857175D01*
X38414890Y-21857187D01*
X38394357Y-22104994D01*
X38394357Y-22105005D01*
X38414890Y-22352812D01*
X38414892Y-22352824D01*
X38475936Y-22593881D01*
X38575826Y-22821606D01*
X38711833Y-23029782D01*
X38711836Y-23029785D01*
X38880256Y-23212738D01*
X38963008Y-23277147D01*
X39003821Y-23333857D01*
X39007496Y-23403630D01*
X38972864Y-23464313D01*
X38963014Y-23472848D01*
X38904400Y-23518469D01*
X38880257Y-23537261D01*
X38711833Y-23720217D01*
X38575826Y-23928393D01*
X38475936Y-24156118D01*
X38414892Y-24397175D01*
X38414890Y-24397187D01*
X38394357Y-24644994D01*
X38394357Y-24645005D01*
X38414890Y-24892812D01*
X38414892Y-24892824D01*
X38475936Y-25133881D01*
X38575826Y-25361606D01*
X38711833Y-25569782D01*
X38711836Y-25569785D01*
X38880256Y-25752738D01*
X38963008Y-25817147D01*
X39003821Y-25873857D01*
X39007496Y-25943630D01*
X38972864Y-26004313D01*
X38963014Y-26012848D01*
X38904400Y-26058469D01*
X38880257Y-26077261D01*
X38711833Y-26260217D01*
X38575826Y-26468393D01*
X38475936Y-26696118D01*
X38414892Y-26937175D01*
X38414890Y-26937187D01*
X38394357Y-27184994D01*
X38394357Y-27185005D01*
X38414890Y-27432812D01*
X38414892Y-27432824D01*
X38475936Y-27673881D01*
X38575826Y-27901606D01*
X38711833Y-28109782D01*
X38730402Y-28129953D01*
X38880256Y-28292738D01*
X38963008Y-28357147D01*
X39003821Y-28413857D01*
X39007496Y-28483630D01*
X38972864Y-28544313D01*
X38963014Y-28552848D01*
X38919586Y-28586650D01*
X38880257Y-28617261D01*
X38711833Y-28800217D01*
X38575826Y-29008393D01*
X38475936Y-29236118D01*
X38414892Y-29477175D01*
X38414890Y-29477187D01*
X38394357Y-29724994D01*
X38394357Y-29725005D01*
X38414890Y-29972812D01*
X38414892Y-29972824D01*
X38475936Y-30213881D01*
X38575826Y-30441606D01*
X38711833Y-30649782D01*
X38711836Y-30649785D01*
X38880256Y-30832738D01*
X38963008Y-30897147D01*
X39003821Y-30953857D01*
X39007496Y-31023630D01*
X38972864Y-31084313D01*
X38963014Y-31092848D01*
X38904400Y-31138469D01*
X38880257Y-31157261D01*
X38711833Y-31340217D01*
X38575826Y-31548393D01*
X38475936Y-31776118D01*
X38414892Y-32017175D01*
X38414890Y-32017187D01*
X38394357Y-32264994D01*
X38394357Y-32265005D01*
X38414890Y-32512812D01*
X38414892Y-32512824D01*
X38475936Y-32753881D01*
X38575826Y-32981606D01*
X38711833Y-33189782D01*
X38711836Y-33189785D01*
X38880256Y-33372738D01*
X38963008Y-33437147D01*
X39003821Y-33493857D01*
X39007496Y-33563630D01*
X38972864Y-33624313D01*
X38963014Y-33632848D01*
X38904400Y-33678469D01*
X38880257Y-33697261D01*
X38711833Y-33880217D01*
X38575826Y-34088393D01*
X38475936Y-34316118D01*
X38414892Y-34557175D01*
X38414890Y-34557187D01*
X38394357Y-34804994D01*
X38394357Y-34805005D01*
X38414890Y-35052812D01*
X38414892Y-35052824D01*
X38475936Y-35293881D01*
X38575826Y-35521606D01*
X38711833Y-35729782D01*
X38711836Y-35729785D01*
X38880256Y-35912738D01*
X38963008Y-35977147D01*
X39003821Y-36033857D01*
X39007496Y-36103630D01*
X38972864Y-36164313D01*
X38963014Y-36172848D01*
X38904400Y-36218469D01*
X38880257Y-36237261D01*
X38711833Y-36420217D01*
X38575826Y-36628393D01*
X38475936Y-36856118D01*
X38414892Y-37097175D01*
X38414890Y-37097186D01*
X38404616Y-37221175D01*
X38379463Y-37286360D01*
X38323060Y-37327597D01*
X38253317Y-37331795D01*
X38192375Y-37297621D01*
X38159584Y-37235924D01*
X38159485Y-37235439D01*
X38151658Y-37196087D01*
X38128577Y-37140364D01*
X38095085Y-37059507D01*
X38065218Y-37014808D01*
X38054501Y-36998768D01*
X38012952Y-36936584D01*
X16036818Y-14960450D01*
X16003333Y-14899127D01*
X16000499Y-14872769D01*
X16000499Y-14484994D01*
X38394357Y-14484994D01*
X38394357Y-14485005D01*
X38414890Y-14732812D01*
X38414892Y-14732824D01*
X38475936Y-14973881D01*
X38575826Y-15201606D01*
X38711833Y-15409782D01*
X38711836Y-15409785D01*
X38880256Y-15592738D01*
X39076491Y-15745474D01*
X39295190Y-15863828D01*
X39530386Y-15944571D01*
X39775665Y-15985500D01*
X40024335Y-15985500D01*
X40269614Y-15944571D01*
X40504810Y-15863828D01*
X40723509Y-15745474D01*
X40919744Y-15592738D01*
X41088164Y-15409785D01*
X41224173Y-15201607D01*
X41324063Y-14973881D01*
X41385108Y-14732821D01*
X41392803Y-14639954D01*
X41405643Y-14485005D01*
X41405643Y-14484994D01*
X41385109Y-14237187D01*
X41385107Y-14237175D01*
X41324063Y-13996118D01*
X41224173Y-13768393D01*
X41088166Y-13560217D01*
X41055151Y-13524353D01*
X40919744Y-13377262D01*
X40814884Y-13295646D01*
X52049500Y-13295646D01*
X52049500Y-13524354D01*
X52055747Y-13563793D01*
X52085278Y-13750246D01*
X52085278Y-13750249D01*
X52155950Y-13967755D01*
X52259569Y-14171118D01*
X52259783Y-14171538D01*
X52392525Y-14354242D01*
X52416005Y-14420046D01*
X52400180Y-14488100D01*
X52350074Y-14536795D01*
X52335541Y-14543308D01*
X52307670Y-14553703D01*
X52307664Y-14553706D01*
X52192455Y-14639952D01*
X52192452Y-14639955D01*
X52106206Y-14755164D01*
X52106202Y-14755171D01*
X52055908Y-14890017D01*
X52052241Y-14924131D01*
X52049501Y-14949623D01*
X52049500Y-14949635D01*
X52049500Y-16950370D01*
X52049501Y-16950376D01*
X52055908Y-17009983D01*
X52106202Y-17144828D01*
X52106206Y-17144835D01*
X52192452Y-17260044D01*
X52192455Y-17260047D01*
X52307664Y-17346293D01*
X52307671Y-17346297D01*
X52442517Y-17396591D01*
X52442516Y-17396591D01*
X52449444Y-17397335D01*
X52502127Y-17403000D01*
X54597872Y-17402999D01*
X54657483Y-17396591D01*
X54792331Y-17346296D01*
X54907546Y-17260046D01*
X54993796Y-17144831D01*
X55044091Y-17009983D01*
X55050500Y-16950373D01*
X55050499Y-14949628D01*
X55044091Y-14890017D01*
X54993796Y-14755169D01*
X54993795Y-14755168D01*
X54993793Y-14755164D01*
X54907547Y-14639955D01*
X54907544Y-14639952D01*
X54792335Y-14553706D01*
X54792328Y-14553702D01*
X54764459Y-14543308D01*
X54708525Y-14501437D01*
X54684108Y-14435973D01*
X54698960Y-14367700D01*
X54707460Y-14354260D01*
X54840217Y-14171538D01*
X54944048Y-13967758D01*
X54944049Y-13967755D01*
X55014721Y-13750249D01*
X55014721Y-13750248D01*
X55014722Y-13750245D01*
X55050500Y-13524354D01*
X55050500Y-13295646D01*
X55014722Y-13069755D01*
X55014721Y-13069751D01*
X55014721Y-13069750D01*
X54944049Y-12852244D01*
X54934883Y-12834254D01*
X54840217Y-12648462D01*
X54705786Y-12463434D01*
X54544066Y-12301714D01*
X54359038Y-12167283D01*
X54155255Y-12063450D01*
X53937748Y-11992778D01*
X53768326Y-11965944D01*
X53711854Y-11957000D01*
X53388146Y-11957000D01*
X53312849Y-11968926D01*
X53162253Y-11992778D01*
X53162250Y-11992778D01*
X52944744Y-12063450D01*
X52740961Y-12167283D01*
X52635396Y-12243980D01*
X52555934Y-12301714D01*
X52555932Y-12301716D01*
X52555931Y-12301716D01*
X52394216Y-12463431D01*
X52394216Y-12463432D01*
X52394214Y-12463434D01*
X52349024Y-12525633D01*
X52259783Y-12648461D01*
X52155950Y-12852244D01*
X52085278Y-13069750D01*
X52085278Y-13069753D01*
X52054492Y-13264128D01*
X52049500Y-13295646D01*
X40814884Y-13295646D01*
X40723509Y-13224526D01*
X40723507Y-13224525D01*
X40723506Y-13224524D01*
X40504811Y-13106172D01*
X40504802Y-13106169D01*
X40269616Y-13025429D01*
X40024335Y-12984500D01*
X39775665Y-12984500D01*
X39530383Y-13025429D01*
X39295197Y-13106169D01*
X39295188Y-13106172D01*
X39076493Y-13224524D01*
X38880257Y-13377261D01*
X38711833Y-13560217D01*
X38575826Y-13768393D01*
X38475936Y-13996118D01*
X38414892Y-14237175D01*
X38414890Y-14237187D01*
X38394357Y-14484994D01*
X16000499Y-14484994D01*
X16000499Y-13437129D01*
X16000498Y-13437123D01*
X16000497Y-13437116D01*
X15994091Y-13377517D01*
X15988428Y-13362335D01*
X15943797Y-13242671D01*
X15943793Y-13242664D01*
X15857547Y-13127455D01*
X15857544Y-13127452D01*
X15742335Y-13041206D01*
X15742328Y-13041202D01*
X15607482Y-12990908D01*
X15607483Y-12990908D01*
X15547883Y-12984501D01*
X15547881Y-12984500D01*
X15547873Y-12984500D01*
X15547864Y-12984500D01*
X13452129Y-12984500D01*
X13452123Y-12984501D01*
X13392516Y-12990908D01*
X13257671Y-13041202D01*
X13257664Y-13041206D01*
X13142455Y-13127452D01*
X13142452Y-13127455D01*
X13056206Y-13242664D01*
X13056202Y-13242671D01*
X13005908Y-13377517D01*
X12999501Y-13437116D01*
X12999501Y-13437123D01*
X12999500Y-13437135D01*
X12999500Y-15532870D01*
X12999501Y-15532876D01*
X13005908Y-15592483D01*
X13056202Y-15727328D01*
X13056206Y-15727335D01*
X13142452Y-15842544D01*
X13142455Y-15842547D01*
X13257664Y-15928793D01*
X13257671Y-15928797D01*
X13392517Y-15979091D01*
X13392516Y-15979091D01*
X13399444Y-15979835D01*
X13452127Y-15985500D01*
X14887769Y-15985499D01*
X14954808Y-16005184D01*
X14975450Y-16021818D01*
X36643181Y-37689549D01*
X36676666Y-37750872D01*
X36679500Y-37777230D01*
X36679500Y-54377345D01*
X36679500Y-54377347D01*
X36679499Y-54377347D01*
X36708340Y-54522334D01*
X36708343Y-54522344D01*
X36764914Y-54658919D01*
X36797812Y-54708154D01*
X36797813Y-54708157D01*
X36847046Y-54781841D01*
X36847052Y-54781848D01*
X38885303Y-56820097D01*
X39563621Y-57498415D01*
X39563622Y-57498416D01*
X39668157Y-57602951D01*
X39668160Y-57602953D01*
X39668161Y-57602954D01*
X39791067Y-57685077D01*
X39791070Y-57685078D01*
X39791078Y-57685084D01*
X39824010Y-57698724D01*
X39864235Y-57725603D01*
X41217048Y-59078415D01*
X41217049Y-59078416D01*
X41321583Y-59182950D01*
X41321585Y-59182952D01*
X41444506Y-59265085D01*
X41446481Y-59266141D01*
X41447321Y-59266966D01*
X41449570Y-59268469D01*
X41449285Y-59268895D01*
X41496326Y-59315102D01*
X41511788Y-59383239D01*
X41487958Y-59448920D01*
X41432401Y-59491289D01*
X41388030Y-59499500D01*
X624500Y-59499500D01*
X557461Y-59479815D01*
X511706Y-59427011D01*
X500500Y-59375500D01*
X500500Y-56858415D01*
X520185Y-56791376D01*
X572989Y-56745621D01*
X642147Y-56735677D01*
X705703Y-56764702D01*
X742431Y-56820097D01*
X763659Y-56885431D01*
X763661Y-56885436D01*
X892265Y-57158732D01*
X892268Y-57158738D01*
X1054111Y-57413763D01*
X1054114Y-57413767D01*
X1054115Y-57413768D01*
X1246651Y-57646504D01*
X1424143Y-57813181D01*
X1466836Y-57853272D01*
X1466846Y-57853280D01*
X1711193Y-58030808D01*
X1711198Y-58030810D01*
X1711205Y-58030816D01*
X1975896Y-58176332D01*
X1975901Y-58176334D01*
X1975903Y-58176335D01*
X1975904Y-58176336D01*
X2256734Y-58287524D01*
X2256737Y-58287525D01*
X2354259Y-58312564D01*
X2549302Y-58362642D01*
X2696039Y-58381179D01*
X2848963Y-58400499D01*
X2848969Y-58400499D01*
X2848973Y-58400500D01*
X2848975Y-58400500D01*
X3151025Y-58400500D01*
X3151027Y-58400500D01*
X3151032Y-58400499D01*
X3151036Y-58400499D01*
X3230591Y-58390448D01*
X3450698Y-58362642D01*
X3743262Y-58287525D01*
X3743265Y-58287524D01*
X4024095Y-58176336D01*
X4024096Y-58176335D01*
X4024094Y-58176335D01*
X4024104Y-58176332D01*
X4288795Y-58030816D01*
X4533162Y-57853274D01*
X4753349Y-57646504D01*
X4945885Y-57413768D01*
X5107733Y-57158736D01*
X5236341Y-56885430D01*
X5329681Y-56598160D01*
X5386280Y-56301457D01*
X5405246Y-56000000D01*
X5404082Y-55981506D01*
X5386281Y-55698553D01*
X5386280Y-55698546D01*
X5386280Y-55698543D01*
X5343637Y-55475000D01*
X18290000Y-55475000D01*
X35980000Y-55475000D01*
X35980000Y-48985000D01*
X18290000Y-48985000D01*
X18290000Y-55475000D01*
X5343637Y-55475000D01*
X5329681Y-55401840D01*
X5236341Y-55114570D01*
X5205177Y-55048344D01*
X5155918Y-54943663D01*
X5107733Y-54841264D01*
X5027866Y-54715413D01*
X4945888Y-54586236D01*
X4773080Y-54377347D01*
X4753349Y-54353496D01*
X4533162Y-54146726D01*
X4533159Y-54146724D01*
X4533153Y-54146719D01*
X4288806Y-53969191D01*
X4288799Y-53969186D01*
X4288795Y-53969184D01*
X4024104Y-53823668D01*
X4024101Y-53823666D01*
X4024096Y-53823664D01*
X4024095Y-53823663D01*
X3743265Y-53712475D01*
X3743262Y-53712474D01*
X3450695Y-53637357D01*
X3151036Y-53599500D01*
X3151027Y-53599500D01*
X2848973Y-53599500D01*
X2848963Y-53599500D01*
X2549304Y-53637357D01*
X2256737Y-53712474D01*
X2256734Y-53712475D01*
X1975904Y-53823663D01*
X1975903Y-53823664D01*
X1711205Y-53969184D01*
X1711193Y-53969191D01*
X1466846Y-54146719D01*
X1466836Y-54146727D01*
X1246652Y-54353494D01*
X1054111Y-54586236D01*
X892268Y-54841261D01*
X892265Y-54841267D01*
X763661Y-55114563D01*
X763659Y-55114568D01*
X742431Y-55179902D01*
X702993Y-55237578D01*
X638635Y-55264776D01*
X569788Y-55252861D01*
X518313Y-55205617D01*
X500500Y-55141584D01*
X500500Y-42119999D01*
X4844341Y-42119999D01*
X4844341Y-42120000D01*
X4864936Y-42355403D01*
X4864938Y-42355413D01*
X4926094Y-42583655D01*
X4926096Y-42583659D01*
X4926097Y-42583663D01*
X5003894Y-42750499D01*
X5025965Y-42797830D01*
X5025967Y-42797834D01*
X5161501Y-42991395D01*
X5161506Y-42991402D01*
X5328597Y-43158493D01*
X5328603Y-43158498D01*
X5514158Y-43288425D01*
X5557783Y-43343002D01*
X5564977Y-43412500D01*
X5533454Y-43474855D01*
X5514158Y-43491575D01*
X5328597Y-43621505D01*
X5161505Y-43788597D01*
X5025965Y-43982169D01*
X5025964Y-43982171D01*
X4926098Y-44196335D01*
X4926094Y-44196344D01*
X4864938Y-44424586D01*
X4864936Y-44424596D01*
X4844341Y-44659999D01*
X4844341Y-44660000D01*
X4864936Y-44895403D01*
X4864938Y-44895413D01*
X4926094Y-45123655D01*
X4926096Y-45123659D01*
X4926097Y-45123663D01*
X5025965Y-45337830D01*
X5025967Y-45337834D01*
X5107225Y-45453881D01*
X5161505Y-45531401D01*
X5328599Y-45698495D01*
X5425384Y-45766265D01*
X5522165Y-45834032D01*
X5522167Y-45834033D01*
X5522170Y-45834035D01*
X5736337Y-45933903D01*
X5964592Y-45995063D01*
X6152918Y-46011539D01*
X6199999Y-46015659D01*
X6200000Y-46015659D01*
X6200001Y-46015659D01*
X6239234Y-46012226D01*
X6435408Y-45995063D01*
X6663663Y-45933903D01*
X6877830Y-45834035D01*
X7071401Y-45698495D01*
X7238495Y-45531401D01*
X7374035Y-45337830D01*
X7473903Y-45123663D01*
X7535063Y-44895408D01*
X7555659Y-44660000D01*
X7535063Y-44424592D01*
X7473903Y-44196337D01*
X7374035Y-43982171D01*
X7286574Y-43857262D01*
X7238494Y-43788597D01*
X7071402Y-43621506D01*
X7071396Y-43621501D01*
X6885842Y-43491575D01*
X6842217Y-43436998D01*
X6835023Y-43367500D01*
X6866546Y-43305145D01*
X6885842Y-43288425D01*
X6908026Y-43272891D01*
X7071401Y-43158495D01*
X7238495Y-42991401D01*
X7374035Y-42797830D01*
X7473903Y-42583663D01*
X7535063Y-42355408D01*
X7555659Y-42120000D01*
X7535063Y-41884592D01*
X7473903Y-41656337D01*
X7374035Y-41442171D01*
X7320314Y-41365448D01*
X7238494Y-41248597D01*
X7071402Y-41081506D01*
X7071395Y-41081501D01*
X7048810Y-41065687D01*
X6955006Y-41000004D01*
X6877834Y-40945967D01*
X6877830Y-40945965D01*
X6877828Y-40945964D01*
X6663663Y-40846097D01*
X6663659Y-40846096D01*
X6663655Y-40846094D01*
X6435413Y-40784938D01*
X6435403Y-40784936D01*
X6200001Y-40764341D01*
X6199999Y-40764341D01*
X5964596Y-40784936D01*
X5964586Y-40784938D01*
X5736344Y-40846094D01*
X5736335Y-40846098D01*
X5522171Y-40945964D01*
X5522169Y-40945965D01*
X5328597Y-41081505D01*
X5161505Y-41248597D01*
X5025965Y-41442169D01*
X5025964Y-41442171D01*
X4926098Y-41656335D01*
X4926094Y-41656344D01*
X4864938Y-41884586D01*
X4864936Y-41884596D01*
X4844341Y-42119999D01*
X500500Y-42119999D01*
X500500Y-27119999D01*
X4844341Y-27119999D01*
X4844341Y-27120000D01*
X4864936Y-27355403D01*
X4864938Y-27355413D01*
X4926094Y-27583655D01*
X4926096Y-27583659D01*
X4926097Y-27583663D01*
X5025965Y-27797830D01*
X5025967Y-27797834D01*
X5161501Y-27991395D01*
X5161506Y-27991402D01*
X5328597Y-28158493D01*
X5328603Y-28158498D01*
X5514158Y-28288425D01*
X5557783Y-28343002D01*
X5564977Y-28412500D01*
X5533454Y-28474855D01*
X5514158Y-28491575D01*
X5328597Y-28621505D01*
X5161505Y-28788597D01*
X5025965Y-28982169D01*
X5025964Y-28982171D01*
X4926098Y-29196335D01*
X4926094Y-29196344D01*
X4864938Y-29424586D01*
X4864936Y-29424596D01*
X4844341Y-29659999D01*
X4844341Y-29660000D01*
X4864936Y-29895403D01*
X4864938Y-29895413D01*
X4926094Y-30123655D01*
X4926096Y-30123659D01*
X4926097Y-30123663D01*
X4989937Y-30260567D01*
X5025965Y-30337830D01*
X5025967Y-30337834D01*
X5115521Y-30465729D01*
X5161505Y-30531401D01*
X5328599Y-30698495D01*
X5402870Y-30750500D01*
X5522165Y-30834032D01*
X5522167Y-30834033D01*
X5522170Y-30834035D01*
X5736337Y-30933903D01*
X5736343Y-30933904D01*
X5736344Y-30933905D01*
X5767780Y-30942328D01*
X5964592Y-30995063D01*
X6152918Y-31011539D01*
X6199999Y-31015659D01*
X6200000Y-31015659D01*
X6200001Y-31015659D01*
X6239234Y-31012226D01*
X6435408Y-30995063D01*
X6663663Y-30933903D01*
X6877830Y-30834035D01*
X7071401Y-30698495D01*
X7238495Y-30531401D01*
X7374035Y-30337830D01*
X7473903Y-30123663D01*
X7535063Y-29895408D01*
X7555659Y-29660000D01*
X7535063Y-29424592D01*
X7473903Y-29196337D01*
X7374035Y-28982171D01*
X7351510Y-28950001D01*
X7238494Y-28788597D01*
X7071402Y-28621506D01*
X7071396Y-28621501D01*
X6885842Y-28491575D01*
X6842217Y-28436998D01*
X6835023Y-28367500D01*
X6866546Y-28305145D01*
X6885842Y-28288425D01*
X6929773Y-28257664D01*
X7071401Y-28158495D01*
X7238495Y-27991401D01*
X7374035Y-27797830D01*
X7473903Y-27583663D01*
X7535063Y-27355408D01*
X7555659Y-27120000D01*
X7535063Y-26884592D01*
X7473903Y-26656337D01*
X7374035Y-26442171D01*
X7238495Y-26248599D01*
X7238494Y-26248597D01*
X7071402Y-26081506D01*
X7071395Y-26081501D01*
X7065345Y-26077265D01*
X7032521Y-26054281D01*
X6877834Y-25945967D01*
X6877830Y-25945965D01*
X6831854Y-25924526D01*
X6663663Y-25846097D01*
X6663659Y-25846096D01*
X6663655Y-25846094D01*
X6435413Y-25784938D01*
X6435403Y-25784936D01*
X6200001Y-25764341D01*
X6199999Y-25764341D01*
X5964596Y-25784936D01*
X5964586Y-25784938D01*
X5736344Y-25846094D01*
X5736335Y-25846098D01*
X5522171Y-25945964D01*
X5522169Y-25945965D01*
X5328597Y-26081505D01*
X5161505Y-26248597D01*
X5025965Y-26442169D01*
X5025964Y-26442171D01*
X4926098Y-26656335D01*
X4926094Y-26656344D01*
X4864938Y-26884586D01*
X4864936Y-26884596D01*
X4844341Y-27119999D01*
X500500Y-27119999D01*
X500500Y-19608104D01*
X520185Y-19541065D01*
X572989Y-19495310D01*
X642147Y-19485366D01*
X705703Y-19514391D01*
X742431Y-19569785D01*
X809433Y-19775996D01*
X899175Y-19952123D01*
X916657Y-19986433D01*
X1055483Y-20177510D01*
X1222490Y-20344517D01*
X1413567Y-20483343D01*
X1512991Y-20534002D01*
X1624003Y-20590566D01*
X1624005Y-20590566D01*
X1624008Y-20590568D01*
X1656761Y-20601210D01*
X1848631Y-20663553D01*
X2081903Y-20700500D01*
X2081908Y-20700500D01*
X2318097Y-20700500D01*
X2551368Y-20663553D01*
X2557317Y-20661620D01*
X2775992Y-20590568D01*
X2986433Y-20483343D01*
X3177510Y-20344517D01*
X3344517Y-20177510D01*
X3483343Y-19986433D01*
X3500819Y-19952135D01*
X4199500Y-19952135D01*
X4199500Y-22047870D01*
X4199501Y-22047876D01*
X4205908Y-22107483D01*
X4256202Y-22242328D01*
X4256206Y-22242335D01*
X4342452Y-22357544D01*
X4342455Y-22357547D01*
X4457664Y-22443793D01*
X4457671Y-22443797D01*
X4592517Y-22494091D01*
X4592516Y-22494091D01*
X4599444Y-22494835D01*
X4652127Y-22500500D01*
X9347872Y-22500499D01*
X9407483Y-22494091D01*
X9542331Y-22443796D01*
X9657546Y-22357546D01*
X9743796Y-22242331D01*
X9794091Y-22107483D01*
X9800500Y-22047873D01*
X9800499Y-19952128D01*
X9794771Y-19898839D01*
X9794091Y-19892516D01*
X9743797Y-19757671D01*
X9743793Y-19757664D01*
X9657547Y-19642455D01*
X9657544Y-19642452D01*
X9554074Y-19564994D01*
X12994357Y-19564994D01*
X12994357Y-19565005D01*
X13014890Y-19812812D01*
X13014892Y-19812824D01*
X13075936Y-20053881D01*
X13175826Y-20281606D01*
X13311833Y-20489782D01*
X13311835Y-20489784D01*
X13311836Y-20489785D01*
X13480256Y-20672738D01*
X13563008Y-20737147D01*
X13603821Y-20793857D01*
X13607496Y-20863630D01*
X13572864Y-20924313D01*
X13563014Y-20932848D01*
X13521659Y-20965037D01*
X13480257Y-20997261D01*
X13311833Y-21180217D01*
X13175826Y-21388393D01*
X13075936Y-21616118D01*
X13014892Y-21857175D01*
X13014890Y-21857187D01*
X12994357Y-22104994D01*
X12994357Y-22105005D01*
X13014890Y-22352812D01*
X13014892Y-22352824D01*
X13075936Y-22593881D01*
X13175826Y-22821606D01*
X13311833Y-23029782D01*
X13311836Y-23029785D01*
X13480256Y-23212738D01*
X13563008Y-23277147D01*
X13603821Y-23333857D01*
X13607496Y-23403630D01*
X13572864Y-23464313D01*
X13563014Y-23472848D01*
X13504400Y-23518469D01*
X13480257Y-23537261D01*
X13311833Y-23720217D01*
X13175826Y-23928393D01*
X13075936Y-24156118D01*
X13014892Y-24397175D01*
X13014890Y-24397187D01*
X12994357Y-24644994D01*
X12994357Y-24645005D01*
X13014890Y-24892812D01*
X13014892Y-24892824D01*
X13075936Y-25133881D01*
X13175826Y-25361606D01*
X13311833Y-25569782D01*
X13311836Y-25569785D01*
X13480256Y-25752738D01*
X13563008Y-25817147D01*
X13603821Y-25873857D01*
X13607496Y-25943630D01*
X13572864Y-26004313D01*
X13563014Y-26012848D01*
X13504400Y-26058469D01*
X13480257Y-26077261D01*
X13311833Y-26260217D01*
X13175826Y-26468393D01*
X13075936Y-26696118D01*
X13014892Y-26937175D01*
X13014890Y-26937187D01*
X12994357Y-27184994D01*
X12994357Y-27185005D01*
X13014890Y-27432812D01*
X13014892Y-27432824D01*
X13075936Y-27673881D01*
X13175826Y-27901606D01*
X13311833Y-28109782D01*
X13330402Y-28129953D01*
X13480256Y-28292738D01*
X13563008Y-28357147D01*
X13603821Y-28413857D01*
X13607496Y-28483630D01*
X13572864Y-28544313D01*
X13563014Y-28552848D01*
X13519586Y-28586650D01*
X13480257Y-28617261D01*
X13311833Y-28800217D01*
X13175826Y-29008393D01*
X13075936Y-29236118D01*
X13014892Y-29477175D01*
X13014890Y-29477187D01*
X12994357Y-29724994D01*
X12994357Y-29725005D01*
X13014890Y-29972812D01*
X13014892Y-29972824D01*
X13075936Y-30213881D01*
X13175826Y-30441606D01*
X13311833Y-30649782D01*
X13311836Y-30649785D01*
X13480256Y-30832738D01*
X13563008Y-30897147D01*
X13603821Y-30953857D01*
X13607496Y-31023630D01*
X13572864Y-31084313D01*
X13563014Y-31092848D01*
X13504400Y-31138469D01*
X13480257Y-31157261D01*
X13311833Y-31340217D01*
X13175826Y-31548393D01*
X13075936Y-31776118D01*
X13014892Y-32017175D01*
X13014890Y-32017187D01*
X12994357Y-32264994D01*
X12994357Y-32265005D01*
X13014890Y-32512812D01*
X13014892Y-32512824D01*
X13075936Y-32753881D01*
X13175826Y-32981606D01*
X13311833Y-33189782D01*
X13311836Y-33189785D01*
X13480256Y-33372738D01*
X13563008Y-33437147D01*
X13603821Y-33493857D01*
X13607496Y-33563630D01*
X13572864Y-33624313D01*
X13563014Y-33632848D01*
X13504400Y-33678469D01*
X13480257Y-33697261D01*
X13311833Y-33880217D01*
X13175826Y-34088393D01*
X13075936Y-34316118D01*
X13014892Y-34557175D01*
X13014890Y-34557187D01*
X12994357Y-34804994D01*
X12994357Y-34805005D01*
X13014890Y-35052812D01*
X13014892Y-35052824D01*
X13075936Y-35293881D01*
X13175826Y-35521606D01*
X13311833Y-35729782D01*
X13311836Y-35729785D01*
X13480256Y-35912738D01*
X13563008Y-35977147D01*
X13603821Y-36033857D01*
X13607496Y-36103630D01*
X13572864Y-36164313D01*
X13563014Y-36172848D01*
X13504400Y-36218469D01*
X13480257Y-36237261D01*
X13311833Y-36420217D01*
X13175826Y-36628393D01*
X13075936Y-36856118D01*
X13014892Y-37097175D01*
X13014890Y-37097187D01*
X12994357Y-37344994D01*
X12994357Y-37345005D01*
X13014890Y-37592812D01*
X13014892Y-37592821D01*
X13075936Y-37833881D01*
X13175826Y-38061606D01*
X13311833Y-38269782D01*
X13311836Y-38269785D01*
X13480256Y-38452738D01*
X13563008Y-38517147D01*
X13603821Y-38573857D01*
X13607496Y-38643630D01*
X13572864Y-38704313D01*
X13563014Y-38712848D01*
X13504400Y-38758469D01*
X13480257Y-38777261D01*
X13311833Y-38960217D01*
X13175826Y-39168393D01*
X13075936Y-39396118D01*
X13014892Y-39637175D01*
X13014890Y-39637187D01*
X12994357Y-39884994D01*
X12994357Y-39885005D01*
X13014890Y-40132812D01*
X13014892Y-40132824D01*
X13075936Y-40373881D01*
X13175826Y-40601606D01*
X13311833Y-40809782D01*
X13311836Y-40809785D01*
X13480256Y-40992738D01*
X13563008Y-41057147D01*
X13603821Y-41113857D01*
X13607496Y-41183630D01*
X13572864Y-41244313D01*
X13563014Y-41252848D01*
X13551732Y-41261630D01*
X13480257Y-41317261D01*
X13311833Y-41500217D01*
X13175826Y-41708393D01*
X13075936Y-41936118D01*
X13014892Y-42177175D01*
X13014890Y-42177187D01*
X12994357Y-42424994D01*
X12994357Y-42425005D01*
X13014890Y-42672812D01*
X13014892Y-42672824D01*
X13075936Y-42913881D01*
X13175826Y-43141606D01*
X13311833Y-43349782D01*
X13311836Y-43349785D01*
X13480256Y-43532738D01*
X13563008Y-43597147D01*
X13603821Y-43653857D01*
X13607496Y-43723630D01*
X13572864Y-43784313D01*
X13563014Y-43792848D01*
X13504400Y-43838469D01*
X13480257Y-43857261D01*
X13311833Y-44040217D01*
X13175826Y-44248393D01*
X13075936Y-44476118D01*
X13014892Y-44717175D01*
X13014890Y-44717187D01*
X12994357Y-44964994D01*
X12994357Y-44965005D01*
X13014890Y-45212812D01*
X13014892Y-45212824D01*
X13075936Y-45453881D01*
X13175826Y-45681606D01*
X13311833Y-45889782D01*
X13344245Y-45924991D01*
X13480256Y-46072738D01*
X13563008Y-46137147D01*
X13603821Y-46193857D01*
X13607496Y-46263630D01*
X13572864Y-46324313D01*
X13563014Y-46332848D01*
X13504400Y-46378469D01*
X13480257Y-46397261D01*
X13311833Y-46580217D01*
X13175826Y-46788393D01*
X13075936Y-47016118D01*
X13014892Y-47257175D01*
X13014890Y-47257187D01*
X12994357Y-47504994D01*
X12994357Y-47505005D01*
X13014890Y-47752812D01*
X13014892Y-47752824D01*
X13075936Y-47993881D01*
X13175826Y-48221606D01*
X13311833Y-48429782D01*
X13311836Y-48429785D01*
X13480256Y-48612738D01*
X13563008Y-48677147D01*
X13603821Y-48733857D01*
X13607496Y-48803630D01*
X13572864Y-48864313D01*
X13563014Y-48872848D01*
X13504400Y-48918469D01*
X13480257Y-48937261D01*
X13311833Y-49120217D01*
X13175826Y-49328393D01*
X13075936Y-49556118D01*
X13014892Y-49797175D01*
X13014890Y-49797187D01*
X12994357Y-50044994D01*
X12994357Y-50045005D01*
X13014890Y-50292812D01*
X13014892Y-50292824D01*
X13075936Y-50533881D01*
X13175826Y-50761606D01*
X13311833Y-50969782D01*
X13311836Y-50969785D01*
X13480256Y-51152738D01*
X13676491Y-51305474D01*
X13895190Y-51423828D01*
X14130386Y-51504571D01*
X14375665Y-51545500D01*
X14415708Y-51545500D01*
X14482747Y-51565185D01*
X14528502Y-51617989D01*
X14538446Y-51687147D01*
X14509421Y-51750703D01*
X14450643Y-51788477D01*
X14447835Y-51789265D01*
X14390418Y-51804649D01*
X14356112Y-51813842D01*
X14144123Y-51901650D01*
X14144109Y-51901657D01*
X13945382Y-52016392D01*
X13763338Y-52156081D01*
X13601081Y-52318338D01*
X13461392Y-52500382D01*
X13346657Y-52699109D01*
X13346650Y-52699123D01*
X13258842Y-52911112D01*
X13199453Y-53132759D01*
X13199451Y-53132770D01*
X13169500Y-53360258D01*
X13169500Y-53589741D01*
X13185659Y-53712474D01*
X13199452Y-53817238D01*
X13199453Y-53817240D01*
X13258842Y-54038887D01*
X13346650Y-54250876D01*
X13346657Y-54250890D01*
X13461392Y-54449617D01*
X13601081Y-54631661D01*
X13601089Y-54631670D01*
X13763330Y-54793911D01*
X13763338Y-54793918D01*
X13945382Y-54933607D01*
X13945385Y-54933608D01*
X13945388Y-54933611D01*
X14144112Y-55048344D01*
X14144117Y-55048346D01*
X14144123Y-55048349D01*
X14235480Y-55086190D01*
X14356113Y-55136158D01*
X14577762Y-55195548D01*
X14805266Y-55225500D01*
X14805273Y-55225500D01*
X15034727Y-55225500D01*
X15034734Y-55225500D01*
X15262238Y-55195548D01*
X15483887Y-55136158D01*
X15695888Y-55048344D01*
X15894612Y-54933611D01*
X16076661Y-54793919D01*
X16076665Y-54793914D01*
X16076670Y-54793911D01*
X16238911Y-54631670D01*
X16238914Y-54631665D01*
X16238919Y-54631661D01*
X16378611Y-54449612D01*
X16493344Y-54250888D01*
X16581158Y-54038887D01*
X16640548Y-53817238D01*
X16670500Y-53589734D01*
X16670500Y-53360266D01*
X16640548Y-53132762D01*
X16581158Y-52911113D01*
X16493344Y-52699112D01*
X16378611Y-52500388D01*
X16378608Y-52500385D01*
X16378607Y-52500382D01*
X16238918Y-52318338D01*
X16238911Y-52318330D01*
X16076670Y-52156089D01*
X16076661Y-52156081D01*
X15894617Y-52016392D01*
X15695890Y-51901657D01*
X15695876Y-51901650D01*
X15483887Y-51813842D01*
X15262238Y-51754452D01*
X15224215Y-51749446D01*
X15034741Y-51724500D01*
X15034734Y-51724500D01*
X14972075Y-51724500D01*
X14905036Y-51704815D01*
X14859281Y-51652011D01*
X14849337Y-51582853D01*
X14878362Y-51519297D01*
X14931812Y-51483219D01*
X15010976Y-51456040D01*
X15104810Y-51423828D01*
X15323509Y-51305474D01*
X15519744Y-51152738D01*
X15688164Y-50969785D01*
X15824173Y-50761607D01*
X15924063Y-50533881D01*
X15985108Y-50292821D01*
X15994325Y-50181588D01*
X16005643Y-50045005D01*
X16005643Y-50044994D01*
X15985109Y-49797187D01*
X15985107Y-49797175D01*
X15924063Y-49556118D01*
X15824173Y-49328393D01*
X15688166Y-49120217D01*
X15666557Y-49096744D01*
X15519744Y-48937262D01*
X15436991Y-48872852D01*
X15396179Y-48816143D01*
X15392504Y-48746370D01*
X15427136Y-48685687D01*
X15436985Y-48677151D01*
X15519744Y-48612738D01*
X15688164Y-48429785D01*
X15824173Y-48221607D01*
X15924063Y-47993881D01*
X15985108Y-47752821D01*
X16005643Y-47505000D01*
X15989482Y-47309971D01*
X15985109Y-47257187D01*
X15985107Y-47257175D01*
X15924063Y-47016118D01*
X15824173Y-46788393D01*
X15688166Y-46580217D01*
X15666557Y-46556744D01*
X15519744Y-46397262D01*
X15436991Y-46332852D01*
X15396179Y-46276143D01*
X15392504Y-46206370D01*
X15427136Y-46145687D01*
X15436985Y-46137151D01*
X15519744Y-46072738D01*
X15688164Y-45889785D01*
X15824173Y-45681607D01*
X15924063Y-45453881D01*
X15985108Y-45212821D01*
X15992496Y-45123663D01*
X16005643Y-44965005D01*
X16005643Y-44964994D01*
X15985109Y-44717187D01*
X15985107Y-44717175D01*
X15924063Y-44476118D01*
X15824173Y-44248393D01*
X15688166Y-44040217D01*
X15634729Y-43982169D01*
X15519744Y-43857262D01*
X15436991Y-43792852D01*
X15396179Y-43736143D01*
X15392504Y-43666370D01*
X15427136Y-43605687D01*
X15436985Y-43597151D01*
X15519744Y-43532738D01*
X15688164Y-43349785D01*
X15824173Y-43141607D01*
X15924063Y-42913881D01*
X15985108Y-42672821D01*
X15990161Y-42611841D01*
X16005643Y-42425005D01*
X16005643Y-42424994D01*
X15985109Y-42177187D01*
X15985107Y-42177175D01*
X15924063Y-41936118D01*
X15824173Y-41708393D01*
X15688166Y-41500217D01*
X15576084Y-41378464D01*
X15519744Y-41317262D01*
X15436991Y-41252852D01*
X15396179Y-41196143D01*
X15392504Y-41126370D01*
X15427136Y-41065687D01*
X15436985Y-41057151D01*
X15519744Y-40992738D01*
X15688164Y-40809785D01*
X15824173Y-40601607D01*
X15924063Y-40373881D01*
X15985108Y-40132821D01*
X16003100Y-39915690D01*
X16005643Y-39885005D01*
X16005643Y-39884994D01*
X15985109Y-39637187D01*
X15985107Y-39637175D01*
X15924063Y-39396118D01*
X15824173Y-39168393D01*
X15688166Y-38960217D01*
X15660792Y-38930481D01*
X15519744Y-38777262D01*
X15436991Y-38712852D01*
X15396179Y-38656143D01*
X15392504Y-38586370D01*
X15427136Y-38525687D01*
X15436985Y-38517151D01*
X15519744Y-38452738D01*
X15688164Y-38269785D01*
X15824173Y-38061607D01*
X15924063Y-37833881D01*
X15985108Y-37592821D01*
X15989792Y-37536293D01*
X16005643Y-37345005D01*
X16005643Y-37344994D01*
X15985109Y-37097187D01*
X15985107Y-37097175D01*
X15924063Y-36856118D01*
X15824173Y-36628393D01*
X15688166Y-36420217D01*
X15660792Y-36390481D01*
X15519744Y-36237262D01*
X15436991Y-36172852D01*
X15396179Y-36116143D01*
X15392504Y-36046370D01*
X15427136Y-35985687D01*
X15436985Y-35977151D01*
X15519744Y-35912738D01*
X15688164Y-35729785D01*
X15824173Y-35521607D01*
X15924063Y-35293881D01*
X15985108Y-35052821D01*
X15994028Y-34945171D01*
X16005643Y-34805005D01*
X16005643Y-34804994D01*
X15985109Y-34557187D01*
X15985107Y-34557175D01*
X15924063Y-34316118D01*
X15824173Y-34088393D01*
X15688166Y-33880217D01*
X15660792Y-33850481D01*
X15519744Y-33697262D01*
X15436991Y-33632852D01*
X15396179Y-33576143D01*
X15392504Y-33506370D01*
X15427136Y-33445687D01*
X15436985Y-33437151D01*
X15519744Y-33372738D01*
X15688164Y-33189785D01*
X15824173Y-32981607D01*
X15924063Y-32753881D01*
X15985108Y-32512821D01*
X15986857Y-32491714D01*
X16005643Y-32265005D01*
X16005643Y-32264994D01*
X15985109Y-32017187D01*
X15985107Y-32017175D01*
X15924063Y-31776118D01*
X15824173Y-31548393D01*
X15688166Y-31340217D01*
X15660792Y-31310481D01*
X15519744Y-31157262D01*
X15436991Y-31092852D01*
X15396179Y-31036143D01*
X15392504Y-30966370D01*
X15427136Y-30905687D01*
X15436985Y-30897151D01*
X15519744Y-30832738D01*
X15688164Y-30649785D01*
X15824173Y-30441607D01*
X15924063Y-30213881D01*
X15985108Y-29972821D01*
X15985413Y-29969139D01*
X16005643Y-29725005D01*
X16005643Y-29724994D01*
X15985109Y-29477187D01*
X15985107Y-29477175D01*
X15924063Y-29236118D01*
X15824173Y-29008393D01*
X15688166Y-28800217D01*
X15660792Y-28770481D01*
X15519744Y-28617262D01*
X15436991Y-28552852D01*
X15396179Y-28496143D01*
X15392504Y-28426370D01*
X15427136Y-28365687D01*
X15436985Y-28357151D01*
X15519744Y-28292738D01*
X15688164Y-28109785D01*
X15824173Y-27901607D01*
X15924063Y-27673881D01*
X15985108Y-27432821D01*
X15990650Y-27365937D01*
X16005643Y-27185005D01*
X16005643Y-27184994D01*
X15985109Y-26937187D01*
X15985107Y-26937175D01*
X15924063Y-26696118D01*
X15824173Y-26468393D01*
X15688166Y-26260217D01*
X15660792Y-26230481D01*
X15519744Y-26077262D01*
X15436991Y-26012852D01*
X15396179Y-25956143D01*
X15392504Y-25886370D01*
X15427136Y-25825687D01*
X15436985Y-25817151D01*
X15519744Y-25752738D01*
X15688164Y-25569785D01*
X15824173Y-25361607D01*
X15924063Y-25133881D01*
X15985108Y-24892821D01*
X15985109Y-24892812D01*
X16005643Y-24645005D01*
X16005643Y-24644994D01*
X15985109Y-24397187D01*
X15985107Y-24397175D01*
X15924063Y-24156118D01*
X15824173Y-23928393D01*
X15688166Y-23720217D01*
X15666557Y-23696744D01*
X15519744Y-23537262D01*
X15436991Y-23472852D01*
X15396179Y-23416143D01*
X15392504Y-23346370D01*
X15427136Y-23285687D01*
X15436985Y-23277151D01*
X15519744Y-23212738D01*
X15688164Y-23029785D01*
X15824173Y-22821607D01*
X15924063Y-22593881D01*
X15985108Y-22352821D01*
X15985109Y-22352812D01*
X16005643Y-22105005D01*
X16005643Y-22104994D01*
X15985109Y-21857187D01*
X15985107Y-21857175D01*
X15924063Y-21616118D01*
X15824173Y-21388393D01*
X15688166Y-21180217D01*
X15567832Y-21049500D01*
X15519744Y-20997262D01*
X15436991Y-20932852D01*
X15396179Y-20876143D01*
X15392504Y-20806370D01*
X15427136Y-20745687D01*
X15436985Y-20737151D01*
X15519744Y-20672738D01*
X15688164Y-20489785D01*
X15824173Y-20281607D01*
X15924063Y-20053881D01*
X15985108Y-19812821D01*
X15985197Y-19811748D01*
X16005643Y-19565005D01*
X16005643Y-19564994D01*
X15985109Y-19317187D01*
X15985107Y-19317175D01*
X15924063Y-19076118D01*
X15824173Y-18848393D01*
X15688166Y-18640217D01*
X15666557Y-18616744D01*
X15519744Y-18457262D01*
X15323509Y-18304526D01*
X15323507Y-18304525D01*
X15323506Y-18304524D01*
X15104811Y-18186172D01*
X15104802Y-18186169D01*
X14869616Y-18105429D01*
X14624335Y-18064500D01*
X14375665Y-18064500D01*
X14130383Y-18105429D01*
X13895197Y-18186169D01*
X13895188Y-18186172D01*
X13676493Y-18304524D01*
X13480257Y-18457261D01*
X13311833Y-18640217D01*
X13175826Y-18848393D01*
X13075936Y-19076118D01*
X13014892Y-19317175D01*
X13014890Y-19317187D01*
X12994357Y-19564994D01*
X9554074Y-19564994D01*
X9542335Y-19556206D01*
X9542328Y-19556202D01*
X9407482Y-19505908D01*
X9407483Y-19505908D01*
X9347883Y-19499501D01*
X9347881Y-19499500D01*
X9347873Y-19499500D01*
X9347864Y-19499500D01*
X4652129Y-19499500D01*
X4652123Y-19499501D01*
X4592516Y-19505908D01*
X4457671Y-19556202D01*
X4457664Y-19556206D01*
X4342455Y-19642452D01*
X4342452Y-19642455D01*
X4256206Y-19757664D01*
X4256202Y-19757671D01*
X4205908Y-19892517D01*
X4199501Y-19952116D01*
X4199501Y-19952123D01*
X4199500Y-19952135D01*
X3500819Y-19952135D01*
X3590568Y-19775992D01*
X3663553Y-19551368D01*
X3674007Y-19485366D01*
X3700500Y-19318097D01*
X3700500Y-16881902D01*
X3663553Y-16648631D01*
X3617275Y-16506204D01*
X3590568Y-16424008D01*
X3590566Y-16424005D01*
X3590566Y-16424003D01*
X3483342Y-16213566D01*
X3454862Y-16174367D01*
X3344517Y-16022490D01*
X3177510Y-15855483D01*
X2986433Y-15716657D01*
X2775996Y-15609433D01*
X2551368Y-15536446D01*
X2318097Y-15499500D01*
X2318092Y-15499500D01*
X2081908Y-15499500D01*
X2081903Y-15499500D01*
X1848631Y-15536446D01*
X1624003Y-15609433D01*
X1413566Y-15716657D01*
X1343260Y-15767738D01*
X1222490Y-15855483D01*
X1222488Y-15855485D01*
X1222487Y-15855485D01*
X1055485Y-16022487D01*
X1055485Y-16022488D01*
X1055483Y-16022490D01*
X1004791Y-16092261D01*
X916657Y-16213566D01*
X809433Y-16424003D01*
X742431Y-16630214D01*
X702993Y-16687889D01*
X638634Y-16715087D01*
X569788Y-16703172D01*
X518312Y-16655928D01*
X500500Y-16591895D01*
X500500Y-10129998D01*
X42969532Y-10129998D01*
X42969532Y-10130001D01*
X42989364Y-10356686D01*
X42989366Y-10356697D01*
X43048258Y-10576488D01*
X43048261Y-10576497D01*
X43144431Y-10782732D01*
X43144432Y-10782734D01*
X43274954Y-10969141D01*
X43435858Y-11130045D01*
X43435861Y-11130047D01*
X43622266Y-11260568D01*
X43828504Y-11356739D01*
X44048308Y-11415635D01*
X44210230Y-11429801D01*
X44274998Y-11435468D01*
X44275000Y-11435468D01*
X44275002Y-11435468D01*
X44331673Y-11430509D01*
X44501692Y-11415635D01*
X44721496Y-11356739D01*
X44927734Y-11260568D01*
X45114139Y-11130047D01*
X45275047Y-10969139D01*
X45405568Y-10782734D01*
X45432618Y-10724724D01*
X45478790Y-10672285D01*
X45545983Y-10653133D01*
X45612865Y-10673348D01*
X45657382Y-10724725D01*
X45684429Y-10782728D01*
X45684432Y-10782734D01*
X45814954Y-10969141D01*
X45975858Y-11130045D01*
X45975861Y-11130047D01*
X46162266Y-11260568D01*
X46368504Y-11356739D01*
X46588308Y-11415635D01*
X46750230Y-11429801D01*
X46814998Y-11435468D01*
X46815000Y-11435468D01*
X46815002Y-11435468D01*
X46871673Y-11430509D01*
X47041692Y-11415635D01*
X47261496Y-11356739D01*
X47467734Y-11260568D01*
X47654139Y-11130047D01*
X47815047Y-10969139D01*
X47945568Y-10782734D01*
X48041739Y-10576496D01*
X48100635Y-10356692D01*
X48117634Y-10162384D01*
X48120468Y-10130001D01*
X48120468Y-10129998D01*
X48107677Y-9983796D01*
X48100635Y-9903308D01*
X48041739Y-9683504D01*
X47945568Y-9477266D01*
X47815047Y-9290861D01*
X47815045Y-9290858D01*
X47654141Y-9129954D01*
X47467734Y-8999432D01*
X47467732Y-8999431D01*
X47261497Y-8903261D01*
X47261488Y-8903258D01*
X47041697Y-8844366D01*
X47041693Y-8844365D01*
X47041692Y-8844365D01*
X47041691Y-8844364D01*
X47041686Y-8844364D01*
X46815002Y-8824532D01*
X46814998Y-8824532D01*
X46588313Y-8844364D01*
X46588302Y-8844366D01*
X46368511Y-8903258D01*
X46368502Y-8903261D01*
X46162267Y-8999431D01*
X46162265Y-8999432D01*
X45975858Y-9129954D01*
X45814954Y-9290858D01*
X45684432Y-9477265D01*
X45684431Y-9477267D01*
X45657382Y-9535275D01*
X45611209Y-9587714D01*
X45544016Y-9606866D01*
X45477135Y-9586650D01*
X45432618Y-9535275D01*
X45405568Y-9477267D01*
X45405567Y-9477265D01*
X45375493Y-9434315D01*
X45275047Y-9290861D01*
X45275045Y-9290858D01*
X45114141Y-9129954D01*
X44927734Y-8999432D01*
X44927732Y-8999431D01*
X44721497Y-8903261D01*
X44721488Y-8903258D01*
X44501697Y-8844366D01*
X44501693Y-8844365D01*
X44501692Y-8844365D01*
X44501691Y-8844364D01*
X44501686Y-8844364D01*
X44275002Y-8824532D01*
X44274998Y-8824532D01*
X44048313Y-8844364D01*
X44048302Y-8844366D01*
X43828511Y-8903258D01*
X43828502Y-8903261D01*
X43622267Y-8999431D01*
X43622265Y-8999432D01*
X43435858Y-9129954D01*
X43274954Y-9290858D01*
X43144432Y-9477265D01*
X43144431Y-9477267D01*
X43048261Y-9683502D01*
X43048258Y-9683511D01*
X42989366Y-9903302D01*
X42989364Y-9903313D01*
X42969532Y-10129998D01*
X500500Y-10129998D01*
X500500Y-6410258D01*
X13169500Y-6410258D01*
X13169500Y-6639741D01*
X13175934Y-6688606D01*
X13199452Y-6867238D01*
X13207214Y-6896206D01*
X13258842Y-7088887D01*
X13346650Y-7300876D01*
X13346657Y-7300890D01*
X13461392Y-7499617D01*
X13601081Y-7681661D01*
X13601089Y-7681670D01*
X13763330Y-7843911D01*
X13763338Y-7843918D01*
X13945382Y-7983607D01*
X13945385Y-7983608D01*
X13945388Y-7983611D01*
X14144112Y-8098344D01*
X14144117Y-8098346D01*
X14144123Y-8098349D01*
X14235480Y-8136190D01*
X14356113Y-8186158D01*
X14577762Y-8245548D01*
X14805266Y-8275500D01*
X14805273Y-8275500D01*
X15034727Y-8275500D01*
X15034734Y-8275500D01*
X15262238Y-8245548D01*
X15483887Y-8186158D01*
X15695888Y-8098344D01*
X15894612Y-7983611D01*
X16076661Y-7843919D01*
X16076665Y-7843914D01*
X16076670Y-7843911D01*
X16238911Y-7681670D01*
X16238914Y-7681665D01*
X16238919Y-7681661D01*
X16378611Y-7499612D01*
X16493344Y-7300888D01*
X16581158Y-7088887D01*
X16640548Y-6867238D01*
X16670500Y-6639734D01*
X16670500Y-6410266D01*
X16670499Y-6410258D01*
X37679500Y-6410258D01*
X37679500Y-6639741D01*
X37685934Y-6688606D01*
X37709452Y-6867238D01*
X37717214Y-6896206D01*
X37768842Y-7088887D01*
X37856650Y-7300876D01*
X37856657Y-7300890D01*
X37971392Y-7499617D01*
X38111081Y-7681661D01*
X38111089Y-7681670D01*
X38273330Y-7843911D01*
X38273338Y-7843918D01*
X38455382Y-7983607D01*
X38455385Y-7983608D01*
X38455388Y-7983611D01*
X38654112Y-8098344D01*
X38654117Y-8098346D01*
X38654123Y-8098349D01*
X38745480Y-8136190D01*
X38866113Y-8186158D01*
X39087762Y-8245548D01*
X39315266Y-8275500D01*
X39315273Y-8275500D01*
X39544727Y-8275500D01*
X39544734Y-8275500D01*
X39772238Y-8245548D01*
X39993887Y-8186158D01*
X40205888Y-8098344D01*
X40404612Y-7983611D01*
X40586661Y-7843919D01*
X40586665Y-7843914D01*
X40586670Y-7843911D01*
X40748911Y-7681670D01*
X40748914Y-7681665D01*
X40748919Y-7681661D01*
X40888611Y-7499612D01*
X41003344Y-7300888D01*
X41006970Y-7292135D01*
X56599500Y-7292135D01*
X56599500Y-9587870D01*
X56599501Y-9587876D01*
X56605908Y-9647483D01*
X56656202Y-9782328D01*
X56656206Y-9782335D01*
X56742452Y-9897544D01*
X56742455Y-9897547D01*
X56857664Y-9983793D01*
X56857671Y-9983797D01*
X56902618Y-10000561D01*
X56992517Y-10034091D01*
X57052127Y-10040500D01*
X57325501Y-10040499D01*
X57392539Y-10060183D01*
X57438294Y-10112987D01*
X57449500Y-10164499D01*
X57449500Y-13673918D01*
X57449500Y-13673920D01*
X57449499Y-13673920D01*
X57478340Y-13818907D01*
X57478343Y-13818917D01*
X57534913Y-13955490D01*
X57534914Y-13955491D01*
X57534916Y-13955495D01*
X57543108Y-13967755D01*
X57543109Y-13967756D01*
X57543110Y-13967759D01*
X57617046Y-14078414D01*
X57617052Y-14078421D01*
X63293000Y-19754367D01*
X63326485Y-19815690D01*
X63323807Y-19878608D01*
X63322577Y-19882593D01*
X63264197Y-20138374D01*
X63264196Y-20138379D01*
X63244592Y-20399995D01*
X63244592Y-20400004D01*
X63264196Y-20661620D01*
X63264197Y-20661625D01*
X63322576Y-20917402D01*
X63322578Y-20917411D01*
X63322580Y-20917416D01*
X63418432Y-21161643D01*
X63549614Y-21388857D01*
X63625741Y-21484317D01*
X63713198Y-21593985D01*
X63894753Y-21762441D01*
X63905521Y-21772433D01*
X64122296Y-21920228D01*
X64122301Y-21920230D01*
X64122302Y-21920231D01*
X64122303Y-21920232D01*
X64247843Y-21980688D01*
X64358673Y-22034061D01*
X64358674Y-22034061D01*
X64358677Y-22034063D01*
X64609385Y-22111396D01*
X64868818Y-22150500D01*
X65131182Y-22150500D01*
X65390615Y-22111396D01*
X65641323Y-22034063D01*
X65877704Y-21920228D01*
X66094479Y-21772433D01*
X66286805Y-21593981D01*
X66450386Y-21388857D01*
X66581568Y-21161643D01*
X66677420Y-20917416D01*
X66735802Y-20661630D01*
X66735803Y-20661620D01*
X66755408Y-20400004D01*
X66755408Y-20399998D01*
X75194390Y-20399998D01*
X75194390Y-20400001D01*
X75214804Y-20685433D01*
X75275628Y-20965037D01*
X75275630Y-20965043D01*
X75275631Y-20965046D01*
X75299789Y-21029815D01*
X75375635Y-21233166D01*
X75512770Y-21484309D01*
X75512775Y-21484317D01*
X75684254Y-21713387D01*
X75684270Y-21713405D01*
X75886594Y-21915729D01*
X75886612Y-21915745D01*
X76115682Y-22087224D01*
X76115690Y-22087229D01*
X76366833Y-22224364D01*
X76366832Y-22224364D01*
X76366836Y-22224365D01*
X76366839Y-22224367D01*
X76634954Y-22324369D01*
X76634960Y-22324370D01*
X76634962Y-22324371D01*
X76914566Y-22385195D01*
X76914568Y-22385195D01*
X76914572Y-22385196D01*
X77168220Y-22403337D01*
X77199999Y-22405610D01*
X77200000Y-22405610D01*
X77200001Y-22405610D01*
X77228595Y-22403564D01*
X77485428Y-22385196D01*
X77612534Y-22357546D01*
X77765037Y-22324371D01*
X77765037Y-22324370D01*
X77765046Y-22324369D01*
X78033161Y-22224367D01*
X78284315Y-22087226D01*
X78513395Y-21915739D01*
X78715739Y-21713395D01*
X78887226Y-21484315D01*
X79024367Y-21233161D01*
X79124369Y-20965046D01*
X79146431Y-20863630D01*
X79185195Y-20685433D01*
X79185195Y-20685432D01*
X79185196Y-20685428D01*
X79205610Y-20400000D01*
X79185196Y-20114572D01*
X79149858Y-19952127D01*
X79124371Y-19834962D01*
X79124370Y-19834960D01*
X79124369Y-19834954D01*
X79024367Y-19566839D01*
X79011706Y-19543653D01*
X78887229Y-19315690D01*
X78887224Y-19315682D01*
X78715745Y-19086612D01*
X78715729Y-19086594D01*
X78513405Y-18884270D01*
X78513387Y-18884254D01*
X78284317Y-18712775D01*
X78284309Y-18712770D01*
X78033166Y-18575635D01*
X78033167Y-18575635D01*
X77925915Y-18535632D01*
X77765046Y-18475631D01*
X77765043Y-18475630D01*
X77765037Y-18475628D01*
X77485433Y-18414804D01*
X77200001Y-18394390D01*
X77199999Y-18394390D01*
X76914566Y-18414804D01*
X76634962Y-18475628D01*
X76366833Y-18575635D01*
X76115690Y-18712770D01*
X76115682Y-18712775D01*
X75886612Y-18884254D01*
X75886594Y-18884270D01*
X75684270Y-19086594D01*
X75684254Y-19086612D01*
X75512775Y-19315682D01*
X75512770Y-19315690D01*
X75375635Y-19566833D01*
X75275628Y-19834962D01*
X75214804Y-20114566D01*
X75194390Y-20399998D01*
X66755408Y-20399998D01*
X66755408Y-20399995D01*
X66735803Y-20138379D01*
X66735802Y-20138374D01*
X66735802Y-20138370D01*
X66677420Y-19882584D01*
X66581568Y-19638357D01*
X66450386Y-19411143D01*
X66286805Y-19206019D01*
X66286804Y-19206018D01*
X66286801Y-19206014D01*
X66094479Y-19027567D01*
X66044940Y-18993792D01*
X65877704Y-18879772D01*
X65877700Y-18879770D01*
X65877697Y-18879768D01*
X65877696Y-18879767D01*
X65641325Y-18765938D01*
X65641327Y-18765938D01*
X65390623Y-18688606D01*
X65390619Y-18688605D01*
X65390615Y-18688604D01*
X65265823Y-18669794D01*
X65131187Y-18649500D01*
X65131182Y-18649500D01*
X64868818Y-18649500D01*
X64868812Y-18649500D01*
X64707247Y-18673853D01*
X64609385Y-18688604D01*
X64609382Y-18688605D01*
X64609372Y-18688607D01*
X64482522Y-18727735D01*
X64412659Y-18728685D01*
X64358292Y-18696925D01*
X61987161Y-16325793D01*
X61953676Y-16264470D01*
X61958660Y-16194778D01*
X62000532Y-16138845D01*
X62065996Y-16114428D01*
X62134269Y-16129280D01*
X62216839Y-16174367D01*
X62484954Y-16274369D01*
X62484960Y-16274370D01*
X62484962Y-16274371D01*
X62764566Y-16335195D01*
X62764568Y-16335195D01*
X62764572Y-16335196D01*
X63018220Y-16353337D01*
X63049999Y-16355610D01*
X63050000Y-16355610D01*
X63050001Y-16355610D01*
X63078595Y-16353564D01*
X63335428Y-16335196D01*
X63615046Y-16274369D01*
X63883161Y-16174367D01*
X64134315Y-16037226D01*
X64363395Y-15865739D01*
X64565739Y-15663395D01*
X64737226Y-15434315D01*
X64874367Y-15183161D01*
X64974369Y-14915046D01*
X65014010Y-14732821D01*
X65029852Y-14659994D01*
X84494357Y-14659994D01*
X84494357Y-14660005D01*
X84514890Y-14907812D01*
X84514892Y-14907824D01*
X84575936Y-15148881D01*
X84675826Y-15376606D01*
X84811833Y-15584782D01*
X84819157Y-15592738D01*
X84980256Y-15767738D01*
X85063008Y-15832147D01*
X85103821Y-15888857D01*
X85107496Y-15958630D01*
X85072864Y-16019313D01*
X85063014Y-16027848D01*
X85004400Y-16073469D01*
X84980257Y-16092261D01*
X84811833Y-16275217D01*
X84675826Y-16483393D01*
X84575936Y-16711118D01*
X84514892Y-16952175D01*
X84514890Y-16952187D01*
X84494357Y-17199994D01*
X84494357Y-17200005D01*
X84514890Y-17447812D01*
X84514892Y-17447824D01*
X84575936Y-17688881D01*
X84675826Y-17916606D01*
X84811833Y-18124782D01*
X84811836Y-18124785D01*
X84980256Y-18307738D01*
X85176491Y-18460474D01*
X85395190Y-18578828D01*
X85630386Y-18659571D01*
X85875665Y-18700500D01*
X86124335Y-18700500D01*
X86369614Y-18659571D01*
X86604810Y-18578828D01*
X86823509Y-18460474D01*
X87019744Y-18307738D01*
X87188164Y-18124785D01*
X87324173Y-17916607D01*
X87424063Y-17688881D01*
X87485108Y-17447821D01*
X87493521Y-17346293D01*
X87505643Y-17200005D01*
X87505643Y-17199994D01*
X87485109Y-16952187D01*
X87485107Y-16952175D01*
X87424063Y-16711118D01*
X87324173Y-16483393D01*
X87188166Y-16275217D01*
X87131412Y-16213566D01*
X87019744Y-16092262D01*
X86936991Y-16027852D01*
X86896179Y-15971143D01*
X86892504Y-15901370D01*
X86927136Y-15840687D01*
X86936985Y-15832151D01*
X87019744Y-15767738D01*
X87188164Y-15584785D01*
X87324173Y-15376607D01*
X87424063Y-15148881D01*
X87485108Y-14907821D01*
X87485109Y-14907812D01*
X87505643Y-14660005D01*
X87505643Y-14659994D01*
X87485109Y-14412187D01*
X87485107Y-14412175D01*
X87424063Y-14171118D01*
X87334860Y-13967758D01*
X87324173Y-13943393D01*
X87193256Y-13743009D01*
X87173070Y-13676122D01*
X87192250Y-13608936D01*
X87237642Y-13566356D01*
X87242323Y-13563798D01*
X87242331Y-13563796D01*
X87357546Y-13477546D01*
X87443796Y-13362331D01*
X87494091Y-13227483D01*
X87500500Y-13167873D01*
X87500499Y-11072128D01*
X87494091Y-11012517D01*
X87443796Y-10877669D01*
X87443795Y-10877668D01*
X87443793Y-10877664D01*
X87357547Y-10762455D01*
X87357544Y-10762452D01*
X87242335Y-10676206D01*
X87242328Y-10676202D01*
X87107482Y-10625908D01*
X87107483Y-10625908D01*
X87047883Y-10619501D01*
X87047881Y-10619500D01*
X87047873Y-10619500D01*
X87047864Y-10619500D01*
X84952129Y-10619500D01*
X84952123Y-10619501D01*
X84892516Y-10625908D01*
X84757671Y-10676202D01*
X84757664Y-10676206D01*
X84642455Y-10762452D01*
X84642452Y-10762455D01*
X84556206Y-10877664D01*
X84556202Y-10877671D01*
X84505908Y-11012517D01*
X84499501Y-11072116D01*
X84499501Y-11072123D01*
X84499500Y-11072135D01*
X84499500Y-13167870D01*
X84499501Y-13167876D01*
X84505908Y-13227483D01*
X84556202Y-13362328D01*
X84556206Y-13362335D01*
X84642452Y-13477544D01*
X84642455Y-13477547D01*
X84757664Y-13563793D01*
X84762361Y-13566358D01*
X84811766Y-13615764D01*
X84826617Y-13684037D01*
X84806742Y-13743011D01*
X84675826Y-13943393D01*
X84575936Y-14171118D01*
X84514892Y-14412175D01*
X84514890Y-14412187D01*
X84494357Y-14659994D01*
X65029852Y-14659994D01*
X65035195Y-14635433D01*
X65035195Y-14635432D01*
X65035196Y-14635428D01*
X65055610Y-14350000D01*
X65035196Y-14064572D01*
X65014135Y-13967758D01*
X64974371Y-13784962D01*
X64974370Y-13784960D01*
X64974369Y-13784954D01*
X64874367Y-13516839D01*
X64852911Y-13477546D01*
X64737229Y-13265690D01*
X64737224Y-13265682D01*
X64565745Y-13036612D01*
X64565729Y-13036594D01*
X64363405Y-12834270D01*
X64363387Y-12834254D01*
X64134317Y-12662775D01*
X64134309Y-12662770D01*
X63883166Y-12525635D01*
X63883167Y-12525635D01*
X63716391Y-12463431D01*
X63615046Y-12425631D01*
X63615043Y-12425630D01*
X63615037Y-12425628D01*
X63335433Y-12364804D01*
X63050001Y-12344390D01*
X63049999Y-12344390D01*
X62764566Y-12364804D01*
X62484962Y-12425628D01*
X62216833Y-12525635D01*
X61965690Y-12662770D01*
X61965682Y-12662775D01*
X61736612Y-12834254D01*
X61736594Y-12834270D01*
X61534270Y-13036594D01*
X61534254Y-13036612D01*
X61362775Y-13265682D01*
X61362770Y-13265690D01*
X61225635Y-13516833D01*
X61125628Y-13784962D01*
X61064804Y-14064566D01*
X61044390Y-14349998D01*
X61044390Y-14350001D01*
X61064804Y-14635433D01*
X61125628Y-14915037D01*
X61125630Y-14915043D01*
X61125631Y-14915046D01*
X61185632Y-15075915D01*
X61225635Y-15183167D01*
X61225638Y-15183173D01*
X61270718Y-15265731D01*
X61285570Y-15334004D01*
X61261153Y-15399468D01*
X61205219Y-15441339D01*
X61135527Y-15446323D01*
X61074206Y-15412838D01*
X58986819Y-13325451D01*
X58953334Y-13264128D01*
X58950500Y-13237770D01*
X58950500Y-10164499D01*
X58970185Y-10097460D01*
X59022989Y-10051705D01*
X59074500Y-10040499D01*
X59347871Y-10040499D01*
X59347872Y-10040499D01*
X59407483Y-10034091D01*
X59542331Y-9983796D01*
X59657546Y-9897546D01*
X59743796Y-9782331D01*
X59794091Y-9647483D01*
X59800500Y-9587873D01*
X59800499Y-8399995D01*
X63244592Y-8399995D01*
X63244592Y-8400004D01*
X63264196Y-8661620D01*
X63264197Y-8661625D01*
X63322576Y-8917402D01*
X63322578Y-8917411D01*
X63322580Y-8917416D01*
X63418432Y-9161643D01*
X63549614Y-9388857D01*
X63620117Y-9477265D01*
X63713198Y-9593985D01*
X63894753Y-9762441D01*
X63905521Y-9772433D01*
X64122296Y-9920228D01*
X64122301Y-9920230D01*
X64122302Y-9920231D01*
X64122303Y-9920232D01*
X64247843Y-9980688D01*
X64358673Y-10034061D01*
X64358674Y-10034061D01*
X64358677Y-10034063D01*
X64609385Y-10111396D01*
X64868818Y-10150500D01*
X65131182Y-10150500D01*
X65390615Y-10111396D01*
X65641323Y-10034063D01*
X65877704Y-9920228D01*
X66094479Y-9772433D01*
X66286805Y-9593981D01*
X66450386Y-9388857D01*
X66581568Y-9161643D01*
X66677420Y-8917416D01*
X66735802Y-8661630D01*
X66755408Y-8400000D01*
X66751661Y-8350001D01*
X66751661Y-8349998D01*
X75244390Y-8349998D01*
X75244390Y-8350001D01*
X75264804Y-8635433D01*
X75325628Y-8915037D01*
X75325630Y-8915043D01*
X75325631Y-8915046D01*
X75405788Y-9129954D01*
X75425635Y-9183166D01*
X75562770Y-9434309D01*
X75562775Y-9434317D01*
X75734254Y-9663387D01*
X75734270Y-9663405D01*
X75936594Y-9865729D01*
X75936612Y-9865745D01*
X76165682Y-10037224D01*
X76165690Y-10037229D01*
X76416833Y-10174364D01*
X76416832Y-10174364D01*
X76416836Y-10174365D01*
X76416839Y-10174367D01*
X76684954Y-10274369D01*
X76684960Y-10274370D01*
X76684962Y-10274371D01*
X76964566Y-10335195D01*
X76964568Y-10335195D01*
X76964572Y-10335196D01*
X77218220Y-10353337D01*
X77249999Y-10355610D01*
X77250000Y-10355610D01*
X77250001Y-10355610D01*
X77278595Y-10353564D01*
X77535428Y-10335196D01*
X77815046Y-10274369D01*
X78083161Y-10174367D01*
X78334315Y-10037226D01*
X78563395Y-9865739D01*
X78765739Y-9663395D01*
X78937226Y-9434315D01*
X79074367Y-9183161D01*
X79174369Y-8915046D01*
X79176933Y-8903258D01*
X79235195Y-8635433D01*
X79235195Y-8635432D01*
X79235196Y-8635428D01*
X79255610Y-8350000D01*
X79235196Y-8064572D01*
X79187194Y-7843911D01*
X79174371Y-7784962D01*
X79174370Y-7784960D01*
X79174369Y-7784954D01*
X79074367Y-7516839D01*
X79064960Y-7499612D01*
X78937229Y-7265690D01*
X78937224Y-7265682D01*
X78765745Y-7036612D01*
X78765729Y-7036594D01*
X78563405Y-6834270D01*
X78563387Y-6834254D01*
X78334317Y-6662775D01*
X78334309Y-6662770D01*
X78083166Y-6525635D01*
X78083167Y-6525635D01*
X77958790Y-6479245D01*
X77815046Y-6425631D01*
X77815043Y-6425630D01*
X77815037Y-6425628D01*
X77535433Y-6364804D01*
X77250001Y-6344390D01*
X77249999Y-6344390D01*
X76964566Y-6364804D01*
X76684962Y-6425628D01*
X76416833Y-6525635D01*
X76165690Y-6662770D01*
X76165682Y-6662775D01*
X75936612Y-6834254D01*
X75936594Y-6834270D01*
X75734270Y-7036594D01*
X75734254Y-7036612D01*
X75562775Y-7265682D01*
X75562770Y-7265690D01*
X75425635Y-7516833D01*
X75325628Y-7784962D01*
X75264804Y-8064566D01*
X75244390Y-8349998D01*
X66751661Y-8349998D01*
X66735803Y-8138379D01*
X66735802Y-8138374D01*
X66735802Y-8138370D01*
X66677420Y-7882584D01*
X66581568Y-7638357D01*
X66450386Y-7411143D01*
X66286805Y-7206019D01*
X66286804Y-7206018D01*
X66286801Y-7206014D01*
X66094479Y-7027567D01*
X66028312Y-6982455D01*
X65877704Y-6879772D01*
X65877700Y-6879770D01*
X65877697Y-6879768D01*
X65877696Y-6879767D01*
X65641325Y-6765938D01*
X65641327Y-6765938D01*
X65390623Y-6688606D01*
X65390619Y-6688605D01*
X65390615Y-6688604D01*
X65265823Y-6669794D01*
X65131187Y-6649500D01*
X65131182Y-6649500D01*
X64868818Y-6649500D01*
X64868812Y-6649500D01*
X64707247Y-6673853D01*
X64609385Y-6688604D01*
X64609382Y-6688605D01*
X64609376Y-6688606D01*
X64358673Y-6765938D01*
X64122303Y-6879767D01*
X64122302Y-6879768D01*
X63905520Y-7027567D01*
X63713198Y-7206014D01*
X63549614Y-7411143D01*
X63418432Y-7638356D01*
X63322582Y-7882578D01*
X63322576Y-7882597D01*
X63264197Y-8138374D01*
X63264196Y-8138379D01*
X63244592Y-8399995D01*
X59800499Y-8399995D01*
X59800499Y-7292128D01*
X59794091Y-7232517D01*
X59743796Y-7097669D01*
X59743795Y-7097668D01*
X59743793Y-7097664D01*
X59657547Y-6982455D01*
X59657544Y-6982452D01*
X59542335Y-6896206D01*
X59542328Y-6896202D01*
X59407482Y-6845908D01*
X59407483Y-6845908D01*
X59347883Y-6839501D01*
X59347881Y-6839500D01*
X59347873Y-6839500D01*
X59347864Y-6839500D01*
X57052129Y-6839500D01*
X57052123Y-6839501D01*
X56992516Y-6845908D01*
X56857671Y-6896202D01*
X56857664Y-6896206D01*
X56742455Y-6982452D01*
X56742452Y-6982455D01*
X56656206Y-7097664D01*
X56656202Y-7097671D01*
X56605908Y-7232517D01*
X56602342Y-7265690D01*
X56599501Y-7292123D01*
X56599500Y-7292135D01*
X41006970Y-7292135D01*
X41091158Y-7088887D01*
X41150548Y-6867238D01*
X41180500Y-6639734D01*
X41180500Y-6410266D01*
X41150548Y-6182762D01*
X41091158Y-5961113D01*
X41003344Y-5749112D01*
X40888611Y-5550388D01*
X40888608Y-5550385D01*
X40888607Y-5550382D01*
X40773213Y-5399999D01*
X44174357Y-5399999D01*
X44174357Y-5400000D01*
X44194884Y-5621535D01*
X44194885Y-5621537D01*
X44255769Y-5835523D01*
X44255775Y-5835538D01*
X44354938Y-6034683D01*
X44354943Y-6034691D01*
X44489020Y-6212238D01*
X44653437Y-6362123D01*
X44653439Y-6362125D01*
X44842595Y-6479245D01*
X44842596Y-6479245D01*
X44842599Y-6479247D01*
X45050060Y-6559618D01*
X45268757Y-6600500D01*
X45268759Y-6600500D01*
X45491241Y-6600500D01*
X45491243Y-6600500D01*
X45709940Y-6559618D01*
X45917401Y-6479247D01*
X46106562Y-6362124D01*
X46270981Y-6212236D01*
X46405058Y-6034689D01*
X46504229Y-5835528D01*
X46565115Y-5621536D01*
X46585643Y-5400000D01*
X46585643Y-5399999D01*
X51794357Y-5399999D01*
X51794357Y-5400000D01*
X51814884Y-5621535D01*
X51814885Y-5621537D01*
X51875769Y-5835523D01*
X51875775Y-5835538D01*
X51974938Y-6034683D01*
X51974943Y-6034691D01*
X52109020Y-6212238D01*
X52273437Y-6362123D01*
X52273439Y-6362125D01*
X52462595Y-6479245D01*
X52462596Y-6479245D01*
X52462599Y-6479247D01*
X52670060Y-6559618D01*
X52888757Y-6600500D01*
X52888759Y-6600500D01*
X53111241Y-6600500D01*
X53111243Y-6600500D01*
X53329940Y-6559618D01*
X53537401Y-6479247D01*
X53726562Y-6362124D01*
X53890981Y-6212236D01*
X54025058Y-6034689D01*
X54124229Y-5835528D01*
X54185115Y-5621536D01*
X54205643Y-5400000D01*
X54185115Y-5178464D01*
X54124229Y-4964472D01*
X54117848Y-4951657D01*
X54025061Y-4765316D01*
X54025056Y-4765308D01*
X53890979Y-4587761D01*
X53726562Y-4437876D01*
X53726560Y-4437874D01*
X53537404Y-4320754D01*
X53537398Y-4320752D01*
X53329940Y-4240382D01*
X53111243Y-4199500D01*
X52888757Y-4199500D01*
X52670060Y-4240382D01*
X52538864Y-4291207D01*
X52462601Y-4320752D01*
X52462595Y-4320754D01*
X52273439Y-4437874D01*
X52273437Y-4437876D01*
X52109020Y-4587761D01*
X51974943Y-4765308D01*
X51974938Y-4765316D01*
X51875775Y-4964461D01*
X51875769Y-4964476D01*
X51814885Y-5178462D01*
X51814884Y-5178464D01*
X51794357Y-5399999D01*
X46585643Y-5399999D01*
X46565115Y-5178464D01*
X46504229Y-4964472D01*
X46497848Y-4951657D01*
X46405061Y-4765316D01*
X46405056Y-4765308D01*
X46270979Y-4587761D01*
X46106562Y-4437876D01*
X46106560Y-4437874D01*
X45917404Y-4320754D01*
X45917398Y-4320752D01*
X45709940Y-4240382D01*
X45491243Y-4199500D01*
X45268757Y-4199500D01*
X45050060Y-4240382D01*
X44918864Y-4291207D01*
X44842601Y-4320752D01*
X44842595Y-4320754D01*
X44653439Y-4437874D01*
X44653437Y-4437876D01*
X44489020Y-4587761D01*
X44354943Y-4765308D01*
X44354938Y-4765316D01*
X44255775Y-4964461D01*
X44255769Y-4964476D01*
X44194885Y-5178462D01*
X44194884Y-5178464D01*
X44174357Y-5399999D01*
X40773213Y-5399999D01*
X40748918Y-5368338D01*
X40748911Y-5368330D01*
X40586670Y-5206089D01*
X40586661Y-5206081D01*
X40404617Y-5066392D01*
X40205890Y-4951657D01*
X40205876Y-4951650D01*
X39993887Y-4863842D01*
X39772238Y-4804452D01*
X39734215Y-4799446D01*
X39544741Y-4774500D01*
X39544734Y-4774500D01*
X39315266Y-4774500D01*
X39315258Y-4774500D01*
X39098715Y-4803009D01*
X39087762Y-4804452D01*
X38994076Y-4829554D01*
X38866112Y-4863842D01*
X38654123Y-4951650D01*
X38654109Y-4951657D01*
X38455382Y-5066392D01*
X38273338Y-5206081D01*
X38111081Y-5368338D01*
X37971392Y-5550382D01*
X37856657Y-5749109D01*
X37856650Y-5749123D01*
X37768842Y-5961112D01*
X37709453Y-6182759D01*
X37709451Y-6182770D01*
X37679500Y-6410258D01*
X16670499Y-6410258D01*
X16640548Y-6182762D01*
X16581158Y-5961113D01*
X16493344Y-5749112D01*
X16378611Y-5550388D01*
X16378608Y-5550385D01*
X16378607Y-5550382D01*
X16238918Y-5368338D01*
X16238911Y-5368330D01*
X16076670Y-5206089D01*
X16076661Y-5206081D01*
X15894617Y-5066392D01*
X15695890Y-4951657D01*
X15695876Y-4951650D01*
X15483887Y-4863842D01*
X15262238Y-4804452D01*
X15224215Y-4799446D01*
X15034741Y-4774500D01*
X15034734Y-4774500D01*
X14805266Y-4774500D01*
X14805258Y-4774500D01*
X14588715Y-4803009D01*
X14577762Y-4804452D01*
X14484076Y-4829554D01*
X14356112Y-4863842D01*
X14144123Y-4951650D01*
X14144109Y-4951657D01*
X13945382Y-5066392D01*
X13763338Y-5206081D01*
X13601081Y-5368338D01*
X13461392Y-5550382D01*
X13346657Y-5749109D01*
X13346650Y-5749123D01*
X13258842Y-5961112D01*
X13199453Y-6182759D01*
X13199451Y-6182770D01*
X13169500Y-6410258D01*
X500500Y-6410258D01*
X500500Y-624500D01*
X520185Y-557461D01*
X572989Y-511706D01*
X624500Y-500500D01*
X89375500Y-500500D01*
X89442539Y-520185D01*
G37*
%TD.AperFunction*%
%TA.AperFunction,Conductor*%
G36*
X46400945Y-22435967D02*
G01*
X48913181Y-24948203D01*
X48946666Y-25009526D01*
X48949500Y-25035884D01*
X48949500Y-36947769D01*
X48929815Y-37014808D01*
X48913181Y-37035450D01*
X45585450Y-40363181D01*
X45524127Y-40396666D01*
X45497769Y-40399500D01*
X45298757Y-40399500D01*
X45080060Y-40440382D01*
X44981421Y-40478595D01*
X44872601Y-40520752D01*
X44872595Y-40520754D01*
X44683439Y-40637874D01*
X44683437Y-40637876D01*
X44519020Y-40787762D01*
X44395689Y-40951078D01*
X44339580Y-40992714D01*
X44269868Y-40997405D01*
X44209054Y-40964032D01*
X42786819Y-39541797D01*
X42753334Y-39480474D01*
X42750500Y-39454116D01*
X42750500Y-37727019D01*
X42770185Y-37659980D01*
X42822989Y-37614225D01*
X42892147Y-37604281D01*
X42955703Y-37633306D01*
X42990682Y-37683686D01*
X43031202Y-37792328D01*
X43031206Y-37792335D01*
X43117452Y-37907544D01*
X43117455Y-37907547D01*
X43232664Y-37993793D01*
X43232671Y-37993797D01*
X43367517Y-38044091D01*
X43367516Y-38044091D01*
X43374444Y-38044835D01*
X43427127Y-38050500D01*
X45122872Y-38050499D01*
X45182483Y-38044091D01*
X45317331Y-37993796D01*
X45432546Y-37907546D01*
X45518796Y-37792331D01*
X45569091Y-37657483D01*
X45575500Y-37597873D01*
X45575499Y-35902128D01*
X45569091Y-35842517D01*
X45565320Y-35832407D01*
X45518797Y-35707671D01*
X45518793Y-35707664D01*
X45432547Y-35592455D01*
X45432544Y-35592452D01*
X45317335Y-35506206D01*
X45317328Y-35506202D01*
X45182482Y-35455908D01*
X45182483Y-35455908D01*
X45122883Y-35449501D01*
X45122881Y-35449500D01*
X45122873Y-35449500D01*
X45122864Y-35449500D01*
X43427129Y-35449500D01*
X43427123Y-35449501D01*
X43367516Y-35455908D01*
X43232671Y-35506202D01*
X43232664Y-35506206D01*
X43117455Y-35592452D01*
X43117452Y-35592455D01*
X43031206Y-35707664D01*
X43031202Y-35707671D01*
X42990682Y-35816313D01*
X42948811Y-35872247D01*
X42883347Y-35896664D01*
X42815074Y-35881812D01*
X42765668Y-35832407D01*
X42750500Y-35772980D01*
X42750500Y-29407109D01*
X42770185Y-29340070D01*
X42822989Y-29294315D01*
X42892147Y-29284371D01*
X42955703Y-29313396D01*
X42993477Y-29372174D01*
X42994275Y-29375016D01*
X43048258Y-29576488D01*
X43048261Y-29576497D01*
X43144431Y-29782732D01*
X43144432Y-29782734D01*
X43274954Y-29969141D01*
X43435858Y-30130045D01*
X43435861Y-30130047D01*
X43622266Y-30260568D01*
X43828504Y-30356739D01*
X44048308Y-30415635D01*
X44210230Y-30429801D01*
X44274998Y-30435468D01*
X44275000Y-30435468D01*
X44275002Y-30435468D01*
X44331673Y-30430509D01*
X44501692Y-30415635D01*
X44721496Y-30356739D01*
X44927734Y-30260568D01*
X45114139Y-30130047D01*
X45275047Y-29969139D01*
X45405568Y-29782734D01*
X45432618Y-29724724D01*
X45478790Y-29672285D01*
X45545983Y-29653133D01*
X45612865Y-29673348D01*
X45657381Y-29724724D01*
X45671517Y-29755038D01*
X45684429Y-29782728D01*
X45684432Y-29782734D01*
X45814954Y-29969141D01*
X45975858Y-30130045D01*
X45975861Y-30130047D01*
X46162266Y-30260568D01*
X46368504Y-30356739D01*
X46588308Y-30415635D01*
X46750230Y-30429801D01*
X46814998Y-30435468D01*
X46815000Y-30435468D01*
X46815002Y-30435468D01*
X46871673Y-30430509D01*
X47041692Y-30415635D01*
X47261496Y-30356739D01*
X47467734Y-30260568D01*
X47654139Y-30130047D01*
X47815047Y-29969139D01*
X47945568Y-29782734D01*
X48041739Y-29576496D01*
X48100635Y-29356692D01*
X48120468Y-29130000D01*
X48100635Y-28903308D01*
X48041739Y-28683504D01*
X47945568Y-28477266D01*
X47825049Y-28305145D01*
X47815045Y-28290858D01*
X47654141Y-28129954D01*
X47467734Y-27999432D01*
X47467732Y-27999431D01*
X47261497Y-27903261D01*
X47261488Y-27903258D01*
X47041697Y-27844366D01*
X47041693Y-27844365D01*
X47041692Y-27844365D01*
X47041691Y-27844364D01*
X47041686Y-27844364D01*
X46815002Y-27824532D01*
X46814998Y-27824532D01*
X46588313Y-27844364D01*
X46588302Y-27844366D01*
X46368511Y-27903258D01*
X46368502Y-27903261D01*
X46162267Y-27999431D01*
X46162265Y-27999432D01*
X45975858Y-28129954D01*
X45814954Y-28290858D01*
X45684432Y-28477265D01*
X45684431Y-28477267D01*
X45657382Y-28535275D01*
X45611209Y-28587714D01*
X45544016Y-28606866D01*
X45477135Y-28586650D01*
X45432618Y-28535275D01*
X45405568Y-28477266D01*
X45285049Y-28305145D01*
X45275045Y-28290858D01*
X45114141Y-28129954D01*
X44927734Y-27999432D01*
X44927732Y-27999431D01*
X44721497Y-27903261D01*
X44721488Y-27903258D01*
X44501697Y-27844366D01*
X44501693Y-27844365D01*
X44501692Y-27844365D01*
X44501691Y-27844364D01*
X44501686Y-27844364D01*
X44275002Y-27824532D01*
X44274998Y-27824532D01*
X44048313Y-27844364D01*
X44048302Y-27844366D01*
X43828511Y-27903258D01*
X43828502Y-27903261D01*
X43622267Y-27999431D01*
X43622265Y-27999432D01*
X43435858Y-28129954D01*
X43274954Y-28290858D01*
X43144432Y-28477265D01*
X43144431Y-28477267D01*
X43048261Y-28683502D01*
X43048258Y-28683511D01*
X42994275Y-28884983D01*
X42957910Y-28944644D01*
X42895063Y-28975173D01*
X42825688Y-28966878D01*
X42771810Y-28922393D01*
X42750535Y-28855841D01*
X42750500Y-28852890D01*
X42750500Y-25126080D01*
X42742083Y-25083769D01*
X42742083Y-25083767D01*
X42725421Y-24999999D01*
X44004357Y-24999999D01*
X44004357Y-25000000D01*
X44024884Y-25221535D01*
X44024885Y-25221537D01*
X44085769Y-25435523D01*
X44085775Y-25435538D01*
X44184938Y-25634683D01*
X44184943Y-25634691D01*
X44319020Y-25812238D01*
X44483437Y-25962123D01*
X44483439Y-25962125D01*
X44672595Y-26079245D01*
X44672596Y-26079245D01*
X44672599Y-26079247D01*
X44880060Y-26159618D01*
X45098757Y-26200500D01*
X45098759Y-26200500D01*
X45321241Y-26200500D01*
X45321243Y-26200500D01*
X45539940Y-26159618D01*
X45747401Y-26079247D01*
X45936562Y-25962124D01*
X46100981Y-25812236D01*
X46235058Y-25634689D01*
X46334229Y-25435528D01*
X46395115Y-25221536D01*
X46415643Y-25000000D01*
X46395115Y-24778464D01*
X46334229Y-24564472D01*
X46279592Y-24454746D01*
X46235061Y-24365316D01*
X46235056Y-24365308D01*
X46100979Y-24187761D01*
X45936562Y-24037876D01*
X45936560Y-24037874D01*
X45747404Y-23920754D01*
X45747398Y-23920752D01*
X45539940Y-23840382D01*
X45321243Y-23799500D01*
X45098757Y-23799500D01*
X44880060Y-23840382D01*
X44748864Y-23891207D01*
X44672601Y-23920752D01*
X44672595Y-23920754D01*
X44483439Y-24037874D01*
X44483437Y-24037876D01*
X44319020Y-24187761D01*
X44184943Y-24365308D01*
X44184938Y-24365316D01*
X44085775Y-24564461D01*
X44085769Y-24564476D01*
X44024885Y-24778462D01*
X44024884Y-24778464D01*
X44004357Y-24999999D01*
X42725421Y-24999999D01*
X42721659Y-24981088D01*
X42673123Y-24863913D01*
X42673123Y-24863912D01*
X42665087Y-24844510D01*
X42665080Y-24844499D01*
X42610205Y-24762373D01*
X42582952Y-24721585D01*
X42425828Y-24564461D01*
X41923421Y-24062052D01*
X41923414Y-24062046D01*
X41831816Y-24000843D01*
X41831815Y-24000843D01*
X41800500Y-23979919D01*
X41800488Y-23979912D01*
X41663917Y-23923343D01*
X41663907Y-23923340D01*
X41518920Y-23894500D01*
X41518918Y-23894500D01*
X41269136Y-23894500D01*
X41202097Y-23874815D01*
X41165327Y-23838322D01*
X41139963Y-23799500D01*
X41088164Y-23720215D01*
X40919744Y-23537262D01*
X40836991Y-23472852D01*
X40796179Y-23416143D01*
X40792504Y-23346370D01*
X40827136Y-23285687D01*
X40836985Y-23277151D01*
X40919744Y-23212738D01*
X41088164Y-23029785D01*
X41224173Y-22821607D01*
X41310549Y-22624690D01*
X41355505Y-22571204D01*
X41422241Y-22550514D01*
X41424105Y-22550500D01*
X44200653Y-22550500D01*
X44267692Y-22570185D01*
X44299606Y-22599771D01*
X44309021Y-22612239D01*
X44473437Y-22762123D01*
X44473439Y-22762125D01*
X44662595Y-22879245D01*
X44662596Y-22879245D01*
X44662599Y-22879247D01*
X44870060Y-22959618D01*
X45088757Y-23000500D01*
X45088759Y-23000500D01*
X45311241Y-23000500D01*
X45311243Y-23000500D01*
X45529940Y-22959618D01*
X45737401Y-22879247D01*
X45926562Y-22762124D01*
X46090981Y-22612236D01*
X46214310Y-22448922D01*
X46270419Y-22407285D01*
X46340130Y-22402593D01*
X46400945Y-22435967D01*
G37*
%TD.AperFunction*%
%TD*%
M02*
