M48
; DRILL file {KiCad 8.0.4+dfsg-1} date 2024-09-04T10:53:20-0500
; FORMAT={-:-/ absolute / inch / decimal}
; #@! TF.CreationDate,2024-09-04T10:53:20-05:00
; #@! TF.GenerationSoftware,Kicad,Pcbnew,8.0.4+dfsg-1
; #@! TF.FileFunction,Plated,1,2,PTH
FMAT,2
INCH
; #@! TA.AperFunction,Plated,PTH,ComponentDrill
T1C0.0276
; #@! TA.AperFunction,Plated,PTH,ComponentDrill
T2C0.0315
; #@! TA.AperFunction,Plated,PTH,ComponentDrill
T3C0.0394
; #@! TA.AperFunction,Plated,PTH,ComponentDrill
T4C0.0402
; #@! TA.AperFunction,Plated,PTH,ComponentDrill
T5C0.0433
; #@! TA.AperFunction,Plated,PTH,ComponentDrill
T6C0.0472
; #@! TA.AperFunction,Plated,PTH,ComponentDrill
T7C0.0512
; #@! TA.AperFunction,Plated,PTH,ComponentDrill
T8C0.0866
%
G90
G05
T1
X1.7795Y-0.8583
X1.7799Y-0.9843
X1.7866Y-0.2126
X1.7878Y-1.6378
X2.0795Y-0.8583
X2.0799Y-0.9843
X2.0866Y-0.2126
X2.0878Y-1.6378
T2
X1.7431Y-0.3988
X1.7431Y-0.6988
X1.7431Y-1.1469
X1.7431Y-1.4469
X1.8431Y-0.3988
X1.8431Y-0.6988
X1.8431Y-1.1469
X1.8431Y-1.4469
T3
X0.2441Y-1.0677
X0.2441Y-1.1677
X0.2441Y-1.2677
X0.2441Y-1.6583
X0.2441Y-1.7583
X0.2441Y-1.8583
X2.5591Y-0.3307
X2.5591Y-0.8031
X2.5591Y-1.1417
X2.5591Y-1.6142
X3.126Y-1.8449
X3.126Y-1.9449
X3.126Y-2.0449
X3.126Y-2.1449
X3.126Y-2.2449
T4
X0.5709Y-0.5703
X0.5709Y-0.6703
X0.5709Y-0.7703
X0.5709Y-0.8703
X0.5709Y-0.9703
X0.5709Y-1.0703
X0.5709Y-1.1703
X0.5709Y-1.2703
X0.5709Y-1.3703
X0.5709Y-1.4703
X0.5709Y-1.5703
X0.5709Y-1.6703
X0.5709Y-1.7703
X0.5709Y-1.8703
X0.5709Y-1.9703
X1.5709Y-0.5703
X1.5709Y-0.6703
X1.5709Y-0.7703
X1.5709Y-0.8703
X1.5709Y-0.9703
X1.5709Y-1.0703
X1.5709Y-1.1703
X1.5709Y-1.2703
X1.5709Y-1.3703
X1.5709Y-1.4703
X1.5709Y-1.5703
X1.5709Y-1.6703
X1.5709Y-1.7703
X1.5709Y-1.8703
X1.5709Y-1.9703
T5
X2.1002Y-1.2228
X2.1002Y-1.3228
X2.1002Y-1.4228
X2.1083Y-0.428
X2.1083Y-0.528
X2.1083Y-0.628
X2.2913Y-0.3323
X2.2913Y-0.7323
X2.3228Y-1.1654
X2.3228Y-1.5654
T6
X3.3858Y-0.4772
X3.3858Y-0.5772
X3.3858Y-0.6772
X3.3858Y-1.2937
X3.3858Y-1.3937
X3.3858Y-1.4937
T7
X2.4823Y-0.565
X2.4823Y-1.376
X3.0394Y-0.8031
X3.0394Y-1.6142
X3.0413Y-0.3287
X3.0413Y-1.1398
T8
X0.1181Y-2.2047
X0.1339Y-0.1575
X3.4173Y-0.1654
X3.4252Y-2.1969
X3.4252Y-2.1969
X3.4252Y-2.1969
X3.4252Y-2.1969
T3
G00X0.0866Y-0.7559
M15
G01X0.0866Y-0.6693
M16
G05
G00X0.3189Y-0.5787
M15
G01X0.2323Y-0.5787
M16
G05
G00X0.3268Y-0.8268
M15
G01X0.2244Y-0.8268
M16
G05
M30
