%TF.GenerationSoftware,KiCad,Pcbnew,8.0.4+dfsg-1*%
%TF.CreationDate,2024-09-04T10:49:28-05:00*%
%TF.ProjectId,GreenHouse_automation,47726565-6e48-46f7-9573-655f6175746f,rev?*%
%TF.SameCoordinates,Original*%
%TF.FileFunction,Legend,Top*%
%TF.FilePolarity,Positive*%
%FSLAX46Y46*%
G04 Gerber Fmt 4.6, Leading zero omitted, Abs format (unit mm)*
G04 Created by KiCad (PCBNEW 8.0.4+dfsg-1) date 2024-09-04 10:49:28*
%MOMM*%
%LPD*%
G01*
G04 APERTURE LIST*
%ADD10C,0.250000*%
%ADD11C,0.300000*%
%ADD12C,0.150000*%
%ADD13C,0.120000*%
%ADD14C,0.127000*%
%ADD15C,0.200000*%
G04 APERTURE END LIST*
D10*
X88664619Y-30397431D02*
X87664619Y-30397431D01*
X87664619Y-30397431D02*
X88664619Y-29826003D01*
X88664619Y-29826003D02*
X87664619Y-29826003D01*
X88569380Y-29349812D02*
X88617000Y-29302193D01*
X88617000Y-29302193D02*
X88664619Y-29349812D01*
X88664619Y-29349812D02*
X88617000Y-29397431D01*
X88617000Y-29397431D02*
X88569380Y-29349812D01*
X88569380Y-29349812D02*
X88664619Y-29349812D01*
X88569380Y-28302194D02*
X88617000Y-28349813D01*
X88617000Y-28349813D02*
X88664619Y-28492670D01*
X88664619Y-28492670D02*
X88664619Y-28587908D01*
X88664619Y-28587908D02*
X88617000Y-28730765D01*
X88617000Y-28730765D02*
X88521761Y-28826003D01*
X88521761Y-28826003D02*
X88426523Y-28873622D01*
X88426523Y-28873622D02*
X88236047Y-28921241D01*
X88236047Y-28921241D02*
X88093190Y-28921241D01*
X88093190Y-28921241D02*
X87902714Y-28873622D01*
X87902714Y-28873622D02*
X87807476Y-28826003D01*
X87807476Y-28826003D02*
X87712238Y-28730765D01*
X87712238Y-28730765D02*
X87664619Y-28587908D01*
X87664619Y-28587908D02*
X87664619Y-28492670D01*
X87664619Y-28492670D02*
X87712238Y-28349813D01*
X87712238Y-28349813D02*
X87759857Y-28302194D01*
X88664619Y-9397431D02*
X87664619Y-9397431D01*
X87664619Y-9397431D02*
X88664619Y-8826003D01*
X88664619Y-8826003D02*
X87664619Y-8826003D01*
X88569380Y-8349812D02*
X88617000Y-8302193D01*
X88617000Y-8302193D02*
X88664619Y-8349812D01*
X88664619Y-8349812D02*
X88617000Y-8397431D01*
X88617000Y-8397431D02*
X88569380Y-8349812D01*
X88569380Y-8349812D02*
X88664619Y-8349812D01*
X88569380Y-7302194D02*
X88617000Y-7349813D01*
X88617000Y-7349813D02*
X88664619Y-7492670D01*
X88664619Y-7492670D02*
X88664619Y-7587908D01*
X88664619Y-7587908D02*
X88617000Y-7730765D01*
X88617000Y-7730765D02*
X88521761Y-7826003D01*
X88521761Y-7826003D02*
X88426523Y-7873622D01*
X88426523Y-7873622D02*
X88236047Y-7921241D01*
X88236047Y-7921241D02*
X88093190Y-7921241D01*
X88093190Y-7921241D02*
X87902714Y-7873622D01*
X87902714Y-7873622D02*
X87807476Y-7826003D01*
X87807476Y-7826003D02*
X87712238Y-7730765D01*
X87712238Y-7730765D02*
X87664619Y-7587908D01*
X87664619Y-7587908D02*
X87664619Y-7492670D01*
X87664619Y-7492670D02*
X87712238Y-7349813D01*
X87712238Y-7349813D02*
X87759857Y-7302194D01*
X88464619Y-22197431D02*
X87464619Y-22197431D01*
X87464619Y-22197431D02*
X88464619Y-21626003D01*
X88464619Y-21626003D02*
X87464619Y-21626003D01*
X88369380Y-21149812D02*
X88417000Y-21102193D01*
X88417000Y-21102193D02*
X88464619Y-21149812D01*
X88464619Y-21149812D02*
X88417000Y-21197431D01*
X88417000Y-21197431D02*
X88369380Y-21149812D01*
X88369380Y-21149812D02*
X88464619Y-21149812D01*
X87464619Y-20483146D02*
X87464619Y-20292670D01*
X87464619Y-20292670D02*
X87512238Y-20197432D01*
X87512238Y-20197432D02*
X87607476Y-20102194D01*
X87607476Y-20102194D02*
X87797952Y-20054575D01*
X87797952Y-20054575D02*
X88131285Y-20054575D01*
X88131285Y-20054575D02*
X88321761Y-20102194D01*
X88321761Y-20102194D02*
X88417000Y-20197432D01*
X88417000Y-20197432D02*
X88464619Y-20292670D01*
X88464619Y-20292670D02*
X88464619Y-20483146D01*
X88464619Y-20483146D02*
X88417000Y-20578384D01*
X88417000Y-20578384D02*
X88321761Y-20673622D01*
X88321761Y-20673622D02*
X88131285Y-20721241D01*
X88131285Y-20721241D02*
X87797952Y-20721241D01*
X87797952Y-20721241D02*
X87607476Y-20673622D01*
X87607476Y-20673622D02*
X87512238Y-20578384D01*
X87512238Y-20578384D02*
X87464619Y-20483146D01*
D11*
X25954510Y-58400828D02*
X25954510Y-56900828D01*
X26668796Y-58400828D02*
X26668796Y-56900828D01*
X26668796Y-56900828D02*
X27525939Y-58400828D01*
X27525939Y-58400828D02*
X27525939Y-56900828D01*
X29025940Y-56972257D02*
X28883083Y-56900828D01*
X28883083Y-56900828D02*
X28668797Y-56900828D01*
X28668797Y-56900828D02*
X28454511Y-56972257D01*
X28454511Y-56972257D02*
X28311654Y-57115114D01*
X28311654Y-57115114D02*
X28240225Y-57257971D01*
X28240225Y-57257971D02*
X28168797Y-57543685D01*
X28168797Y-57543685D02*
X28168797Y-57757971D01*
X28168797Y-57757971D02*
X28240225Y-58043685D01*
X28240225Y-58043685D02*
X28311654Y-58186542D01*
X28311654Y-58186542D02*
X28454511Y-58329400D01*
X28454511Y-58329400D02*
X28668797Y-58400828D01*
X28668797Y-58400828D02*
X28811654Y-58400828D01*
X28811654Y-58400828D02*
X29025940Y-58329400D01*
X29025940Y-58329400D02*
X29097368Y-58257971D01*
X29097368Y-58257971D02*
X29097368Y-57757971D01*
X29097368Y-57757971D02*
X28811654Y-57757971D01*
X29740225Y-58257971D02*
X29811654Y-58329400D01*
X29811654Y-58329400D02*
X29740225Y-58400828D01*
X29740225Y-58400828D02*
X29668797Y-58329400D01*
X29668797Y-58329400D02*
X29740225Y-58257971D01*
X29740225Y-58257971D02*
X29740225Y-58400828D01*
X32025940Y-56900828D02*
X32025940Y-57972257D01*
X32025940Y-57972257D02*
X31954511Y-58186542D01*
X31954511Y-58186542D02*
X31811654Y-58329400D01*
X31811654Y-58329400D02*
X31597368Y-58400828D01*
X31597368Y-58400828D02*
X31454511Y-58400828D01*
X33383083Y-57400828D02*
X33383083Y-58400828D01*
X32740225Y-57400828D02*
X32740225Y-58186542D01*
X32740225Y-58186542D02*
X32811654Y-58329400D01*
X32811654Y-58329400D02*
X32954511Y-58400828D01*
X32954511Y-58400828D02*
X33168797Y-58400828D01*
X33168797Y-58400828D02*
X33311654Y-58329400D01*
X33311654Y-58329400D02*
X33383083Y-58257971D01*
X34740226Y-58400828D02*
X34740226Y-57615114D01*
X34740226Y-57615114D02*
X34668797Y-57472257D01*
X34668797Y-57472257D02*
X34525940Y-57400828D01*
X34525940Y-57400828D02*
X34240226Y-57400828D01*
X34240226Y-57400828D02*
X34097368Y-57472257D01*
X34740226Y-58329400D02*
X34597368Y-58400828D01*
X34597368Y-58400828D02*
X34240226Y-58400828D01*
X34240226Y-58400828D02*
X34097368Y-58329400D01*
X34097368Y-58329400D02*
X34025940Y-58186542D01*
X34025940Y-58186542D02*
X34025940Y-58043685D01*
X34025940Y-58043685D02*
X34097368Y-57900828D01*
X34097368Y-57900828D02*
X34240226Y-57829400D01*
X34240226Y-57829400D02*
X34597368Y-57829400D01*
X34597368Y-57829400D02*
X34740226Y-57757971D01*
X35454511Y-57400828D02*
X35454511Y-58400828D01*
X35454511Y-57543685D02*
X35525940Y-57472257D01*
X35525940Y-57472257D02*
X35668797Y-57400828D01*
X35668797Y-57400828D02*
X35883083Y-57400828D01*
X35883083Y-57400828D02*
X36025940Y-57472257D01*
X36025940Y-57472257D02*
X36097369Y-57615114D01*
X36097369Y-57615114D02*
X36097369Y-58400828D01*
X38454511Y-57615114D02*
X37954511Y-57615114D01*
X37954511Y-58400828D02*
X37954511Y-56900828D01*
X37954511Y-56900828D02*
X38668797Y-56900828D01*
X39811654Y-58329400D02*
X39668797Y-58400828D01*
X39668797Y-58400828D02*
X39383083Y-58400828D01*
X39383083Y-58400828D02*
X39240225Y-58329400D01*
X39240225Y-58329400D02*
X39168797Y-58186542D01*
X39168797Y-58186542D02*
X39168797Y-57615114D01*
X39168797Y-57615114D02*
X39240225Y-57472257D01*
X39240225Y-57472257D02*
X39383083Y-57400828D01*
X39383083Y-57400828D02*
X39668797Y-57400828D01*
X39668797Y-57400828D02*
X39811654Y-57472257D01*
X39811654Y-57472257D02*
X39883083Y-57615114D01*
X39883083Y-57615114D02*
X39883083Y-57757971D01*
X39883083Y-57757971D02*
X39168797Y-57900828D01*
X40740225Y-58400828D02*
X40597368Y-58329400D01*
X40597368Y-58329400D02*
X40525939Y-58186542D01*
X40525939Y-58186542D02*
X40525939Y-56900828D01*
X41311653Y-58400828D02*
X41311653Y-57400828D01*
X41311653Y-56900828D02*
X41240225Y-56972257D01*
X41240225Y-56972257D02*
X41311653Y-57043685D01*
X41311653Y-57043685D02*
X41383082Y-56972257D01*
X41383082Y-56972257D02*
X41311653Y-56900828D01*
X41311653Y-56900828D02*
X41311653Y-57043685D01*
X42025939Y-57400828D02*
X42025939Y-58900828D01*
X42025939Y-57472257D02*
X42168797Y-57400828D01*
X42168797Y-57400828D02*
X42454511Y-57400828D01*
X42454511Y-57400828D02*
X42597368Y-57472257D01*
X42597368Y-57472257D02*
X42668797Y-57543685D01*
X42668797Y-57543685D02*
X42740225Y-57686542D01*
X42740225Y-57686542D02*
X42740225Y-58115114D01*
X42740225Y-58115114D02*
X42668797Y-58257971D01*
X42668797Y-58257971D02*
X42597368Y-58329400D01*
X42597368Y-58329400D02*
X42454511Y-58400828D01*
X42454511Y-58400828D02*
X42168797Y-58400828D01*
X42168797Y-58400828D02*
X42025939Y-58329400D01*
X43954511Y-58329400D02*
X43811654Y-58400828D01*
X43811654Y-58400828D02*
X43525940Y-58400828D01*
X43525940Y-58400828D02*
X43383082Y-58329400D01*
X43383082Y-58329400D02*
X43311654Y-58186542D01*
X43311654Y-58186542D02*
X43311654Y-57615114D01*
X43311654Y-57615114D02*
X43383082Y-57472257D01*
X43383082Y-57472257D02*
X43525940Y-57400828D01*
X43525940Y-57400828D02*
X43811654Y-57400828D01*
X43811654Y-57400828D02*
X43954511Y-57472257D01*
X43954511Y-57472257D02*
X44025940Y-57615114D01*
X44025940Y-57615114D02*
X44025940Y-57757971D01*
X44025940Y-57757971D02*
X43311654Y-57900828D01*
X46668796Y-58400828D02*
X46168796Y-57686542D01*
X45811653Y-58400828D02*
X45811653Y-56900828D01*
X45811653Y-56900828D02*
X46383082Y-56900828D01*
X46383082Y-56900828D02*
X46525939Y-56972257D01*
X46525939Y-56972257D02*
X46597368Y-57043685D01*
X46597368Y-57043685D02*
X46668796Y-57186542D01*
X46668796Y-57186542D02*
X46668796Y-57400828D01*
X46668796Y-57400828D02*
X46597368Y-57543685D01*
X46597368Y-57543685D02*
X46525939Y-57615114D01*
X46525939Y-57615114D02*
X46383082Y-57686542D01*
X46383082Y-57686542D02*
X45811653Y-57686542D01*
X47525939Y-58400828D02*
X47383082Y-58329400D01*
X47383082Y-58329400D02*
X47311653Y-58257971D01*
X47311653Y-58257971D02*
X47240225Y-58115114D01*
X47240225Y-58115114D02*
X47240225Y-57686542D01*
X47240225Y-57686542D02*
X47311653Y-57543685D01*
X47311653Y-57543685D02*
X47383082Y-57472257D01*
X47383082Y-57472257D02*
X47525939Y-57400828D01*
X47525939Y-57400828D02*
X47740225Y-57400828D01*
X47740225Y-57400828D02*
X47883082Y-57472257D01*
X47883082Y-57472257D02*
X47954511Y-57543685D01*
X47954511Y-57543685D02*
X48025939Y-57686542D01*
X48025939Y-57686542D02*
X48025939Y-58115114D01*
X48025939Y-58115114D02*
X47954511Y-58257971D01*
X47954511Y-58257971D02*
X47883082Y-58329400D01*
X47883082Y-58329400D02*
X47740225Y-58400828D01*
X47740225Y-58400828D02*
X47525939Y-58400828D01*
X49311654Y-58400828D02*
X49311654Y-56900828D01*
X49311654Y-58329400D02*
X49168796Y-58400828D01*
X49168796Y-58400828D02*
X48883082Y-58400828D01*
X48883082Y-58400828D02*
X48740225Y-58329400D01*
X48740225Y-58329400D02*
X48668796Y-58257971D01*
X48668796Y-58257971D02*
X48597368Y-58115114D01*
X48597368Y-58115114D02*
X48597368Y-57686542D01*
X48597368Y-57686542D02*
X48668796Y-57543685D01*
X48668796Y-57543685D02*
X48740225Y-57472257D01*
X48740225Y-57472257D02*
X48883082Y-57400828D01*
X48883082Y-57400828D02*
X49168796Y-57400828D01*
X49168796Y-57400828D02*
X49311654Y-57472257D01*
X50025939Y-58400828D02*
X50025939Y-57400828D01*
X50025939Y-57686542D02*
X50097368Y-57543685D01*
X50097368Y-57543685D02*
X50168797Y-57472257D01*
X50168797Y-57472257D02*
X50311654Y-57400828D01*
X50311654Y-57400828D02*
X50454511Y-57400828D01*
X50954510Y-58400828D02*
X50954510Y-57400828D01*
X50954510Y-56900828D02*
X50883082Y-56972257D01*
X50883082Y-56972257D02*
X50954510Y-57043685D01*
X50954510Y-57043685D02*
X51025939Y-56972257D01*
X51025939Y-56972257D02*
X50954510Y-56900828D01*
X50954510Y-56900828D02*
X50954510Y-57043685D01*
X52311654Y-57400828D02*
X52311654Y-58615114D01*
X52311654Y-58615114D02*
X52240225Y-58757971D01*
X52240225Y-58757971D02*
X52168796Y-58829400D01*
X52168796Y-58829400D02*
X52025939Y-58900828D01*
X52025939Y-58900828D02*
X51811654Y-58900828D01*
X51811654Y-58900828D02*
X51668796Y-58829400D01*
X52311654Y-58329400D02*
X52168796Y-58400828D01*
X52168796Y-58400828D02*
X51883082Y-58400828D01*
X51883082Y-58400828D02*
X51740225Y-58329400D01*
X51740225Y-58329400D02*
X51668796Y-58257971D01*
X51668796Y-58257971D02*
X51597368Y-58115114D01*
X51597368Y-58115114D02*
X51597368Y-57686542D01*
X51597368Y-57686542D02*
X51668796Y-57543685D01*
X51668796Y-57543685D02*
X51740225Y-57472257D01*
X51740225Y-57472257D02*
X51883082Y-57400828D01*
X51883082Y-57400828D02*
X52168796Y-57400828D01*
X52168796Y-57400828D02*
X52311654Y-57472257D01*
X53668797Y-57400828D02*
X53668797Y-58400828D01*
X53025939Y-57400828D02*
X53025939Y-58186542D01*
X53025939Y-58186542D02*
X53097368Y-58329400D01*
X53097368Y-58329400D02*
X53240225Y-58400828D01*
X53240225Y-58400828D02*
X53454511Y-58400828D01*
X53454511Y-58400828D02*
X53597368Y-58329400D01*
X53597368Y-58329400D02*
X53668797Y-58257971D01*
X54954511Y-58329400D02*
X54811654Y-58400828D01*
X54811654Y-58400828D02*
X54525940Y-58400828D01*
X54525940Y-58400828D02*
X54383082Y-58329400D01*
X54383082Y-58329400D02*
X54311654Y-58186542D01*
X54311654Y-58186542D02*
X54311654Y-57615114D01*
X54311654Y-57615114D02*
X54383082Y-57472257D01*
X54383082Y-57472257D02*
X54525940Y-57400828D01*
X54525940Y-57400828D02*
X54811654Y-57400828D01*
X54811654Y-57400828D02*
X54954511Y-57472257D01*
X54954511Y-57472257D02*
X55025940Y-57615114D01*
X55025940Y-57615114D02*
X55025940Y-57757971D01*
X55025940Y-57757971D02*
X54311654Y-57900828D01*
X55525939Y-57400828D02*
X56311654Y-57400828D01*
X56311654Y-57400828D02*
X55525939Y-58400828D01*
X55525939Y-58400828D02*
X56311654Y-58400828D01*
X57811654Y-56900828D02*
X58311654Y-58400828D01*
X58311654Y-58400828D02*
X58811654Y-56900828D01*
X59954511Y-58400828D02*
X59954511Y-57615114D01*
X59954511Y-57615114D02*
X59883082Y-57472257D01*
X59883082Y-57472257D02*
X59740225Y-57400828D01*
X59740225Y-57400828D02*
X59454511Y-57400828D01*
X59454511Y-57400828D02*
X59311653Y-57472257D01*
X59954511Y-58329400D02*
X59811653Y-58400828D01*
X59811653Y-58400828D02*
X59454511Y-58400828D01*
X59454511Y-58400828D02*
X59311653Y-58329400D01*
X59311653Y-58329400D02*
X59240225Y-58186542D01*
X59240225Y-58186542D02*
X59240225Y-58043685D01*
X59240225Y-58043685D02*
X59311653Y-57900828D01*
X59311653Y-57900828D02*
X59454511Y-57829400D01*
X59454511Y-57829400D02*
X59811653Y-57829400D01*
X59811653Y-57829400D02*
X59954511Y-57757971D01*
X60883082Y-58400828D02*
X60740225Y-58329400D01*
X60740225Y-58329400D02*
X60668796Y-58186542D01*
X60668796Y-58186542D02*
X60668796Y-56900828D01*
X62025939Y-58329400D02*
X61883082Y-58400828D01*
X61883082Y-58400828D02*
X61597368Y-58400828D01*
X61597368Y-58400828D02*
X61454510Y-58329400D01*
X61454510Y-58329400D02*
X61383082Y-58186542D01*
X61383082Y-58186542D02*
X61383082Y-57615114D01*
X61383082Y-57615114D02*
X61454510Y-57472257D01*
X61454510Y-57472257D02*
X61597368Y-57400828D01*
X61597368Y-57400828D02*
X61883082Y-57400828D01*
X61883082Y-57400828D02*
X62025939Y-57472257D01*
X62025939Y-57472257D02*
X62097368Y-57615114D01*
X62097368Y-57615114D02*
X62097368Y-57757971D01*
X62097368Y-57757971D02*
X61383082Y-57900828D01*
X62740224Y-57400828D02*
X62740224Y-58400828D01*
X62740224Y-57543685D02*
X62811653Y-57472257D01*
X62811653Y-57472257D02*
X62954510Y-57400828D01*
X62954510Y-57400828D02*
X63168796Y-57400828D01*
X63168796Y-57400828D02*
X63311653Y-57472257D01*
X63311653Y-57472257D02*
X63383082Y-57615114D01*
X63383082Y-57615114D02*
X63383082Y-58400828D01*
X64740225Y-58329400D02*
X64597367Y-58400828D01*
X64597367Y-58400828D02*
X64311653Y-58400828D01*
X64311653Y-58400828D02*
X64168796Y-58329400D01*
X64168796Y-58329400D02*
X64097367Y-58257971D01*
X64097367Y-58257971D02*
X64025939Y-58115114D01*
X64025939Y-58115114D02*
X64025939Y-57686542D01*
X64025939Y-57686542D02*
X64097367Y-57543685D01*
X64097367Y-57543685D02*
X64168796Y-57472257D01*
X64168796Y-57472257D02*
X64311653Y-57400828D01*
X64311653Y-57400828D02*
X64597367Y-57400828D01*
X64597367Y-57400828D02*
X64740225Y-57472257D01*
X65383081Y-58400828D02*
X65383081Y-57400828D01*
X65383081Y-56900828D02*
X65311653Y-56972257D01*
X65311653Y-56972257D02*
X65383081Y-57043685D01*
X65383081Y-57043685D02*
X65454510Y-56972257D01*
X65454510Y-56972257D02*
X65383081Y-56900828D01*
X65383081Y-56900828D02*
X65383081Y-57043685D01*
X66740225Y-58400828D02*
X66740225Y-57615114D01*
X66740225Y-57615114D02*
X66668796Y-57472257D01*
X66668796Y-57472257D02*
X66525939Y-57400828D01*
X66525939Y-57400828D02*
X66240225Y-57400828D01*
X66240225Y-57400828D02*
X66097367Y-57472257D01*
X66740225Y-58329400D02*
X66597367Y-58400828D01*
X66597367Y-58400828D02*
X66240225Y-58400828D01*
X66240225Y-58400828D02*
X66097367Y-58329400D01*
X66097367Y-58329400D02*
X66025939Y-58186542D01*
X66025939Y-58186542D02*
X66025939Y-58043685D01*
X66025939Y-58043685D02*
X66097367Y-57900828D01*
X66097367Y-57900828D02*
X66240225Y-57829400D01*
X66240225Y-57829400D02*
X66597367Y-57829400D01*
X66597367Y-57829400D02*
X66740225Y-57757971D01*
D10*
X88664619Y-42797431D02*
X87664619Y-42797431D01*
X87664619Y-42797431D02*
X88664619Y-42226003D01*
X88664619Y-42226003D02*
X87664619Y-42226003D01*
X88569380Y-41749812D02*
X88617000Y-41702193D01*
X88617000Y-41702193D02*
X88664619Y-41749812D01*
X88664619Y-41749812D02*
X88617000Y-41797431D01*
X88617000Y-41797431D02*
X88569380Y-41749812D01*
X88569380Y-41749812D02*
X88664619Y-41749812D01*
X87664619Y-41083146D02*
X87664619Y-40892670D01*
X87664619Y-40892670D02*
X87712238Y-40797432D01*
X87712238Y-40797432D02*
X87807476Y-40702194D01*
X87807476Y-40702194D02*
X87997952Y-40654575D01*
X87997952Y-40654575D02*
X88331285Y-40654575D01*
X88331285Y-40654575D02*
X88521761Y-40702194D01*
X88521761Y-40702194D02*
X88617000Y-40797432D01*
X88617000Y-40797432D02*
X88664619Y-40892670D01*
X88664619Y-40892670D02*
X88664619Y-41083146D01*
X88664619Y-41083146D02*
X88617000Y-41178384D01*
X88617000Y-41178384D02*
X88521761Y-41273622D01*
X88521761Y-41273622D02*
X88331285Y-41321241D01*
X88331285Y-41321241D02*
X87997952Y-41321241D01*
X87997952Y-41321241D02*
X87807476Y-41273622D01*
X87807476Y-41273622D02*
X87712238Y-41178384D01*
X87712238Y-41178384D02*
X87664619Y-41083146D01*
D11*
X17873558Y-3139638D02*
X17873558Y-1139638D01*
X17873558Y-1139638D02*
X18635463Y-1139638D01*
X18635463Y-1139638D02*
X18825939Y-1234876D01*
X18825939Y-1234876D02*
X18921177Y-1330114D01*
X18921177Y-1330114D02*
X19016415Y-1520590D01*
X19016415Y-1520590D02*
X19016415Y-1806304D01*
X19016415Y-1806304D02*
X18921177Y-1996780D01*
X18921177Y-1996780D02*
X18825939Y-2092019D01*
X18825939Y-2092019D02*
X18635463Y-2187257D01*
X18635463Y-2187257D02*
X17873558Y-2187257D01*
X20825939Y-3139638D02*
X19873558Y-3139638D01*
X19873558Y-3139638D02*
X19873558Y-1139638D01*
X22635463Y-2949161D02*
X22540225Y-3044400D01*
X22540225Y-3044400D02*
X22254511Y-3139638D01*
X22254511Y-3139638D02*
X22064035Y-3139638D01*
X22064035Y-3139638D02*
X21778320Y-3044400D01*
X21778320Y-3044400D02*
X21587844Y-2853923D01*
X21587844Y-2853923D02*
X21492606Y-2663447D01*
X21492606Y-2663447D02*
X21397368Y-2282495D01*
X21397368Y-2282495D02*
X21397368Y-1996780D01*
X21397368Y-1996780D02*
X21492606Y-1615828D01*
X21492606Y-1615828D02*
X21587844Y-1425352D01*
X21587844Y-1425352D02*
X21778320Y-1234876D01*
X21778320Y-1234876D02*
X22064035Y-1139638D01*
X22064035Y-1139638D02*
X22254511Y-1139638D01*
X22254511Y-1139638D02*
X22540225Y-1234876D01*
X22540225Y-1234876D02*
X22635463Y-1330114D01*
X23016416Y-3330114D02*
X24540225Y-3330114D01*
X25016416Y-2092019D02*
X25683083Y-2092019D01*
X25968797Y-3139638D02*
X25016416Y-3139638D01*
X25016416Y-3139638D02*
X25016416Y-1139638D01*
X25016416Y-1139638D02*
X25968797Y-1139638D01*
X26730702Y-3044400D02*
X27016416Y-3139638D01*
X27016416Y-3139638D02*
X27492607Y-3139638D01*
X27492607Y-3139638D02*
X27683083Y-3044400D01*
X27683083Y-3044400D02*
X27778321Y-2949161D01*
X27778321Y-2949161D02*
X27873559Y-2758685D01*
X27873559Y-2758685D02*
X27873559Y-2568209D01*
X27873559Y-2568209D02*
X27778321Y-2377733D01*
X27778321Y-2377733D02*
X27683083Y-2282495D01*
X27683083Y-2282495D02*
X27492607Y-2187257D01*
X27492607Y-2187257D02*
X27111654Y-2092019D01*
X27111654Y-2092019D02*
X26921178Y-1996780D01*
X26921178Y-1996780D02*
X26825940Y-1901542D01*
X26825940Y-1901542D02*
X26730702Y-1711066D01*
X26730702Y-1711066D02*
X26730702Y-1520590D01*
X26730702Y-1520590D02*
X26825940Y-1330114D01*
X26825940Y-1330114D02*
X26921178Y-1234876D01*
X26921178Y-1234876D02*
X27111654Y-1139638D01*
X27111654Y-1139638D02*
X27587845Y-1139638D01*
X27587845Y-1139638D02*
X27873559Y-1234876D01*
X28730702Y-3139638D02*
X28730702Y-1139638D01*
X28730702Y-1139638D02*
X29492607Y-1139638D01*
X29492607Y-1139638D02*
X29683083Y-1234876D01*
X29683083Y-1234876D02*
X29778321Y-1330114D01*
X29778321Y-1330114D02*
X29873559Y-1520590D01*
X29873559Y-1520590D02*
X29873559Y-1806304D01*
X29873559Y-1806304D02*
X29778321Y-1996780D01*
X29778321Y-1996780D02*
X29683083Y-2092019D01*
X29683083Y-2092019D02*
X29492607Y-2187257D01*
X29492607Y-2187257D02*
X28730702Y-2187257D01*
X30540226Y-1139638D02*
X31778321Y-1139638D01*
X31778321Y-1139638D02*
X31111654Y-1901542D01*
X31111654Y-1901542D02*
X31397369Y-1901542D01*
X31397369Y-1901542D02*
X31587845Y-1996780D01*
X31587845Y-1996780D02*
X31683083Y-2092019D01*
X31683083Y-2092019D02*
X31778321Y-2282495D01*
X31778321Y-2282495D02*
X31778321Y-2758685D01*
X31778321Y-2758685D02*
X31683083Y-2949161D01*
X31683083Y-2949161D02*
X31587845Y-3044400D01*
X31587845Y-3044400D02*
X31397369Y-3139638D01*
X31397369Y-3139638D02*
X30825940Y-3139638D01*
X30825940Y-3139638D02*
X30635464Y-3044400D01*
X30635464Y-3044400D02*
X30540226Y-2949161D01*
X32540226Y-1330114D02*
X32635464Y-1234876D01*
X32635464Y-1234876D02*
X32825940Y-1139638D01*
X32825940Y-1139638D02*
X33302131Y-1139638D01*
X33302131Y-1139638D02*
X33492607Y-1234876D01*
X33492607Y-1234876D02*
X33587845Y-1330114D01*
X33587845Y-1330114D02*
X33683083Y-1520590D01*
X33683083Y-1520590D02*
X33683083Y-1711066D01*
X33683083Y-1711066D02*
X33587845Y-1996780D01*
X33587845Y-1996780D02*
X32444988Y-3139638D01*
X32444988Y-3139638D02*
X33683083Y-3139638D01*
X34540226Y-2949161D02*
X34635464Y-3044400D01*
X34635464Y-3044400D02*
X34540226Y-3139638D01*
X34540226Y-3139638D02*
X34444988Y-3044400D01*
X34444988Y-3044400D02*
X34540226Y-2949161D01*
X34540226Y-2949161D02*
X34540226Y-3139638D01*
X35206893Y-1139638D02*
X35873559Y-3139638D01*
X35873559Y-3139638D02*
X36540226Y-1139638D01*
X38254512Y-3139638D02*
X37111655Y-3139638D01*
X37683083Y-3139638D02*
X37683083Y-1139638D01*
X37683083Y-1139638D02*
X37492607Y-1425352D01*
X37492607Y-1425352D02*
X37302131Y-1615828D01*
X37302131Y-1615828D02*
X37111655Y-1711066D01*
D12*
X86238095Y-59154819D02*
X86238095Y-58154819D01*
X86238095Y-58631009D02*
X86809523Y-58631009D01*
X86809523Y-59154819D02*
X86809523Y-58154819D01*
X87190476Y-58154819D02*
X87809523Y-58154819D01*
X87809523Y-58154819D02*
X87476190Y-58535771D01*
X87476190Y-58535771D02*
X87619047Y-58535771D01*
X87619047Y-58535771D02*
X87714285Y-58583390D01*
X87714285Y-58583390D02*
X87761904Y-58631009D01*
X87761904Y-58631009D02*
X87809523Y-58726247D01*
X87809523Y-58726247D02*
X87809523Y-58964342D01*
X87809523Y-58964342D02*
X87761904Y-59059580D01*
X87761904Y-59059580D02*
X87714285Y-59107200D01*
X87714285Y-59107200D02*
X87619047Y-59154819D01*
X87619047Y-59154819D02*
X87333333Y-59154819D01*
X87333333Y-59154819D02*
X87238095Y-59107200D01*
X87238095Y-59107200D02*
X87190476Y-59059580D01*
X2238095Y-59354819D02*
X2238095Y-58354819D01*
X2238095Y-58831009D02*
X2809523Y-58831009D01*
X2809523Y-59354819D02*
X2809523Y-58354819D01*
X3714285Y-58688152D02*
X3714285Y-59354819D01*
X3476190Y-58307200D02*
X3238095Y-59021485D01*
X3238095Y-59021485D02*
X3857142Y-59021485D01*
X81854819Y-52733333D02*
X82569104Y-52733333D01*
X82569104Y-52733333D02*
X82711961Y-52780952D01*
X82711961Y-52780952D02*
X82807200Y-52876190D01*
X82807200Y-52876190D02*
X82854819Y-53019047D01*
X82854819Y-53019047D02*
X82854819Y-53114285D01*
X81854819Y-51828571D02*
X81854819Y-52019047D01*
X81854819Y-52019047D02*
X81902438Y-52114285D01*
X81902438Y-52114285D02*
X81950057Y-52161904D01*
X81950057Y-52161904D02*
X82092914Y-52257142D01*
X82092914Y-52257142D02*
X82283390Y-52304761D01*
X82283390Y-52304761D02*
X82664342Y-52304761D01*
X82664342Y-52304761D02*
X82759580Y-52257142D01*
X82759580Y-52257142D02*
X82807200Y-52209523D01*
X82807200Y-52209523D02*
X82854819Y-52114285D01*
X82854819Y-52114285D02*
X82854819Y-51923809D01*
X82854819Y-51923809D02*
X82807200Y-51828571D01*
X82807200Y-51828571D02*
X82759580Y-51780952D01*
X82759580Y-51780952D02*
X82664342Y-51733333D01*
X82664342Y-51733333D02*
X82426247Y-51733333D01*
X82426247Y-51733333D02*
X82331009Y-51780952D01*
X82331009Y-51780952D02*
X82283390Y-51828571D01*
X82283390Y-51828571D02*
X82235771Y-51923809D01*
X82235771Y-51923809D02*
X82235771Y-52114285D01*
X82235771Y-52114285D02*
X82283390Y-52209523D01*
X82283390Y-52209523D02*
X82331009Y-52257142D01*
X82331009Y-52257142D02*
X82426247Y-52304761D01*
X83516666Y-29244819D02*
X83516666Y-29959104D01*
X83516666Y-29959104D02*
X83469047Y-30101961D01*
X83469047Y-30101961D02*
X83373809Y-30197200D01*
X83373809Y-30197200D02*
X83230952Y-30244819D01*
X83230952Y-30244819D02*
X83135714Y-30244819D01*
X83897619Y-29244819D02*
X84516666Y-29244819D01*
X84516666Y-29244819D02*
X84183333Y-29625771D01*
X84183333Y-29625771D02*
X84326190Y-29625771D01*
X84326190Y-29625771D02*
X84421428Y-29673390D01*
X84421428Y-29673390D02*
X84469047Y-29721009D01*
X84469047Y-29721009D02*
X84516666Y-29816247D01*
X84516666Y-29816247D02*
X84516666Y-30054342D01*
X84516666Y-30054342D02*
X84469047Y-30149580D01*
X84469047Y-30149580D02*
X84421428Y-30197200D01*
X84421428Y-30197200D02*
X84326190Y-30244819D01*
X84326190Y-30244819D02*
X84040476Y-30244819D01*
X84040476Y-30244819D02*
X83945238Y-30197200D01*
X83945238Y-30197200D02*
X83897619Y-30149580D01*
X44788095Y-26404819D02*
X44788095Y-27214342D01*
X44788095Y-27214342D02*
X44835714Y-27309580D01*
X44835714Y-27309580D02*
X44883333Y-27357200D01*
X44883333Y-27357200D02*
X44978571Y-27404819D01*
X44978571Y-27404819D02*
X45169047Y-27404819D01*
X45169047Y-27404819D02*
X45264285Y-27357200D01*
X45264285Y-27357200D02*
X45311904Y-27309580D01*
X45311904Y-27309580D02*
X45359523Y-27214342D01*
X45359523Y-27214342D02*
X45359523Y-26404819D01*
X45740476Y-26404819D02*
X46359523Y-26404819D01*
X46359523Y-26404819D02*
X46026190Y-26785771D01*
X46026190Y-26785771D02*
X46169047Y-26785771D01*
X46169047Y-26785771D02*
X46264285Y-26833390D01*
X46264285Y-26833390D02*
X46311904Y-26881009D01*
X46311904Y-26881009D02*
X46359523Y-26976247D01*
X46359523Y-26976247D02*
X46359523Y-27214342D01*
X46359523Y-27214342D02*
X46311904Y-27309580D01*
X46311904Y-27309580D02*
X46264285Y-27357200D01*
X46264285Y-27357200D02*
X46169047Y-27404819D01*
X46169047Y-27404819D02*
X45883333Y-27404819D01*
X45883333Y-27404819D02*
X45788095Y-27357200D01*
X45788095Y-27357200D02*
X45740476Y-27309580D01*
X70411905Y-24004819D02*
X70411905Y-23004819D01*
X70983333Y-24004819D02*
X70554762Y-23433390D01*
X70983333Y-23004819D02*
X70411905Y-23576247D01*
X71935714Y-24004819D02*
X71364286Y-24004819D01*
X71650000Y-24004819D02*
X71650000Y-23004819D01*
X71650000Y-23004819D02*
X71554762Y-23147676D01*
X71554762Y-23147676D02*
X71459524Y-23242914D01*
X71459524Y-23242914D02*
X71364286Y-23290533D01*
X55033333Y-25654819D02*
X54700000Y-25178628D01*
X54461905Y-25654819D02*
X54461905Y-24654819D01*
X54461905Y-24654819D02*
X54842857Y-24654819D01*
X54842857Y-24654819D02*
X54938095Y-24702438D01*
X54938095Y-24702438D02*
X54985714Y-24750057D01*
X54985714Y-24750057D02*
X55033333Y-24845295D01*
X55033333Y-24845295D02*
X55033333Y-24988152D01*
X55033333Y-24988152D02*
X54985714Y-25083390D01*
X54985714Y-25083390D02*
X54938095Y-25131009D01*
X54938095Y-25131009D02*
X54842857Y-25178628D01*
X54842857Y-25178628D02*
X54461905Y-25178628D01*
X55366667Y-24654819D02*
X55985714Y-24654819D01*
X55985714Y-24654819D02*
X55652381Y-25035771D01*
X55652381Y-25035771D02*
X55795238Y-25035771D01*
X55795238Y-25035771D02*
X55890476Y-25083390D01*
X55890476Y-25083390D02*
X55938095Y-25131009D01*
X55938095Y-25131009D02*
X55985714Y-25226247D01*
X55985714Y-25226247D02*
X55985714Y-25464342D01*
X55985714Y-25464342D02*
X55938095Y-25559580D01*
X55938095Y-25559580D02*
X55890476Y-25607200D01*
X55890476Y-25607200D02*
X55795238Y-25654819D01*
X55795238Y-25654819D02*
X55509524Y-25654819D01*
X55509524Y-25654819D02*
X55414286Y-25607200D01*
X55414286Y-25607200D02*
X55366667Y-25559580D01*
X57461905Y-21894819D02*
X57461905Y-20894819D01*
X57461905Y-20894819D02*
X57700000Y-20894819D01*
X57700000Y-20894819D02*
X57842857Y-20942438D01*
X57842857Y-20942438D02*
X57938095Y-21037676D01*
X57938095Y-21037676D02*
X57985714Y-21132914D01*
X57985714Y-21132914D02*
X58033333Y-21323390D01*
X58033333Y-21323390D02*
X58033333Y-21466247D01*
X58033333Y-21466247D02*
X57985714Y-21656723D01*
X57985714Y-21656723D02*
X57938095Y-21751961D01*
X57938095Y-21751961D02*
X57842857Y-21847200D01*
X57842857Y-21847200D02*
X57700000Y-21894819D01*
X57700000Y-21894819D02*
X57461905Y-21894819D01*
X58985714Y-21894819D02*
X58414286Y-21894819D01*
X58700000Y-21894819D02*
X58700000Y-20894819D01*
X58700000Y-20894819D02*
X58604762Y-21037676D01*
X58604762Y-21037676D02*
X58509524Y-21132914D01*
X58509524Y-21132914D02*
X58414286Y-21180533D01*
X54863333Y-42054819D02*
X54530000Y-41578628D01*
X54291905Y-42054819D02*
X54291905Y-41054819D01*
X54291905Y-41054819D02*
X54672857Y-41054819D01*
X54672857Y-41054819D02*
X54768095Y-41102438D01*
X54768095Y-41102438D02*
X54815714Y-41150057D01*
X54815714Y-41150057D02*
X54863333Y-41245295D01*
X54863333Y-41245295D02*
X54863333Y-41388152D01*
X54863333Y-41388152D02*
X54815714Y-41483390D01*
X54815714Y-41483390D02*
X54768095Y-41531009D01*
X54768095Y-41531009D02*
X54672857Y-41578628D01*
X54672857Y-41578628D02*
X54291905Y-41578628D01*
X55720476Y-41388152D02*
X55720476Y-42054819D01*
X55482381Y-41007200D02*
X55244286Y-41721485D01*
X55244286Y-41721485D02*
X55863333Y-41721485D01*
X8666666Y-29854819D02*
X8666666Y-30569104D01*
X8666666Y-30569104D02*
X8619047Y-30711961D01*
X8619047Y-30711961D02*
X8523809Y-30807200D01*
X8523809Y-30807200D02*
X8380952Y-30854819D01*
X8380952Y-30854819D02*
X8285714Y-30854819D01*
X9571428Y-30188152D02*
X9571428Y-30854819D01*
X9333333Y-29807200D02*
X9095238Y-30521485D01*
X9095238Y-30521485D02*
X9714285Y-30521485D01*
X52704761Y-7950057D02*
X52609523Y-7902438D01*
X52609523Y-7902438D02*
X52514285Y-7807200D01*
X52514285Y-7807200D02*
X52371428Y-7664342D01*
X52371428Y-7664342D02*
X52276190Y-7616723D01*
X52276190Y-7616723D02*
X52180952Y-7616723D01*
X52228571Y-7854819D02*
X52133333Y-7807200D01*
X52133333Y-7807200D02*
X52038095Y-7711961D01*
X52038095Y-7711961D02*
X51990476Y-7521485D01*
X51990476Y-7521485D02*
X51990476Y-7188152D01*
X51990476Y-7188152D02*
X52038095Y-6997676D01*
X52038095Y-6997676D02*
X52133333Y-6902438D01*
X52133333Y-6902438D02*
X52228571Y-6854819D01*
X52228571Y-6854819D02*
X52419047Y-6854819D01*
X52419047Y-6854819D02*
X52514285Y-6902438D01*
X52514285Y-6902438D02*
X52609523Y-6997676D01*
X52609523Y-6997676D02*
X52657142Y-7188152D01*
X52657142Y-7188152D02*
X52657142Y-7521485D01*
X52657142Y-7521485D02*
X52609523Y-7711961D01*
X52609523Y-7711961D02*
X52514285Y-7807200D01*
X52514285Y-7807200D02*
X52419047Y-7854819D01*
X52419047Y-7854819D02*
X52228571Y-7854819D01*
X53609523Y-7854819D02*
X53038095Y-7854819D01*
X53323809Y-7854819D02*
X53323809Y-6854819D01*
X53323809Y-6854819D02*
X53228571Y-6997676D01*
X53228571Y-6997676D02*
X53133333Y-7092914D01*
X53133333Y-7092914D02*
X53038095Y-7140533D01*
X44788095Y-7404819D02*
X44788095Y-8214342D01*
X44788095Y-8214342D02*
X44835714Y-8309580D01*
X44835714Y-8309580D02*
X44883333Y-8357200D01*
X44883333Y-8357200D02*
X44978571Y-8404819D01*
X44978571Y-8404819D02*
X45169047Y-8404819D01*
X45169047Y-8404819D02*
X45264285Y-8357200D01*
X45264285Y-8357200D02*
X45311904Y-8309580D01*
X45311904Y-8309580D02*
X45359523Y-8214342D01*
X45359523Y-8214342D02*
X45359523Y-7404819D01*
X45788095Y-7500057D02*
X45835714Y-7452438D01*
X45835714Y-7452438D02*
X45930952Y-7404819D01*
X45930952Y-7404819D02*
X46169047Y-7404819D01*
X46169047Y-7404819D02*
X46264285Y-7452438D01*
X46264285Y-7452438D02*
X46311904Y-7500057D01*
X46311904Y-7500057D02*
X46359523Y-7595295D01*
X46359523Y-7595295D02*
X46359523Y-7690533D01*
X46359523Y-7690533D02*
X46311904Y-7833390D01*
X46311904Y-7833390D02*
X45740476Y-8404819D01*
X45740476Y-8404819D02*
X46359523Y-8404819D01*
X86038095Y-1754819D02*
X86038095Y-754819D01*
X86038095Y-1231009D02*
X86609523Y-1231009D01*
X86609523Y-1754819D02*
X86609523Y-754819D01*
X87038095Y-850057D02*
X87085714Y-802438D01*
X87085714Y-802438D02*
X87180952Y-754819D01*
X87180952Y-754819D02*
X87419047Y-754819D01*
X87419047Y-754819D02*
X87514285Y-802438D01*
X87514285Y-802438D02*
X87561904Y-850057D01*
X87561904Y-850057D02*
X87609523Y-945295D01*
X87609523Y-945295D02*
X87609523Y-1040533D01*
X87609523Y-1040533D02*
X87561904Y-1183390D01*
X87561904Y-1183390D02*
X86990476Y-1754819D01*
X86990476Y-1754819D02*
X87609523Y-1754819D01*
X2638095Y-1554819D02*
X2638095Y-554819D01*
X2638095Y-1031009D02*
X3209523Y-1031009D01*
X3209523Y-1554819D02*
X3209523Y-554819D01*
X4209523Y-1554819D02*
X3638095Y-1554819D01*
X3923809Y-1554819D02*
X3923809Y-554819D01*
X3923809Y-554819D02*
X3828571Y-697676D01*
X3828571Y-697676D02*
X3733333Y-792914D01*
X3733333Y-792914D02*
X3638095Y-840533D01*
X54843333Y-22254819D02*
X54510000Y-21778628D01*
X54271905Y-22254819D02*
X54271905Y-21254819D01*
X54271905Y-21254819D02*
X54652857Y-21254819D01*
X54652857Y-21254819D02*
X54748095Y-21302438D01*
X54748095Y-21302438D02*
X54795714Y-21350057D01*
X54795714Y-21350057D02*
X54843333Y-21445295D01*
X54843333Y-21445295D02*
X54843333Y-21588152D01*
X54843333Y-21588152D02*
X54795714Y-21683390D01*
X54795714Y-21683390D02*
X54748095Y-21731009D01*
X54748095Y-21731009D02*
X54652857Y-21778628D01*
X54652857Y-21778628D02*
X54271905Y-21778628D01*
X55224286Y-21350057D02*
X55271905Y-21302438D01*
X55271905Y-21302438D02*
X55367143Y-21254819D01*
X55367143Y-21254819D02*
X55605238Y-21254819D01*
X55605238Y-21254819D02*
X55700476Y-21302438D01*
X55700476Y-21302438D02*
X55748095Y-21350057D01*
X55748095Y-21350057D02*
X55795714Y-21445295D01*
X55795714Y-21445295D02*
X55795714Y-21540533D01*
X55795714Y-21540533D02*
X55748095Y-21683390D01*
X55748095Y-21683390D02*
X55176667Y-22254819D01*
X55176667Y-22254819D02*
X55795714Y-22254819D01*
X8866666Y-43654819D02*
X8866666Y-44369104D01*
X8866666Y-44369104D02*
X8819047Y-44511961D01*
X8819047Y-44511961D02*
X8723809Y-44607200D01*
X8723809Y-44607200D02*
X8580952Y-44654819D01*
X8580952Y-44654819D02*
X8485714Y-44654819D01*
X9819047Y-43654819D02*
X9342857Y-43654819D01*
X9342857Y-43654819D02*
X9295238Y-44131009D01*
X9295238Y-44131009D02*
X9342857Y-44083390D01*
X9342857Y-44083390D02*
X9438095Y-44035771D01*
X9438095Y-44035771D02*
X9676190Y-44035771D01*
X9676190Y-44035771D02*
X9771428Y-44083390D01*
X9771428Y-44083390D02*
X9819047Y-44131009D01*
X9819047Y-44131009D02*
X9866666Y-44226247D01*
X9866666Y-44226247D02*
X9866666Y-44464342D01*
X9866666Y-44464342D02*
X9819047Y-44559580D01*
X9819047Y-44559580D02*
X9771428Y-44607200D01*
X9771428Y-44607200D02*
X9676190Y-44654819D01*
X9676190Y-44654819D02*
X9438095Y-44654819D01*
X9438095Y-44654819D02*
X9342857Y-44607200D01*
X9342857Y-44607200D02*
X9295238Y-44559580D01*
X55033333Y-6054819D02*
X54700000Y-5578628D01*
X54461905Y-6054819D02*
X54461905Y-5054819D01*
X54461905Y-5054819D02*
X54842857Y-5054819D01*
X54842857Y-5054819D02*
X54938095Y-5102438D01*
X54938095Y-5102438D02*
X54985714Y-5150057D01*
X54985714Y-5150057D02*
X55033333Y-5245295D01*
X55033333Y-5245295D02*
X55033333Y-5388152D01*
X55033333Y-5388152D02*
X54985714Y-5483390D01*
X54985714Y-5483390D02*
X54938095Y-5531009D01*
X54938095Y-5531009D02*
X54842857Y-5578628D01*
X54842857Y-5578628D02*
X54461905Y-5578628D01*
X55985714Y-6054819D02*
X55414286Y-6054819D01*
X55700000Y-6054819D02*
X55700000Y-5054819D01*
X55700000Y-5054819D02*
X55604762Y-5197676D01*
X55604762Y-5197676D02*
X55509524Y-5292914D01*
X55509524Y-5292914D02*
X55414286Y-5340533D01*
X6666666Y-22954819D02*
X6666666Y-23669104D01*
X6666666Y-23669104D02*
X6619047Y-23811961D01*
X6619047Y-23811961D02*
X6523809Y-23907200D01*
X6523809Y-23907200D02*
X6380952Y-23954819D01*
X6380952Y-23954819D02*
X6285714Y-23954819D01*
X7666666Y-23954819D02*
X7095238Y-23954819D01*
X7380952Y-23954819D02*
X7380952Y-22954819D01*
X7380952Y-22954819D02*
X7285714Y-23097676D01*
X7285714Y-23097676D02*
X7190476Y-23192914D01*
X7190476Y-23192914D02*
X7095238Y-23240533D01*
X58261905Y-43214819D02*
X58261905Y-42214819D01*
X58261905Y-42214819D02*
X58500000Y-42214819D01*
X58500000Y-42214819D02*
X58642857Y-42262438D01*
X58642857Y-42262438D02*
X58738095Y-42357676D01*
X58738095Y-42357676D02*
X58785714Y-42452914D01*
X58785714Y-42452914D02*
X58833333Y-42643390D01*
X58833333Y-42643390D02*
X58833333Y-42786247D01*
X58833333Y-42786247D02*
X58785714Y-42976723D01*
X58785714Y-42976723D02*
X58738095Y-43071961D01*
X58738095Y-43071961D02*
X58642857Y-43167200D01*
X58642857Y-43167200D02*
X58500000Y-43214819D01*
X58500000Y-43214819D02*
X58261905Y-43214819D01*
X59214286Y-42310057D02*
X59261905Y-42262438D01*
X59261905Y-42262438D02*
X59357143Y-42214819D01*
X59357143Y-42214819D02*
X59595238Y-42214819D01*
X59595238Y-42214819D02*
X59690476Y-42262438D01*
X59690476Y-42262438D02*
X59738095Y-42310057D01*
X59738095Y-42310057D02*
X59785714Y-42405295D01*
X59785714Y-42405295D02*
X59785714Y-42500533D01*
X59785714Y-42500533D02*
X59738095Y-42643390D01*
X59738095Y-42643390D02*
X59166667Y-43214819D01*
X59166667Y-43214819D02*
X59785714Y-43214819D01*
X52704761Y-27950057D02*
X52609523Y-27902438D01*
X52609523Y-27902438D02*
X52514285Y-27807200D01*
X52514285Y-27807200D02*
X52371428Y-27664342D01*
X52371428Y-27664342D02*
X52276190Y-27616723D01*
X52276190Y-27616723D02*
X52180952Y-27616723D01*
X52228571Y-27854819D02*
X52133333Y-27807200D01*
X52133333Y-27807200D02*
X52038095Y-27711961D01*
X52038095Y-27711961D02*
X51990476Y-27521485D01*
X51990476Y-27521485D02*
X51990476Y-27188152D01*
X51990476Y-27188152D02*
X52038095Y-26997676D01*
X52038095Y-26997676D02*
X52133333Y-26902438D01*
X52133333Y-26902438D02*
X52228571Y-26854819D01*
X52228571Y-26854819D02*
X52419047Y-26854819D01*
X52419047Y-26854819D02*
X52514285Y-26902438D01*
X52514285Y-26902438D02*
X52609523Y-26997676D01*
X52609523Y-26997676D02*
X52657142Y-27188152D01*
X52657142Y-27188152D02*
X52657142Y-27521485D01*
X52657142Y-27521485D02*
X52609523Y-27711961D01*
X52609523Y-27711961D02*
X52514285Y-27807200D01*
X52514285Y-27807200D02*
X52419047Y-27854819D01*
X52419047Y-27854819D02*
X52228571Y-27854819D01*
X53038095Y-26950057D02*
X53085714Y-26902438D01*
X53085714Y-26902438D02*
X53180952Y-26854819D01*
X53180952Y-26854819D02*
X53419047Y-26854819D01*
X53419047Y-26854819D02*
X53514285Y-26902438D01*
X53514285Y-26902438D02*
X53561904Y-26950057D01*
X53561904Y-26950057D02*
X53609523Y-27045295D01*
X53609523Y-27045295D02*
X53609523Y-27140533D01*
X53609523Y-27140533D02*
X53561904Y-27283390D01*
X53561904Y-27283390D02*
X52990476Y-27854819D01*
X52990476Y-27854819D02*
X53609523Y-27854819D01*
X15083095Y-2094819D02*
X15083095Y-2904342D01*
X15083095Y-2904342D02*
X15130714Y-2999580D01*
X15130714Y-2999580D02*
X15178333Y-3047200D01*
X15178333Y-3047200D02*
X15273571Y-3094819D01*
X15273571Y-3094819D02*
X15464047Y-3094819D01*
X15464047Y-3094819D02*
X15559285Y-3047200D01*
X15559285Y-3047200D02*
X15606904Y-2999580D01*
X15606904Y-2999580D02*
X15654523Y-2904342D01*
X15654523Y-2904342D02*
X15654523Y-2094819D01*
X16654523Y-3094819D02*
X16083095Y-3094819D01*
X16368809Y-3094819D02*
X16368809Y-2094819D01*
X16368809Y-2094819D02*
X16273571Y-2237676D01*
X16273571Y-2237676D02*
X16178333Y-2332914D01*
X16178333Y-2332914D02*
X16083095Y-2380533D01*
X83266666Y-8454819D02*
X83266666Y-9169104D01*
X83266666Y-9169104D02*
X83219047Y-9311961D01*
X83219047Y-9311961D02*
X83123809Y-9407200D01*
X83123809Y-9407200D02*
X82980952Y-9454819D01*
X82980952Y-9454819D02*
X82885714Y-9454819D01*
X83695238Y-8550057D02*
X83742857Y-8502438D01*
X83742857Y-8502438D02*
X83838095Y-8454819D01*
X83838095Y-8454819D02*
X84076190Y-8454819D01*
X84076190Y-8454819D02*
X84171428Y-8502438D01*
X84171428Y-8502438D02*
X84219047Y-8550057D01*
X84219047Y-8550057D02*
X84266666Y-8645295D01*
X84266666Y-8645295D02*
X84266666Y-8740533D01*
X84266666Y-8740533D02*
X84219047Y-8883390D01*
X84219047Y-8883390D02*
X83647619Y-9454819D01*
X83647619Y-9454819D02*
X84266666Y-9454819D01*
X70411905Y-44604819D02*
X70411905Y-43604819D01*
X70983333Y-44604819D02*
X70554762Y-44033390D01*
X70983333Y-43604819D02*
X70411905Y-44176247D01*
X71364286Y-43700057D02*
X71411905Y-43652438D01*
X71411905Y-43652438D02*
X71507143Y-43604819D01*
X71507143Y-43604819D02*
X71745238Y-43604819D01*
X71745238Y-43604819D02*
X71840476Y-43652438D01*
X71840476Y-43652438D02*
X71888095Y-43700057D01*
X71888095Y-43700057D02*
X71935714Y-43795295D01*
X71935714Y-43795295D02*
X71935714Y-43890533D01*
X71935714Y-43890533D02*
X71888095Y-44033390D01*
X71888095Y-44033390D02*
X71316667Y-44604819D01*
X71316667Y-44604819D02*
X71935714Y-44604819D01*
D13*
%TO.C,J6*%
X78070000Y-45530000D02*
X79400000Y-45530000D01*
X78070000Y-46860000D02*
X78070000Y-45530000D01*
X80730000Y-48130000D02*
X80730000Y-58350000D01*
X78070000Y-48130000D02*
X80730000Y-48130000D01*
X78070000Y-48130000D02*
X78070000Y-58350000D01*
X78070000Y-58350000D02*
X80730000Y-58350000D01*
%TO.C,J3*%
X82240000Y-30980000D02*
X82240000Y-31780000D01*
X82480000Y-31220000D02*
X82480000Y-39581000D01*
X83280000Y-30980000D02*
X82240000Y-30980000D01*
X83400000Y-31220000D02*
X83400000Y-39581000D01*
X84400000Y-31220000D02*
X84400000Y-39581000D01*
X87501000Y-31220000D02*
X87501000Y-39581000D01*
X89220000Y-31220000D02*
X82480000Y-31220000D01*
X89220000Y-31220000D02*
X89220000Y-39581000D01*
X89220000Y-39581000D02*
X82480000Y-39581000D01*
%TO.C,U3*%
X42945000Y-30290000D02*
X42945000Y-31940000D01*
X42945000Y-33940000D02*
X42945000Y-35590000D01*
X42945000Y-35590000D02*
X48145000Y-35590000D01*
X48145000Y-30290000D02*
X42945000Y-30290000D01*
X48145000Y-35590000D02*
X48145000Y-30290000D01*
X42945000Y-31940000D02*
G75*
G02*
X42945000Y-33940000I0J-1000000D01*
G01*
%TO.C,K1*%
X61650000Y-6550000D02*
X61650000Y-13150000D01*
X61650000Y-6550000D02*
X81450000Y-6550000D01*
X61650000Y-15550000D02*
X61650000Y-22150000D01*
X65700000Y-14400000D02*
X64900000Y-14400000D01*
X65700000Y-14400000D02*
X65700000Y-18000000D01*
X66600000Y-20400000D02*
X69100000Y-20400000D01*
X67100000Y-12600000D02*
X71100000Y-12600000D01*
X67100000Y-16200000D02*
X67100000Y-12600000D01*
X69100000Y-8400000D02*
X66600000Y-8400000D01*
X69100000Y-8400000D02*
X69100000Y-12600000D01*
X69100000Y-16200000D02*
X69100000Y-20400000D01*
X71100000Y-12600000D02*
X71100000Y-16200000D01*
X71100000Y-16200000D02*
X67100000Y-12600000D01*
X71100000Y-16200000D02*
X67100000Y-16200000D01*
X72500000Y-14400000D02*
X72500000Y-18000000D01*
X72500000Y-14400000D02*
X74000000Y-14400000D01*
X72500000Y-18000000D02*
X65700000Y-18000000D01*
X74000000Y-14400000D02*
X78600000Y-11900000D01*
X77200000Y-10150000D02*
X77200000Y-12650000D01*
X77200000Y-18550000D02*
X77200000Y-16100000D01*
X81450000Y-6550000D02*
X81450000Y-22150000D01*
X81450000Y-22150000D02*
X61650000Y-22150000D01*
%TO.C,R3*%
X51890000Y-25000000D02*
X50940000Y-25000000D01*
X50940000Y-25920000D02*
X50940000Y-24080000D01*
X50940000Y-24080000D02*
X47100000Y-24080000D01*
X47100000Y-25920000D02*
X50940000Y-25920000D01*
X47100000Y-24080000D02*
X47100000Y-25920000D01*
X46150000Y-25000000D02*
X47100000Y-25000000D01*
%TO.C,D1*%
X59670000Y-16240000D02*
X59670000Y-10800000D01*
X59670000Y-11820000D02*
X56730000Y-11820000D01*
X59670000Y-11700000D02*
X56730000Y-11700000D01*
X59670000Y-11580000D02*
X56730000Y-11580000D01*
X59670000Y-10800000D02*
X56730000Y-10800000D01*
X58200000Y-17260000D02*
X58200000Y-16240000D01*
X58200000Y-9780000D02*
X58200000Y-10800000D01*
X56730000Y-16240000D02*
X59670000Y-16240000D01*
X56730000Y-10800000D02*
X56730000Y-16240000D01*
%TO.C,R4*%
X51140000Y-40680000D02*
X47300000Y-40680000D01*
X47300000Y-40680000D02*
X47300000Y-42520000D01*
X52090000Y-41600000D02*
X51140000Y-41600000D01*
X46350000Y-41600000D02*
X47300000Y-41600000D01*
X51140000Y-42520000D02*
X51140000Y-40680000D01*
X47300000Y-42520000D02*
X51140000Y-42520000D01*
%TO.C,J4*%
X7530000Y-25790000D02*
X4870000Y-25790000D01*
X7530000Y-30930000D02*
X7530000Y-25790000D01*
X7530000Y-30930000D02*
X4870000Y-30930000D01*
X4870000Y-30930000D02*
X4870000Y-25790000D01*
X7530000Y-32200000D02*
X7530000Y-33530000D01*
X7530000Y-33530000D02*
X6200000Y-33530000D01*
%TO.C,Q1*%
X50280000Y-8290000D02*
X54921000Y-8290000D01*
X50280000Y-11559000D02*
X51790000Y-11559000D01*
X50280000Y-15260000D02*
X51790000Y-15260000D01*
X50280000Y-18530000D02*
X50280000Y-8290000D01*
X50280000Y-18530000D02*
X54921000Y-18530000D01*
X51790000Y-18530000D02*
X51790000Y-8290000D01*
X54921000Y-18530000D02*
X54921000Y-8290000D01*
%TO.C,U2*%
X42945000Y-11290000D02*
X42945000Y-12940000D01*
X42945000Y-14940000D02*
X42945000Y-16590000D01*
X42945000Y-16590000D02*
X48145000Y-16590000D01*
X48145000Y-11290000D02*
X42945000Y-11290000D01*
X48145000Y-16590000D02*
X48145000Y-11290000D01*
X42945000Y-12940000D02*
G75*
G02*
X42945000Y-14940000I0J-1000000D01*
G01*
%TO.C,R2*%
X47090000Y-22720000D02*
X50930000Y-22720000D01*
X50930000Y-22720000D02*
X50930000Y-20880000D01*
X46140000Y-21800000D02*
X47090000Y-21800000D01*
X51880000Y-21800000D02*
X50930000Y-21800000D01*
X47090000Y-20880000D02*
X47090000Y-22720000D01*
X50930000Y-20880000D02*
X47090000Y-20880000D01*
%TO.C,J5*%
X7530000Y-48530000D02*
X6200000Y-48530000D01*
X7530000Y-47200000D02*
X7530000Y-48530000D01*
X4870000Y-45930000D02*
X4870000Y-40790000D01*
X7530000Y-45930000D02*
X4870000Y-45930000D01*
X7530000Y-45930000D02*
X7530000Y-40790000D01*
X7530000Y-40790000D02*
X4870000Y-40790000D01*
%TO.C,R1*%
X46320000Y-5400000D02*
X47270000Y-5400000D01*
X47270000Y-4480000D02*
X47270000Y-6320000D01*
X47270000Y-6320000D02*
X51110000Y-6320000D01*
X51110000Y-4480000D02*
X47270000Y-4480000D01*
X51110000Y-6320000D02*
X51110000Y-4480000D01*
X52060000Y-5400000D02*
X51110000Y-5400000D01*
%TO.C,J1*%
X2400000Y-7200000D02*
X11600000Y-7200000D01*
X2400000Y-15800000D02*
X2400000Y-7200000D01*
X2400000Y-21700000D02*
X2400000Y-20400000D01*
X4400000Y-21700000D02*
X2400000Y-21700000D01*
X10200000Y-22000000D02*
X11900000Y-22000000D01*
X11600000Y-7200000D02*
X11600000Y-21700000D01*
X11600000Y-21700000D02*
X9600000Y-21700000D01*
X11900000Y-22000000D02*
X11900000Y-20700000D01*
%TO.C,D2*%
X60470000Y-37400000D02*
X60470000Y-31960000D01*
X60470000Y-32980000D02*
X57530000Y-32980000D01*
X60470000Y-32860000D02*
X57530000Y-32860000D01*
X60470000Y-32740000D02*
X57530000Y-32740000D01*
X60470000Y-31960000D02*
X57530000Y-31960000D01*
X59000000Y-38420000D02*
X59000000Y-37400000D01*
X59000000Y-30940000D02*
X59000000Y-31960000D01*
X57530000Y-37400000D02*
X60470000Y-37400000D01*
X57530000Y-31960000D02*
X57530000Y-37400000D01*
%TO.C,Q2*%
X50075000Y-38720000D02*
X50075000Y-28480000D01*
X50075000Y-35450000D02*
X51585000Y-35450000D01*
X50075000Y-31749000D02*
X51585000Y-31749000D01*
X51585000Y-38720000D02*
X51585000Y-28480000D01*
X50075000Y-38720000D02*
X54716000Y-38720000D01*
X50075000Y-28480000D02*
X54716000Y-28480000D01*
X54716000Y-38720000D02*
X54716000Y-28480000D01*
D14*
%TO.C,U1*%
X41430000Y-4525000D02*
X41430000Y-55475000D01*
X41430000Y-4525000D02*
X41430000Y-55475000D01*
X30700000Y-4525000D02*
X41430000Y-4525000D01*
X23989000Y-4525000D02*
X30700000Y-4525000D01*
X12920000Y-4525000D02*
X41430000Y-4525000D01*
X12920000Y-4525000D02*
X23989000Y-4525000D01*
X41430000Y-55475000D02*
X12920000Y-55475000D01*
X35980000Y-55475000D02*
X41430000Y-55475000D01*
X18290000Y-55475000D02*
X35980000Y-55475000D01*
X12920000Y-55475000D02*
X12920000Y-4525000D01*
X12920000Y-55475000D02*
X12920000Y-4525000D01*
X12920000Y-55475000D02*
X18290000Y-55475000D01*
D15*
X12450000Y-14485000D02*
G75*
G02*
X12250000Y-14485000I-100000J0D01*
G01*
X12250000Y-14485000D02*
G75*
G02*
X12450000Y-14485000I100000J0D01*
G01*
D13*
%TO.C,J2*%
X82240000Y-10240000D02*
X82240000Y-11040000D01*
X82480000Y-10480000D02*
X82480000Y-18841000D01*
X83280000Y-10240000D02*
X82240000Y-10240000D01*
X83400000Y-10480000D02*
X83400000Y-18841000D01*
X84400000Y-10480000D02*
X84400000Y-18841000D01*
X87501000Y-10480000D02*
X87501000Y-18841000D01*
X89220000Y-10480000D02*
X82480000Y-10480000D01*
X89220000Y-10480000D02*
X89220000Y-18841000D01*
X89220000Y-18841000D02*
X82480000Y-18841000D01*
%TO.C,K2*%
X61650000Y-27150000D02*
X61650000Y-33750000D01*
X61650000Y-27150000D02*
X81450000Y-27150000D01*
X61650000Y-36150000D02*
X61650000Y-42750000D01*
X65700000Y-35000000D02*
X64900000Y-35000000D01*
X65700000Y-35000000D02*
X65700000Y-38600000D01*
X66600000Y-41000000D02*
X69100000Y-41000000D01*
X67100000Y-33200000D02*
X71100000Y-33200000D01*
X67100000Y-36800000D02*
X67100000Y-33200000D01*
X69100000Y-29000000D02*
X66600000Y-29000000D01*
X69100000Y-29000000D02*
X69100000Y-33200000D01*
X69100000Y-36800000D02*
X69100000Y-41000000D01*
X71100000Y-33200000D02*
X71100000Y-36800000D01*
X71100000Y-36800000D02*
X67100000Y-33200000D01*
X71100000Y-36800000D02*
X67100000Y-36800000D01*
X72500000Y-35000000D02*
X72500000Y-38600000D01*
X72500000Y-35000000D02*
X74000000Y-35000000D01*
X72500000Y-38600000D02*
X65700000Y-38600000D01*
X74000000Y-35000000D02*
X78600000Y-32500000D01*
X77200000Y-30750000D02*
X77200000Y-33250000D01*
X77200000Y-39150000D02*
X77200000Y-36700000D01*
X81450000Y-27150000D02*
X81450000Y-42750000D01*
X81450000Y-42750000D02*
X61650000Y-42750000D01*
%TD*%
M02*
