%TF.GenerationSoftware,KiCad,Pcbnew,8.0.4+dfsg-1*%
%TF.CreationDate,2024-09-04T10:49:37-05:00*%
%TF.ProjectId,GreenHouse_automation,47726565-6e48-46f7-9573-655f6175746f,rev?*%
%TF.SameCoordinates,Original*%
%TF.FileFunction,Soldermask,Bot*%
%TF.FilePolarity,Negative*%
%FSLAX46Y46*%
G04 Gerber Fmt 4.6, Leading zero omitted, Abs format (unit mm)*
G04 Created by KiCad (PCBNEW 8.0.4+dfsg-1) date 2024-09-04 10:49:37*
%MOMM*%
%LPD*%
G01*
G04 APERTURE LIST*
G04 Aperture macros list*
%AMRoundRect*
0 Rectangle with rounded corners*
0 $1 Rounding radius*
0 $2 $3 $4 $5 $6 $7 $8 $9 X,Y pos of 4 corners*
0 Add a 4 corners polygon primitive as box body*
4,1,4,$2,$3,$4,$5,$6,$7,$8,$9,$2,$3,0*
0 Add four circle primitives for the rounded corners*
1,1,$1+$1,$2,$3*
1,1,$1+$1,$4,$5*
1,1,$1+$1,$6,$7*
1,1,$1+$1,$8,$9*
0 Add four rect primitives between the rounded corners*
20,1,$1+$1,$2,$3,$4,$5,0*
20,1,$1+$1,$4,$5,$6,$7,0*
20,1,$1+$1,$6,$7,$8,$9,0*
20,1,$1+$1,$8,$9,$2,$3,0*%
G04 Aperture macros list end*
%ADD10C,3.800000*%
%ADD11R,1.700000X1.700000*%
%ADD12O,1.700000X1.700000*%
%ADD13R,2.000000X2.000000*%
%ADD14C,2.000000*%
%ADD15R,1.600000X1.600000*%
%ADD16O,1.600000X1.600000*%
%ADD17C,3.000000*%
%ADD18C,2.500000*%
%ADD19O,1.400000X1.400000*%
%ADD20C,1.400000*%
%ADD21R,2.200000X2.200000*%
%ADD22O,2.200000X2.200000*%
%ADD23R,2.000000X1.905000*%
%ADD24O,2.000000X1.905000*%
%ADD25R,4.600000X2.000000*%
%ADD26O,4.200000X2.000000*%
%ADD27O,2.000000X4.200000*%
%ADD28RoundRect,0.102000X-1.000000X-1.000000X1.000000X-1.000000X1.000000X1.000000X-1.000000X1.000000X0*%
%ADD29C,2.204000*%
G04 APERTURE END LIST*
D10*
%TO.C,*%
X87000000Y-55800000D03*
%TD*%
%TO.C,*%
X87000000Y-55800000D03*
%TD*%
%TO.C,*%
X87000000Y-55800000D03*
%TD*%
%TO.C,H3*%
X87000000Y-55800000D03*
%TD*%
%TO.C,H4*%
X3000000Y-56000000D03*
%TD*%
D11*
%TO.C,J6*%
X79400000Y-46860000D03*
D12*
X79400000Y-49400000D03*
X79400000Y-51940000D03*
X79400000Y-54480000D03*
X79400000Y-57020000D03*
%TD*%
D13*
%TO.C,J3*%
X86000000Y-32860000D03*
D14*
X86000000Y-35400000D03*
X86000000Y-37940000D03*
%TD*%
D15*
%TO.C,U3*%
X44275000Y-36750000D03*
D16*
X46815000Y-36750000D03*
X46815000Y-29130000D03*
X44275000Y-29130000D03*
%TD*%
D17*
%TO.C,K1*%
X63050000Y-14350000D03*
D18*
X65000000Y-20400000D03*
D17*
X77200000Y-20400000D03*
X77250000Y-8350000D03*
D18*
X65000000Y-8400000D03*
%TD*%
D19*
%TO.C,R3*%
X45210000Y-25000000D03*
D20*
X52830000Y-25000000D03*
%TD*%
D21*
%TO.C,D1*%
X58200000Y-8440000D03*
D22*
X58200000Y-18600000D03*
%TD*%
D20*
%TO.C,R4*%
X53030000Y-41600000D03*
D19*
X45410000Y-41600000D03*
%TD*%
D11*
%TO.C,J4*%
X6200000Y-32200000D03*
D12*
X6200000Y-29660000D03*
X6200000Y-27120000D03*
%TD*%
D23*
%TO.C,Q1*%
X53550000Y-15950000D03*
D24*
X53550000Y-13410000D03*
X53550000Y-10870000D03*
%TD*%
D15*
%TO.C,U2*%
X44275000Y-17750000D03*
D16*
X46815000Y-17750000D03*
X46815000Y-10130000D03*
X44275000Y-10130000D03*
%TD*%
D10*
%TO.C,H2*%
X86800000Y-4200000D03*
%TD*%
%TO.C,H1*%
X3400000Y-4000000D03*
%TD*%
D19*
%TO.C,R2*%
X45200000Y-21800000D03*
D20*
X52820000Y-21800000D03*
%TD*%
D12*
%TO.C,J5*%
X6200000Y-42120000D03*
X6200000Y-44660000D03*
D11*
X6200000Y-47200000D03*
%TD*%
D20*
%TO.C,R1*%
X53000000Y-5400000D03*
D19*
X45380000Y-5400000D03*
%TD*%
D25*
%TO.C,J1*%
X7000000Y-21000000D03*
D26*
X7000000Y-14700000D03*
D27*
X2200000Y-18100000D03*
%TD*%
D21*
%TO.C,D2*%
X59000000Y-29600000D03*
D22*
X59000000Y-39760000D03*
%TD*%
D23*
%TO.C,Q2*%
X53345000Y-36140000D03*
D24*
X53345000Y-33600000D03*
X53345000Y-31060000D03*
%TD*%
D17*
%TO.C,U1*%
X14920000Y-6525000D03*
X14920000Y-53475000D03*
X39430000Y-6525000D03*
X39430000Y-53475000D03*
D28*
X14500000Y-14485000D03*
D29*
X14500000Y-17025000D03*
X14500000Y-19565000D03*
X14500000Y-22105000D03*
X14500000Y-24645000D03*
X14500000Y-27185000D03*
X14500000Y-29725000D03*
X14500000Y-32265000D03*
X14500000Y-34805000D03*
X14500000Y-37345000D03*
X14500000Y-39885000D03*
X14500000Y-42425000D03*
X14500000Y-44965000D03*
X14500000Y-47505000D03*
X14500000Y-50045000D03*
X39900000Y-50045000D03*
X39900000Y-47505000D03*
X39900000Y-44965000D03*
X39900000Y-42425000D03*
X39900000Y-39885000D03*
X39900000Y-37345000D03*
X39900000Y-34805000D03*
X39900000Y-32265000D03*
X39900000Y-29725000D03*
X39900000Y-27185000D03*
X39900000Y-24645000D03*
X39900000Y-22105000D03*
X39900000Y-19565000D03*
X39900000Y-17025000D03*
X39900000Y-14485000D03*
%TD*%
D13*
%TO.C,J2*%
X86000000Y-12120000D03*
D14*
X86000000Y-14660000D03*
X86000000Y-17200000D03*
%TD*%
D17*
%TO.C,K2*%
X63050000Y-34950000D03*
D18*
X65000000Y-41000000D03*
D17*
X77200000Y-41000000D03*
X77250000Y-28950000D03*
D18*
X65000000Y-29000000D03*
%TD*%
M02*
